<?xml version="1.0" standalone="no"?>
<!DOCTYPE svg PUBLIC "-//W3C//DTD SVG 1.1//EN" "http://www.w3.org/Graphics/SVG/1.1/DTD/svg11.dtd" >
<svg>
<metadata>
Created by FontForge 20090914 at Wed Nov 14 21:52:02 2018
 By www-data
</metadata>
<defs>
<font id="SkodaPro-LightItalic" horiz-adv-x="778" >
  <font-face 
    font-family="Skoda Pro Light"
    font-weight="300"
    font-style="italic"
    font-stretch="normal"
    units-per-em="2048"
    panose-1="2 0 0 0 0 0 0 0 0 0"
    ascent="1638"
    descent="-410"
    x-height="1071"
    cap-height="1475"
    bbox="-762.048 -471.001 2313.21 1920"
    underline-thickness="102"
    underline-position="-103"
    slope="-10"
    unicode-range="U+0020-U+FB02"
  />
<missing-glyph horiz-adv-x="0" 
 />
    <glyph glyph-name=".notdef" horiz-adv-x="0" 
 />
    <glyph glyph-name="space" unicode=" " horiz-adv-x="508" 
 />
    <glyph glyph-name="exclam" unicode="!" horiz-adv-x="489" 
d="M188 410c-7.33301 0 -10.666 4 -9.99902 12l184 1041c0.666992 8 5.33398 13 14.001 15l50 14c7.33301 2 10.666 -1 9.99902 -9l-205 -1061c-0.666992 -8 -5.33398 -12 -14.001 -12h-29zM102 0c-7.33301 0 -10.666 4 -9.99902 12l35 181c0.666992 8 5.33398 13 14.001 15
l52 14c7.33301 2 10.666 -1 9.99902 -9l-37 -201c-0.666992 -8 -5.33398 -12 -14.001 -12h-50z" />
    <glyph glyph-name="quotedbl" unicode="&#x22;" horiz-adv-x="601" 
d="M224 1044c-7.33301 0 -10.666 4 -9.99902 12l76 407c0.666992 8 5.33398 13 14.001 15l62 14c7.33301 2 10.666 -1 9.99902 -9l-80 -427c-0.666992 -8 -5.33398 -12 -14.001 -12h-58zM460 1044c-7.33301 0 -10.666 4 -9.99902 12l76 407c0.666992 8 5.33398 13 14.001 15
l62 14c7.33301 2 10.666 -1 9.99902 -9l-80 -427c-0.666992 -8 -5.33398 -12 -14.001 -12h-58z" />
    <glyph glyph-name="numbersign" unicode="#" horiz-adv-x="1445" 
d="M721 0c-8.66699 0 -11.334 3.66699 -8.00098 11l145 401h-467l-145 -401c-2.66699 -7.33301 -8 -11 -16 -11h-42c-8.66699 0 -11.334 3.66699 -8.00098 11l145 401h-276c-8.66699 0 -11.334 3.66699 -8.00098 11l16 41c2.66699 7.33301 8 11 16 11h275l190 524h-270
c-8.66699 0 -11.334 3.66699 -8.00098 11l15 42c2.66699 7.33301 8 11 16 11h270l146 401c2.66699 7.33301 8 11 16 11h41c8.66699 0 11.334 -3.66699 8.00098 -11l-145 -401h466l146 401c2.66699 7.33301 8 11 16 11h42c8.66699 0 11.334 -3.66699 8.00098 -11l-146 -401
h277c8.66699 0 11.334 -3.66699 8.00098 -11l-17 -42c-2.66699 -7.33301 -8 -11 -16 -11h-275l-190 -524h271c8.66699 0 11.334 -3.66699 8.00098 -11l-17 -41c-2.66699 -7.33301 -8 -11 -16 -11h-269l-145 -401c-2.66699 -7.33301 -8 -11 -16 -11h-41zM604 999l-190 -524
h467l189 524h-466z" />
    <glyph glyph-name="dollar" unicode="$" horiz-adv-x="1035" 
d="M344 -266c-7.33301 0 -10.665 4 -9.99805 12l45 235c-9.33301 0 -18.5 -0.166992 -27.5 -0.5s-18.167 -0.5 -27.5 -0.5c-26 0 -52.667 0.666992 -80 2s-54.166 3.16602 -80.499 5.49902s-51.5 5.33301 -75.5 9s-45.667 7.83398 -65 12.501c-8 2 -10 6.33301 -6 13l21 36
c4.66699 6 10.667 8.66699 18 8c54 -9.33301 104.167 -15.833 150.5 -19.5s89.833 -5.5 130.5 -5.5h26.5c8.33301 0 16.833 0.333008 25.5 1l128 690l-68 30c-37.333 16 -71.333 32.833 -102 50.5s-57 38.334 -79 62.001s-39 51.167 -51 82.5s-18 68.666 -18 111.999
c0 62 6.33301 118 19 168s36 93.167 70 129.5s80.667 65.166 140 86.499s136 34.666 230 39.999l43 236c0.666992 8 5.33398 12 14.001 12h38c7.33301 0 10.666 -4 9.99902 -12l-43 -235c4.66699 0 9.16699 0.166992 13.5 0.5s9.16602 0.5 14.499 0.5
c52 0 102.333 -2.16699 151 -6.5s90 -10.166 124 -17.499c8.66699 -2 11 -6.66699 7 -14l-15 -35c-3.33301 -7.33301 -9 -10 -17 -8c-16.667 3.33301 -35.5 6.33301 -56.5 9s-43 4.83398 -66 6.50098s-46.333 2.83398 -70 3.50098s-46.167 1 -67.5 1h-31l-122 -661l61 -25
c44 -19.333 81.667 -39 113 -59s57 -41.667 77 -65s34.667 -49 44 -77s14 -60 14 -96c0 -70.667 -8 -133.334 -24 -188.001s-41.833 -101.5 -77.5 -140.5s-82.334 -70 -140.001 -93s-128.5 -37.833 -212.5 -44.5l-44 -239c-0.666992 -8 -5.33398 -12 -14.001 -12h-38z
M646.001 1431c-81.333 -4 -147.165 -13.998 -197.498 -29.998s-89.333 -38.5 -117 -67.5s-46.334 -65 -56.001 -108s-14.5 -93.167 -14.5 -150.5c0 -38.667 5.66699 -71.334 17 -98.001s28.166 -50 50.499 -70s49.833 -38.333 82.5 -55s70.667 -34.334 114 -53.001z
M451.002 45.002c74 6.66699 135.499 19.835 184.499 39.502s88 46 117 79s49.5 72.5 61.5 118.5s18 98.667 18 158c0 32 -4.66699 60 -14 84s-24.166 46.167 -44.499 66.5s-47 39.666 -80 57.999s-72.833 38.166 -119.5 59.499z" />
    <glyph glyph-name="percent" unicode="%" horiz-adv-x="1718" 
d="M414 588c-48 0 -89.999 5.83301 -125.999 17.5s-64.833 32 -86.5 61s-35 67.833 -40 116.5s-0.5 110 13.5 184l26 147c14 74 32.833 135.5 56.5 184.5s51.667 88 84 117s68.833 49.5 109.5 61.5s85 18 133 18c48.667 0 91.167 -6 127.5 -18s65.166 -32.5 86.499 -61.5
s34.5 -68 39.5 -117s0.5 -110.5 -13.5 -184.5l-27 -147c-14 -74 -32.5 -135.333 -55.5 -184s-50.5 -87.5 -82.5 -116.5s-68.5 -49.333 -109.5 -61s-86.167 -17.5 -135.5 -17.5zM572.001 1438c-38.667 0 -74.333 -5.00293 -107 -15.0029s-62.167 -27.333 -88.5 -52
s-49.166 -57.834 -68.499 -99.501s-35 -94.167 -47 -157.5l-27 -147c-12 -63.333 -15.833 -115.666 -11.5 -156.999s15.166 -74.166 32.499 -98.499s40.666 -41.5 69.999 -51.5s63.333 -15 102 -15s74.5 5 107.5 15s62.5 27.333 88.5 52s48.667 57.834 68 99.501
s35 94.167 47 157.5l26 145c12 63.333 16 115.833 12 157.5s-14.667 74.834 -32 99.501s-40.666 42 -69.999 52s-63.333 15 -102 15zM1174 -20.0029c-48 0 -90 5.83301 -126 17.5s-64.833 32 -86.5 61s-35.167 67.667 -40.5 116s-1 109.5 13 183.5l27 148
c14 74 32.667 135.5 56 184.5s51 88 83 117s68.333 49.5 109 61.5s85 18 133 18c48.667 0 91.167 -6 127.5 -18s65.333 -32.5 87 -61.5s35.167 -68 40.5 -117s1 -110.5 -13 -184.5l-27 -148c-14 -74 -32.5 -135.167 -55.5 -183.5s-50.5 -87 -82.5 -116
s-68.5 -49.333 -109.5 -61s-86.167 -17.5 -135.5 -17.5zM1332 828.997c-38.667 0 -74.332 -5.00098 -106.999 -15.001s-62.167 -27.167 -88.5 -51.5s-49.333 -57.333 -69 -99s-35.5 -94.167 -47.5 -157.5l-26 -148c-12 -63.333 -15.833 -115.5 -11.5 -156.5
s15.166 -73.833 32.499 -98.5s40.666 -41.834 69.999 -51.501s63 -14.5 101 -14.5c38.667 0 74.5 4.83301 107.5 14.5s62.667 26.834 89 51.501s49.166 57.834 68.499 99.501s35 94.167 47 157.5l26 146c12 63.333 15.833 115.833 11.5 157.5s-15.166 74.667 -32.499 99
s-40.666 41.5 -69.999 51.5s-63 15 -101 15zM256.004 -0.00390625c-8.66699 0 -10 3 -4 9l1170 1457c5.33301 6 12 9 20 9h52c8.66699 0 10 -3 4 -9l-1170 -1457c-5.33301 -6 -12 -9 -20 -9h-52z" />
    <glyph glyph-name="ampersand" unicode="&#x26;" horiz-adv-x="1364" 
d="M1104 0c-8.66699 0 -14.667 3.33203 -18 9.99902l-136 212c-40 -36.667 -82.333 -69.834 -127 -99.501s-92 -55 -142 -76s-102.833 -37.333 -158.5 -49s-114.167 -17.5 -175.5 -17.5c-14.667 0 -32.5 0.666992 -53.5 2s-43 5 -66 11s-45.833 15.167 -68.5 27.5
s-43 29.5 -61 51.5s-32.667 49.667 -44 83s-17 74.333 -17 123c0 35.333 3.33301 68.166 10 98.499s17.667 59.833 33 88.5s35.5 57.5 60.5 86.5s55.833 59.833 92.5 92.5s79.667 67.834 129 105.501l170 127.5c-23.333 36 -44.166 69.833 -62.499 101.5
s-33.833 62 -46.5 91s-22.5 56.833 -29.5 83.5s-10.5 53.334 -10.5 80.001c0 50.667 8.66699 92.834 26 126.501s41.166 60.5 71.499 80.5s66 34.167 107 42.5s85.5 12.5 133.5 12.5c35.333 0 68.5 -3.5 99.5 -10.5s58.167 -18.167 81.5 -33.5s41.666 -35.333 54.999 -60
s20 -55 20 -91c0 -28.667 -2.66699 -54.334 -8 -77.001s-13.833 -44.167 -25.5 -64.5s-26.834 -40.333 -45.501 -60s-41.334 -40.667 -68.001 -63l-92.5 -74.5l-118.5 -94l344 -540c56.667 58.667 107.334 123 152.001 193s83 142.333 115 217c3.33301 7.33301 9 11 17 11
h44c8 0 10.333 -3.66699 7 -11c-37.333 -85.333 -80.666 -167.666 -129.999 -246.999s-105.666 -152.333 -168.999 -219l167 -261c4.66699 -6.66699 2.66699 -10 -6 -10h-56zM104 289.999c0 -56.667 8.16504 -101.5 24.498 -134.5s37 -58 62 -75s52 -27.833 81 -32.5
s56.5 -7 82.5 -7c53.333 0 105.333 5.66699 156 17s99.5 27.333 146.5 48s92 45.667 135 75s83.833 62 122.5 98l-350 547l-201 -154.5c-57.333 -45.667 -105.166 -89.167 -143.499 -130.5s-67.166 -82 -86.499 -122s-29 -83 -29 -129zM710.998 1438
c-34.667 0 -67.834 -3.16504 -99.501 -9.49805s-59.667 -17 -84 -32s-43.833 -35.333 -58.5 -61s-22 -57.834 -22 -96.501c0 -26 3.66699 -51.833 11 -77.5s17.333 -51.834 30 -78.501s27.334 -53.667 44.001 -81l54 -85l150.5 116.5c41.667 33 75.667 63.5 102 91.5
s45.5 54.833 57.5 80.5s18 53.5 18 83.5c0 50.667 -18.5 88.167 -55.5 112.5s-86.167 36.5 -147.5 36.5z" />
    <glyph glyph-name="quotesingle" unicode="'" horiz-adv-x="365" 
d="M224 1044c-7.33301 0 -10.666 4 -9.99902 12l76 407c0.666992 8 5.33398 13 14.001 15l62 14c7.33301 2 10.666 -1 9.99902 -9l-80 -427c-0.666992 -8 -5.33398 -12 -14.001 -12h-58z" />
    <glyph glyph-name="parenleft" unicode="(" horiz-adv-x="523" 
d="M182 516c-8.66699 -46 -15.833 -94.5 -21.5 -145.5s-9.16699 -103.167 -10.5 -156.5s-0.666016 -106.666 2.00098 -159.999s8 -105.5 16 -156.5s18.667 -99.833 32 -146.5s30 -89.667 50 -129c4 -7.33301 2 -11 -6 -11h-41c-7.33301 0 -13.333 3.66699 -18 11
c-20 39.333 -36.667 82.333 -50 129s-23.833 95.5 -31.5 146.5s-12.667 103.167 -15 156.5s-2.5 106.666 -0.5 159.999s5.83301 105.5 11.5 156.5s12.834 99.5 21.501 145.5l8 53c12.667 69.333 30.834 143.833 54.501 223.5s52.167 159.5 85.5 239.5
s71.666 157.5 114.999 232.5s91 142.167 143 201.5c5.33301 6 12 9 20 9h41c7.33301 0 8.66602 -3 3.99902 -9c-52 -59.333 -99.833 -126.5 -143.5 -201.5s-82.334 -152.5 -116.001 -232.5s-62.5 -159.833 -86.5 -239.5s-42.333 -154.167 -55 -223.5l-9 -53v0z" />
    <glyph glyph-name="parenright" unicode=")" horiz-adv-x="527" 
d="M315 569c8.66699 46 15.834 94.501 21.501 145.501s9.16699 103.167 10.5 156.5s0.666016 106.666 -2.00098 159.999s-8 105.5 -16 156.5s-18.667 99.833 -32 146.5s-30 89.667 -50 129c-4 7.33301 -2 11 6 11h41c7.33301 0 13.333 -3.66699 18 -11
c20 -39.333 36.667 -82.333 50 -129s23.833 -95.5 31.5 -146.5s12.667 -103.167 15 -156.5s2.5 -106.666 0.5 -159.999s-5.83301 -105.5 -11.5 -156.5s-12.834 -99.5 -21.501 -145.5l-8 -53c-13.333 -69.333 -31.666 -144 -54.999 -224s-51.666 -160 -84.999 -240
s-71.666 -157.333 -114.999 -232s-91 -141.667 -143 -201c-5.33301 -6 -12 -9 -20 -9h-41c-8 0 -9.33301 3 -4 9c34.667 39.333 67.5 82.5 98.5 129.5s60 96 87 147s51.667 103.333 74 157s42.666 107.167 60.999 160.5s34.166 105.666 47.499 156.999s24.333 100 33 146
l9 53v0z" />
    <glyph glyph-name="asterisk" unicode="*" horiz-adv-x="889" 
d="M257 1345c-6.66699 4.66699 -7.66797 10.3311 -3.00098 16.998l22 31c4.66699 6.66699 10.334 8 17.001 4l229 -149l54 296c0.666992 8 5.33398 12 14.001 12h38c7.33301 0 10.666 -4 9.99902 -12l-56 -292l282 148c6.66699 3.33301 12 1.33301 16 -6l15 -33
c4 -7.33301 2 -13 -6 -17l-287 -147l228 -144c6.66699 -4 7.66699 -9.33301 3 -16l-24 -32c-4.66699 -6.66699 -10.334 -8 -17.001 -4l-229 149l-54 -298c-2 -8 -6.66699 -12 -14 -12h-38c-8.66699 0 -12 4 -10 12l55 293l-281 -146
c-7.33301 -3.33301 -12.666 -1.66602 -15.999 5.00098l-13 34c-3.33301 6.66699 -1.33301 12.334 6 17.001l285 146z" />
    <glyph glyph-name="plus" unicode="+" horiz-adv-x="976" 
d="M137 776c-7.33301 0 -10.666 4 -9.99902 12l8 38c0.666992 8 5.33398 12 14.001 12h346l64 346c0.666992 8 5.33398 12 14.001 12h37c7.33301 0 10.666 -4 9.99902 -12l-64 -346h347c7.33301 0 10.666 -4 9.99902 -12l-8 -38c-0.666992 -8 -5.33398 -12 -14.001 -12h-347
l-63 -346c-0.666992 -8 -5.33398 -12 -14.001 -12h-37c-7.33301 0 -10.666 4 -9.99902 12l64 346h-347z" />
    <glyph glyph-name="comma" unicode="," horiz-adv-x="405" 
d="M-55 -225c-8.66699 0 -11.332 3.66699 -7.99902 11l157 408c2.66699 8 8 12.333 16 13l71 16c7.33301 0.666992 9.66602 -2.33301 6.99902 -9l-187 -428c-4 -7.33301 -9.66699 -11 -17 -11h-39z" />
    <glyph glyph-name="hyphen" unicode="-" horiz-adv-x="846" 
d="M187 586c-7.33301 0 -10.666 4 -9.99902 12l8 37c0.666992 8 5.33398 12 14.001 12h455c7.33301 0 10.666 -4 9.99902 -12l-8 -37c-0.666992 -8 -5.33398 -12 -14.001 -12h-455z" />
    <glyph glyph-name="period" unicode="." horiz-adv-x="377" 
d="M52 0c-7.33301 0 -10.666 4 -9.99902 12l35 181c0.666992 8 5.33398 13 14.001 15l52 14c7.33301 2 10.666 -1 9.99902 -9l-37 -201c-0.666992 -8 -5.33398 -12 -14.001 -12h-50z" />
    <glyph glyph-name="slash" unicode="/" horiz-adv-x="782" 
d="M3 0c-8 0 -10.333 3.66699 -7 11l788 1534c3.33301 7.33301 9 11 17 11h44c8 0 10.333 -3.66699 7 -11l-787 -1534c-4 -7.33301 -9.66699 -11 -17 -11h-45z" />
    <glyph glyph-name="zero" unicode="0" horiz-adv-x="1321" 
d="M538 -20c-51.333 0 -98.1631 2.83301 -140.496 8.5s-79.333 16.5 -111 32.5s-58 38.167 -79 66.5s-36.167 65.166 -45.5 110.499s-12.5 100.5 -9.5 165.5s12.833 141.833 29.5 230.5l53 285c16 88.667 34.5 165.5 55.5 230.5s44.5 120.333 70.5 166
s54.833 82.667 86.5 111s66.5 50.666 104.5 66.999s79.167 27.333 123.5 33s92.166 8.5 143.499 8.5c52.667 0 100.5 -2.83301 143.5 -8.5s80.333 -16.667 112 -33s58 -38.666 79 -66.999s36 -65.333 45 -111s11.667 -101 8 -166s-13.5 -141.833 -29.5 -230.5l-53 -285
c-16 -88.667 -34.333 -165.5 -55 -230.5s-43.834 -120.167 -69.501 -165.5s-54.334 -82.166 -86.001 -110.499s-66.334 -50.5 -104.001 -66.5s-79.167 -26.833 -124.5 -32.5s-94.333 -8.5 -147 -8.5zM806.003 1434c-44 0 -85.168 -2.16602 -123.501 -6.49902
s-73.833 -13.166 -106.5 -26.499s-62.667 -32.5 -90 -57.5s-52.5 -57.833 -75.5 -98.5s-43.833 -90.667 -62.5 -150s-35.667 -130 -51 -212l-54 -293c-15.333 -82 -24.666 -152.5 -27.999 -211.5s-1 -108.833 7 -149.5s21.167 -73.334 39.5 -98.001s41.333 -43.667 69 -57
s59.667 -22.166 96 -26.499s76.833 -6.5 121.5 -6.5c45.333 0 87.5 2.16699 126.5 6.5s75 13.166 108 26.499s63.167 32.333 90.5 57s52.5 57.5 75.5 98.5s43.833 91 62.5 150s35.667 129.833 51 212.5l54 291c15.333 82 24.666 152.667 27.999 212s1 109.333 -7 150
s-21.167 73.5 -39.5 98.5s-41.5 44.167 -69.5 57.5s-60.667 22.166 -98 26.499s-78.666 6.5 -123.999 6.5z" />
    <glyph glyph-name="one" unicode="1" horiz-adv-x="694" 
d="M173 1364c-8 -2 -11.999 1.33301 -11.999 10l2 37c0 7.33301 4 12 12 14l371 48c3.33301 0.666992 7.33301 1.16699 12 1.5s8.66699 0.5 12 0.5h38c7.33301 0 10.666 -4 9.99902 -12l-269 -1451c-0.666992 -8 -5.33398 -12 -14.001 -12h-37
c-7.33301 0 -10.666 4 -9.99902 12l258 1401z" />
    <glyph glyph-name="two" unicode="2" horiz-adv-x="1043" 
d="M-2 0c-7.33301 0 -10.667 4.00098 -10 12.001l10 49c12 65.333 27.5 123.333 46.5 174s44.5 98.167 76.5 142.5s71.333 87.166 118 128.499s103.667 85.666 171 132.999l266 186l116.5 83c35.667 26 66.334 54 92.001 84s45.834 64 60.501 102s22 83.667 22 137
c0 38 -6.16699 70 -18.5 96s-32.5 47 -60.5 63s-64.5 27.333 -109.5 34s-100.167 10 -165.5 10c-44 0 -92.5 -2 -145.5 -6s-105.833 -11 -158.5 -21c-8 -0.666992 -12 2.66602 -12 9.99902l-2 35c0 8 4 13 12 15c22.667 4.66699 47.834 8.83398 75.501 12.501
s55.5 6.66699 83.5 9s55.5 4 82.5 5s51.167 1.5 72.5 1.5c72 0 133.833 -4.33301 185.5 -13s94 -22.834 127 -42.501s57.333 -45.667 73 -78s23.5 -72.5 23.5 -120.5c0 -58 -6.66699 -107.667 -20 -149s-33.5 -78.833 -60.5 -112.5s-60.667 -66 -101 -97
s-87.5 -65.167 -141.5 -102.5l-240 -166c-69.333 -48 -127.5 -92.167 -174.5 -132.5s-85.833 -81.166 -116.5 -122.499s-54.834 -85.666 -72.501 -132.999s-32.167 -102.333 -43.5 -165h737c7.33301 0 10.666 -4 9.99902 -12l-8 -37c-0.666992 -8 -5.33398 -12 -14.001 -12
h-787z" />
    <glyph glyph-name="three" unicode="3" horiz-adv-x="1128" 
d="M326 -20c-52 0 -102.341 2.83691 -151.008 8.50391s-92 12.167 -130 19.5c-8 0.666992 -11 5.33398 -9 14.001l8 38c2 7.33301 7 10.666 15 9.99902c40.667 -8 85.834 -14.833 135.501 -20.5s97.5 -8.5 143.5 -8.5c76.667 0 144.167 6 202.5 18s108.333 31.833 150 59.5
s75.667 64 102 109s45.5 100.833 57.5 167.5l8 41c6.66699 36 8.66699 74 6 114s-13.334 76.667 -32.001 110s-47 61 -85 83s-89 33 -153 33h-371c-7.33301 0 -10.666 4 -9.99902 12l8 38c0.666992 8 5.33398 12 14.001 12h371c65.333 0 121 9.66699 167 29
s83.667 43 113 71s51.666 58 66.999 90s25.333 60.667 30 86l4 25c11.333 59.333 10.333 108.166 -3 146.499s-37.166 68.666 -71.499 90.999s-78.333 37.833 -132 46.5s-115.167 13 -184.5 13c-46 0 -94.333 -3.16699 -145 -9.5s-98.667 -12.833 -144 -19.5
c-8.66699 -1.33301 -12 2 -10 10l4 37c2 8.66699 6.66699 13.334 14 14.001c40.667 7.33301 86.334 13.666 137.001 18.999s102 8 154 8c79.333 0 149.5 -5.5 210.5 -16.5s110.833 -30 149.5 -57s65.334 -63.5 80.001 -109.5s15.667 -103.667 3 -173l-4 -25
c-6 -32 -16.833 -64.333 -32.5 -97s-36.167 -63 -61.5 -91s-56 -52.667 -92 -74s-78 -37 -126 -47c48 -12.667 85.833 -32.834 113.5 -60.501s47.834 -59 60.501 -94s19.334 -71.333 20.001 -109s-1.66602 -72.834 -6.99902 -105.501l-8 -41
c-15.333 -80 -39.5 -146.667 -72.5 -200s-74.167 -96 -123.5 -128s-106.666 -54.5 -171.999 -67.5s-138 -19.5 -218 -19.5z" />
    <glyph glyph-name="four" unicode="4" horiz-adv-x="1147" 
d="M37 416c-7.33301 0 -10.666 4 -9.99902 12l14 74c0.666992 8 4 15 10 21l873 943c5.33301 6 12 9 20 9h78c7.33301 0 10.666 -4 9.99902 -12l-182 -986h187c8 0 11 -4 9 -12l-7 -37c-2 -8 -7 -12 -15 -12h-186l-76 -404c-0.666992 -8 -5.33398 -12 -14.001 -12h-38
c-7.33301 0 -10.666 4 -9.99902 12l76 404h-739zM94 477h695l172 928h-15z" />
    <glyph glyph-name="five" unicode="5" horiz-adv-x="1106" 
d="M311 -20c-62 0 -117.169 2.49902 -165.502 7.49902s-92.166 12.167 -131.499 21.5c-8 2 -10 6.33301 -6 13l21 36c3.33301 6 9.33301 8.66699 18 8c46 -9.33301 91.667 -15.833 137 -19.5s92 -5.5 140 -5.5c152.667 0 276 31.667 370 95s153 158.666 177 285.999l10 49
c10.667 60.667 10.834 113.834 0.500977 159.501s-32.5 83.834 -66.5 114.501s-80.5 53.834 -139.5 69.501s-131.833 23.5 -218.5 23.5c-22 0 -45.333 -1 -70 -3s-48.334 -4.5 -71.001 -7.5s-43.167 -6 -61.5 -9s-32.166 -5.5 -41.499 -7.5
c-7.33301 -0.666992 -10.666 2.66602 -9.99902 9.99902l8 37c1.33301 8.66699 3 16.667 5 24l168 581c2 8 7 12 15 12h713c8.66699 0 11 -3.66699 7 -11l-16 -40c-4 -7.33301 -9.66699 -11 -17 -11h-656l-155 -534l21 3c14 2 30.833 4 50.5 6s40.334 4 62.001 6
s40.5 3 56.5 3c98 0 180.333 -9 247 -27s119.167 -44.833 157.5 -80.5s63.166 -80.167 74.499 -133.5s10.666 -115 -2.00098 -185l-10 -49c-14 -74.667 -38.333 -139.667 -73 -195s-78.667 -101.333 -132 -138s-115 -64 -185 -82s-147 -27 -231 -27z" />
    <glyph glyph-name="six" unicode="6" horiz-adv-x="1216" 
d="M519 -20c-74 0 -138.004 9.50293 -192.004 28.5029s-96 53.167 -126 102.5s-47.333 117 -52 203s5.33301 195.667 30 329l43 225c21.333 118 50.333 217 87 297s82.5 144.5 137.5 193.5s119.833 84 194.5 105s161 31.5 259 31.5c48 0 93.5 -2.33301 136.5 -7
s81.5 -10.667 115.5 -18c8.66699 -0.666992 11 -5 7 -13l-15 -35c-3.33301 -6.66699 -9 -9.66699 -17 -9c-31.333 5.33301 -67.333 10.166 -108 14.499s-83.667 6.5 -129 6.5c-90.667 0 -169.667 -9.33301 -237 -28s-125.166 -50 -173.499 -94s-88.333 -102 -120 -174
s-57.167 -161.333 -76.5 -268l-3 -13c24 4.66699 52.333 9.5 85 14.5s67.167 9.5 103.5 13.5s73.666 7.33301 111.999 10s75.166 4 110.499 4c74 0 138.333 -7.83301 193 -23.5s98.334 -41 131.001 -76s53.834 -80.667 63.501 -137s6.83398 -125.5 -8.49902 -207.5l-2 -11
c-12 -65.333 -32.833 -126.333 -62.5 -183s-67.667 -105.834 -114 -147.501s-100.666 -74.334 -162.999 -98.001s-132.166 -35.5 -209.499 -35.5zM1008 455.003c13.333 71.333 16.332 131.503 8.99902 180.503s-24.833 88.5 -52.5 118.5s-65.5 51.5 -113.5 64.5
s-105.333 19.5 -172 19.5c-36 0 -73.167 -1.33301 -111.5 -4s-75.666 -6 -111.999 -10s-70.5 -8.33301 -102.5 -13s-60 -9.33398 -84 -14.001l-29 -154c-22.667 -122.667 -32.334 -223 -29.001 -301s18 -139.333 44 -184s62.333 -75.334 109 -92.001
s102.334 -25 167.001 -25c69.333 0 131 9.83301 185 29.5s100.667 47.167 140 82.5s71.5 77.666 96.5 126.999s42.833 104 53.5 164z" />
    <glyph glyph-name="seven" unicode="7" horiz-adv-x="973" 
d="M39 0c-8.66699 0 -10.332 3.33203 -4.99902 9.99902l978 1403h-803c-8 0 -12.333 4 -13 12l-2 38c-0.666992 8 3 12 11 12h871c7.33301 0 10.666 -4 9.99902 -12l-7 -40c-0.666992 -7.33301 -3.66699 -14.666 -9 -21.999l-967 -1391c-4 -6.66699 -10.333 -10 -19 -10h-45
z" />
    <glyph glyph-name="eight" unicode="8" horiz-adv-x="1272" 
d="M516 -20c-72 0 -136.167 7.33301 -192.5 22s-102.5 38.5 -138.5 71.5s-60.667 75.667 -74 128s-13 116.166 1 191.499l11 51c4.66699 26.667 14 57 28 91s33.167 67.333 57.5 100s54.833 62.667 91.5 90s80 47.666 130 60.999
c-37.333 10.667 -66.833 27.334 -88.5 50.001s-37.667 48.834 -48 78.501s-15.5 61.834 -15.5 96.501s3 69 9 103l4 16c11.333 60.667 31.166 113.834 59.499 159.501s64.333 83.834 108 114.501s94 53.5 151 68.5s119.5 22.5 187.5 22.5s127.667 -7.5 179 -22.5
s93 -37.833 125 -68.5s53.833 -68.834 65.5 -114.501s11.834 -98.834 0.500977 -159.501l-4 -16c-6 -34 -15.333 -68.333 -28 -103s-29.5 -66.834 -50.5 -96.501s-46.667 -55.834 -77 -78.501s-65.833 -39.334 -106.5 -50.001
c44.667 -13.333 80.334 -33.666 107.001 -60.999s46.167 -57.333 58.5 -90s19.166 -66 20.499 -100s-0.666992 -64.333 -6 -91l-10 -51c-14 -75.333 -37.167 -139.166 -69.5 -191.499s-72.5 -95 -120.5 -128s-102.833 -56.833 -164.5 -71.5s-128.5 -22 -200.5 -22zM348 1114
c-5.33301 -29.333 -6.99805 -61.166 -4.99805 -95.499s11 -66.333 27 -96s41.167 -54.334 75.5 -74.001s81.833 -29.5 142.5 -29.5h168c60 0 110.833 9.83301 152.5 29.5s76 44.334 103 74.001s47.5 61.667 61.5 96s23.667 66.166 29 95.499l4 16
c19.333 104 2.16602 180.667 -51.501 230s-143.834 74 -270.501 74s-225.5 -24.667 -296.5 -74s-116.167 -126 -135.5 -230zM575.002 758c-46.667 0 -88.1689 -5.66699 -124.502 -17s-68.5 -26 -96.5 -44s-52.167 -38.333 -72.5 -61s-37.166 -45.667 -50.499 -69
s-23.833 -45.833 -31.5 -67.5s-12.834 -40.167 -15.501 -55.5l-10 -51c-12 -63.333 -13.333 -117.166 -4 -161.499s28.833 -80.666 58.5 -108.999s69.334 -49 119.001 -62s109.167 -19.5 178.5 -19.5s131.333 6.5 186 19.5s102 33.667 142 62s73 64.666 99 108.999
s45 98.166 57 161.499l10 51c2.66699 15.333 4.16699 33.833 4.5 55.5s-2 44.167 -7 67.5s-13.5 46.333 -25.5 69s-28.667 43 -50 61s-48.166 32.667 -80.499 44s-71.833 17 -118.5 17h-168z" />
    <glyph glyph-name="nine" unicode="9" horiz-adv-x="1211" 
d="M355 -20c-48.667 0 -94.4971 2.33008 -137.497 6.99707s-81.5 10.334 -115.5 17.001c-8.66699 0.666992 -11 5 -7 13l15 35c3.33301 6.66699 9 9.66699 17 9c31.333 -5.33301 67.5 -10 108.5 -14s84.167 -6 129.5 -6c85.333 0 160.5 9.5 225.5 28.5
s121.667 50.833 170 95.5s89.5 103.834 123.5 177.501s63 165.167 87 274.5c-24 -4.66699 -52.167 -9.5 -84.5 -14.5s-66.5 -9.5 -102.5 -13.5s-72.833 -7.33301 -110.5 -10s-73.834 -4 -108.501 -4c-74 0 -138.333 8 -193 24s-98.334 41.833 -131.001 77.5
s-53.834 82.5 -63.501 140.5s-6.5 129 9.5 213l2 10c12 67.333 32.333 128.833 61 184.5s65.167 103.5 109.5 143.5s97 71.167 158 93.5s130.167 33.5 207.5 33.5c48 0 92.167 -3.66699 132.5 -11s76.333 -20.166 108 -38.499s58.5 -43 80.5 -74s38.167 -70 48.5 -117
s14.5 -102.833 12.5 -167.5s-11 -139.667 -27 -225l-29 -164c-26 -136 -58.5 -249.833 -97.5 -341.5s-86.5 -165.5 -142.5 -221.5s-121.5 -95.833 -196.5 -119.5s-161.5 -35.5 -259.5 -35.5zM248.003 1030c-14 -74 -17.3311 -135.999 -9.99805 -185.999
s24.833 -90.333 52.5 -121s65.334 -52.667 113.001 -66s105.167 -20 172.5 -20c35.333 0 71.833 1.16699 109.5 3.5s74.5 5.16602 110.5 8.49902s70.167 7.33301 102.5 12s60.5 9.33398 84.5 14.001c0.666992 3.33301 1.16699 6.83301 1.5 10.5
s1.16602 7.16699 2.49902 10.5l31 166c22.667 119.333 31.167 216.166 25.5 290.499s-22.667 132.333 -51 174s-66.5 70 -114.5 85s-103 22.5 -165 22.5c-69.333 0 -130.333 -9 -183 -27s-97.834 -44 -135.501 -78s-68.334 -75.333 -92.001 -124
s-41.167 -103.667 -52.5 -165z" />
    <glyph glyph-name="colon" unicode=":" horiz-adv-x="448" 
d="M84 0c-7.33301 0 -10.666 4 -9.99902 12l35 181c0.666992 8 5.33398 13 14.001 15l52 14c7.33301 2 10.666 -1 9.99902 -9l-37 -201c-0.666992 -8 -5.33398 -12 -14.001 -12h-50zM209 676c-7.33301 0 -10.666 4 -9.99902 12l35 181c0.666992 8 5.33398 13 14.001 15
l52 14c7.33301 2 10.666 -1 9.99902 -9l-37 -201c-0.666992 -8 -5.33398 -12 -14.001 -12h-50z" />
    <glyph glyph-name="semicolon" unicode=";" horiz-adv-x="487" 
d="M-19 -225c-8.66699 0 -11.332 3.66699 -7.99902 11l157 408c2.66699 8 8 12.333 16 13l71 16c7.33301 0.666992 9.66602 -2.33301 6.99902 -9l-187 -428c-4 -7.33301 -9.66699 -11 -17 -11h-39zM236.002 676c-7.33301 0 -10.666 4 -9.99902 12l35 181
c0.666992 8 5.33398 13 14.001 15l52 14c7.33301 2 10.666 -1 9.99902 -9l-37 -201c-0.666992 -8 -5.33398 -12 -14.001 -12h-50z" />
    <glyph glyph-name="less" unicode="&#x3c;" horiz-adv-x="864" 
d="M133 740c-6 5.33301 -8 11.999 -6 19.999l7 37c2 8 6.33301 14.333 13 19l619 406c6.66699 4.66699 11 3 13 -5l8 -40c2 -8.66699 -0.333008 -15 -7 -19l-584 -385l441 -374c6 -5.33301 7.33301 -11.666 4 -18.999l-18 -41c-4 -7.33301 -8.66699 -8.33301 -14 -3z" />
    <glyph glyph-name="equal" unicode="=" horiz-adv-x="1180" 
d="M198 567c-7.33301 0 -10.666 4 -9.99902 12l8 38c0.666992 8 5.33398 12 14.001 12h755c7.33301 0 10.666 -4 9.99902 -12l-9 -38c-0.666992 -8 -5.33398 -12 -14.001 -12h-754zM274 971c-7.33301 0 -10.666 4 -9.99902 12l6 37c2 8 6.66699 12 14 12h754
c7.33301 0 10.666 -4 9.99902 -12l-6 -37c-2 -8 -6.66699 -12 -14 -12h-754z" />
    <glyph glyph-name="greater" unicode="&#x3e;" horiz-adv-x="862" 
d="M784 816c6 -5.33301 8 -11.999 6 -19.999l-7 -37c-2 -8 -6.33301 -14.333 -13 -19l-619 -406c-6.66699 -4.66699 -11 -3 -13 5l-8 40c-2 8.66699 0.333008 15 7 19l584 385l-441 374c-6 5.33301 -7.33301 11.666 -4 18.999l18 41c4 7.33301 8.66699 8.33301 14 3z" />
    <glyph glyph-name="question" unicode="?" horiz-adv-x="850" 
d="M278 385c-0.666992 -8 -5.33496 -11.998 -14.002 -11.998h-38c-7.33301 0 -10.666 4 -9.99902 12l21 111c8 40.667 15.833 75 23.5 103s19 54.333 34 79s35.5 50.167 61.5 76.5s60.667 58.166 104 95.499l66 57l101.5 90.5c29.667 27 55.167 53.333 76.5 79
s38.833 51.5 52.5 77.5s23.5 54.333 29.5 85c6.66699 36 5.5 66.5 -3.5 91.5s-25.167 45.167 -48.5 60.5s-53.833 26.333 -91.5 33s-82.167 10 -133.5 10c-36.667 0 -74.334 -1.16699 -113.001 -3.5s-82.334 -6.83301 -131.001 -13.5c-8 -2 -12.333 1.33301 -13 10l-2 36
c-0.666992 8.66699 3 13.334 11 14.001c20 3.33301 41.167 6.16602 63.5 8.49902s44.833 4.16602 67.5 5.49902s44.834 2.33301 66.501 3s41.834 1 60.501 1c56.667 0 107.5 -3.66699 152.5 -11s82 -20.833 111 -40.5s49.333 -46.334 61 -80.001
s12.834 -76.5 3.50098 -128.5c-6 -31.333 -15 -60.5 -27 -87.5s-29 -54.5 -51 -82.5s-49.5 -57.667 -82.5 -89s-72.833 -67.333 -119.5 -108l-74 -63c-40.667 -34.667 -72.5 -64 -95.5 -88s-40.833 -46.833 -53.5 -68.5s-22 -44.167 -28 -67.5s-12 -51.666 -18 -84.999z
M162.999 0.00195312c-7.33301 0 -10.666 4 -9.99902 12l35 181c0.666992 8 5.33398 13 14.001 15l52 14c7.33301 2 10.666 -1 9.99902 -9l-37 -201c-0.666992 -8 -5.33398 -12 -14.001 -12h-50z" />
    <glyph glyph-name="at" unicode="@" horiz-adv-x="1736" 
d="M201 563c-20.667 -70 -36.8379 -137.998 -48.5049 -203.998s-16.667 -127.833 -15 -185.5s11 -110.667 28 -159s43.833 -89.833 80.5 -124.5s84.334 -62 143.001 -82s130.667 -30.333 216 -31c8 0 11 -4 9 -12l-11 -42c-2 -8 -7 -12 -15 -12
c-91.333 0.666992 -169.166 12.5 -233.499 35.5s-117 54.167 -158 93.5s-71.5 85.833 -91.5 139.5s-31.667 111.834 -35 174.501s0.833984 128.5 12.501 197.5s28.5 138.833 50.5 209.5l39 125c42 134 94.5 246.5 157.5 337.5s135.333 164.333 217 220
s171.834 95.5 270.501 119.5s204.667 36 318 36c66 0 124.167 -5.83301 174.5 -17.5s94 -27.5 131 -47.5s68.167 -43.667 93.5 -71s45.5 -56.5 60.5 -87.5s25.833 -63.333 32.5 -97s10 -66.834 10 -99.501c0 -132 -13.167 -245.833 -39.5 -341.5s-61.833 -177 -106.5 -244
s-96.5 -121.167 -155.5 -162.5s-120.833 -73.5 -185.5 -96.5s-130.5 -38.5 -197.5 -46.5s-130.833 -12 -191.5 -12c-81.333 0 -146.166 9 -194.499 27s-83 45.333 -104 82s-29.667 83 -26 139s17.167 122 40.5 198l29 96c18.667 62 37.834 116.167 57.501 162.5
s40.834 86.166 63.501 119.499s47.667 60.833 75 82.5s57.833 38.667 91.5 51s71.167 21 112.5 26s87.666 7.5 138.999 7.5c35.333 0 72.333 -1.66699 111 -5s78.667 -10.333 120 -21c8 -2 11 -6.66699 9 -14l-223 -863c67.333 18 131.833 44.833 193.5 80.5
s116 84.667 163 147s84.5 139.666 112.5 231.999s42 203.833 42 334.5c0 54.667 -7.83301 105 -23.5 151s-41.167 85.833 -76.5 119.5s-81.5 60 -138.5 79s-126.833 28.5 -209.5 28.5c-228 0 -417.333 -55 -568 -165s-260.334 -281.333 -329.001 -514zM1028 1008
c-71.333 0 -131.831 -6.66309 -181.498 -19.9961s-92.334 -35.833 -128.001 -67.5s-65.667 -73.334 -90 -125.001s-46.833 -115.5 -67.5 -191.5l-18 -67c-21.333 -78 -34.833 -142.833 -40.5 -194.5s-0.166992 -92.834 16.5 -123.501s45.667 -52.334 87 -65.001
s98 -19 170 -19c24 0 46 0.333008 66 1s38.833 1.66699 56.5 3s34.667 3.16602 51 5.49902s33.166 5.5 50.499 9.5l211 835l-88.5 12.5c-31 4.33301 -62.5 6.5 -94.5 6.5z" />
    <glyph glyph-name="A" unicode="A" horiz-adv-x="1254" 
d="M-67 0c-8.66699 0 -10.668 3.33301 -6.00098 10l814 1455c4.66699 6.66699 10.667 10 18 10h64c8.66699 0 13.334 -4 14.001 -12l278 -1451c0.666992 -8 -2.66602 -12 -9.99902 -12h-39c-8.66699 0 -13.334 4 -14.001 12l-89 457h-711l-255 -459
c-4.66699 -6.66699 -10.667 -10 -18 -10h-46zM778.999 1413l-493 -883h665z" />
    <glyph glyph-name="B" unicode="B" horiz-adv-x="1313" 
d="M466 -20c-52 0 -108.673 1.17188 -170.006 3.50488s-119 6.16602 -173 11.499c-7.33301 0.666992 -10.666 5 -9.99902 13l271 1455c0.666992 8 5.33398 12.333 14.001 13c42 5.33301 90.333 9.16602 145 11.499s110 3.5 166 3.5c88.667 0 165.834 -4.5 231.501 -13.5
s118.834 -25.833 159.501 -50.5s68.834 -58.5 84.501 -101.5s17.834 -98.5 6.50098 -166.5l-2 -12c-7.33301 -45.333 -18.5 -85.333 -33.5 -120s-32.5 -64.834 -52.5 -90.501s-42 -46.667 -66 -63s-49 -28.833 -75 -37.5c68.667 -19.333 117.667 -59.833 147 -121.5
s34.666 -146.834 15.999 -255.501l-10 -56c-11.333 -64.667 -26.666 -120 -45.999 -166s-42.5 -84.667 -69.5 -116s-58.333 -56.333 -94 -75s-75.5 -32.834 -119.5 -42.501s-92.667 -16 -146 -19s-111.333 -4.5 -174 -4.5zM1063.99 461.005
c12 63.333 14.501 116 7.50098 158s-21.167 75.5 -42.5 100.5s-49.333 42.667 -84 53s-73.667 15.5 -117 15.5h-508l-137 -737c46 -3.33301 93.333 -5.83301 142 -7.5s99 -2.5 151 -2.5c58 0 111.333 1.16699 160 3.5s92.667 7.66602 132 15.999s74.333 20.5 105 36.5
s57.667 37.333 81 64s43.166 59.834 59.499 99.501s29.5 87.167 39.5 142.5zM696.995 1430c-53.333 0 -102.003 -0.831055 -146.003 -2.49805s-82 -4.5 -114 -8.5l-106 -569h448c51.333 1.33301 96.833 9.16602 136.5 23.499s73.834 34.166 102.501 59.499
s51.834 55.333 69.501 90s30.167 72.667 37.5 114l4 16c11.333 61.333 9.83301 110.333 -4.5 147s-40.166 64.667 -77.499 84s-85.5 31.833 -144.5 37.5s-127.5 8.5 -205.5 8.5z" />
    <glyph glyph-name="C" unicode="C" horiz-adv-x="1151" 
d="M625 -20c-92.667 0 -173.171 11.3311 -241.504 33.998s-122.5 60.834 -162.5 114.501s-65 124.667 -75 213s-2.66699 198.5 22 330.5l22 131c24.667 131.333 58.334 241.333 101.001 330s94 159.834 154 213.501s128.5 91.834 205.5 114.501s161.833 34 254.5 34
c58 0 113.667 -2.5 167 -7.5s98 -11.167 134 -18.5c8.66699 -2 11 -6.66699 7 -14l-14 -35c-3.33301 -6.66699 -9 -9.66699 -17 -9c-20 4 -41.833 7.5 -65.5 10.5s-48 5.5 -73 7.5s-50 3.33301 -75 4s-49.5 1 -73.5 1c-82 0 -157.167 -9.83301 -225.5 -29.5
s-129.166 -53.167 -182.499 -100.5s-99.166 -111 -137.499 -191s-68.833 -180 -91.5 -300l-27 -151c-22.667 -120.667 -29.667 -220.834 -21 -300.501s30.834 -143.334 66.501 -191.001s84 -81.167 145 -100.5s132.833 -29 215.5 -29c64 0 121 2.5 171 7.5
s94.667 11.5 134 19.5c8 0.666992 12 -2.66602 12 -9.99902l2 -34c0 -8 -4 -13 -12 -15c-40 -9.33301 -88 -16.5 -144 -21.5s-114.333 -7.5 -175 -7.5z" />
    <glyph glyph-name="D" unicode="D" horiz-adv-x="1405" 
d="M479 -16c-26.667 0 -54.835 0.333984 -84.502 1.00098s-59.834 1.5 -90.501 2.5s-61.334 2.5 -92.001 4.5s-60 4.33301 -88 7c-7.33301 0.666992 -10.666 5 -9.99902 13l269 1451c0.666992 8 5.33398 12.333 14.001 13c30 2 61.667 3.5 95 4.5s66 1.83301 98 2.5
s62.167 1.16699 90.5 1.5s52.5 0.5 72.5 0.5c60.667 0 118.334 -3.16699 173.001 -9.5s104.5 -18.333 149.5 -36s84.167 -42.334 117.5 -74.001s59.166 -73 77.499 -124s28.333 -113.167 30 -186.5s-6.5 -160 -24.5 -260l-21 -113c-18.667 -100 -41.5 -186.833 -68.5 -260.5
s-58 -136.334 -93 -188.001s-74 -93.667 -117 -126s-90.167 -57.666 -141.5 -75.999s-106.666 -30.833 -165.999 -37.5s-122.666 -10 -189.999 -10zM740.999 1423c-19.333 0 -42.6699 -0.166016 -70.0029 -0.499023s-55.166 -0.833008 -83.499 -1.5s-56 -1.5 -83 -2.5
s-49.833 -2.16699 -68.5 -3.5l-252 -1358c22.667 -2 47 -3.83301 73 -5.5s52.167 -3 78.5 -4s52.5 -1.66699 78.5 -2s50.333 -0.5 73 -0.5c64 0 123.667 3.33301 179 10s106.333 18.667 153 36s89.334 41.166 128.001 71.499s73.334 68.833 104.001 115.5
s57.667 102.834 81 168.501s43.333 142.834 60 231.501l22 119c16 88 24.5 164.5 25.5 229.5s-5.16699 120.833 -18.5 167.5s-33.833 84.667 -61.5 114s-61.667 52.666 -102 69.999s-87 29.166 -140 35.499s-111.833 9.5 -176.5 9.5z" />
    <glyph glyph-name="E" unicode="E" horiz-adv-x="1182" 
d="M125 0c-7.33301 0 -10.6631 4 -9.99609 12l269 1451c0.666992 8 5.33398 12 14.001 12h801c7.33301 0 10.666 -4 9.99902 -12l-6 -38c-2 -8 -6.66699 -12 -14 -12h-752l-105 -563h668c7.33301 0 10.666 -4 9.99902 -12l-8 -38c-0.666992 -8 -5.33398 -12 -14.001 -12
h-668l-133 -727h752c7.33301 0 10.666 -4 9.99902 -12l-8 -37c-0.666992 -8 -5.33398 -12 -14.001 -12h-802z" />
    <glyph glyph-name="F" unicode="F" horiz-adv-x="1103" 
d="M125 0c-7.33301 0 -10.6641 4 -9.99707 12l269 1451c0.666992 8 5.33398 12 14.001 12h813c7.33301 0 10.666 -4 9.99902 -12l-6 -38c-2 -8 -6.66699 -12 -14 -12h-764l-105 -563h615c7.33301 0 10.666 -4 9.99902 -12l-8 -38c-0.666992 -8 -5.33398 -12 -14.001 -12
h-615l-143 -776c-0.666992 -8 -5.33398 -12 -14.001 -12h-38z" />
    <glyph glyph-name="G" unicode="G" horiz-adv-x="1257" 
d="M1114 754c7.33301 0 10.6641 -4.00195 9.99707 -12.002l-131 -707c-0.666992 -8 -5.33398 -13 -14.001 -15c-67.333 -16 -130.833 -26.667 -190.5 -32s-119.167 -8 -178.5 -8c-93.333 0 -173.166 11.333 -239.499 34s-118.333 60.834 -156 114.501
s-60.334 124.667 -68.001 213s0.833008 198.5 25.5 330.5l22 131c24.667 131.333 57.167 241.333 97.5 330s89.833 159.834 148.5 213.501s126.834 91.834 204.501 114.501s166.5 34 266.5 34c58.667 0 114.334 -2.5 167.001 -7.5s96.667 -11.833 132 -20.5
c8 -2 10.667 -6.66699 8 -14l-13 -33c-3.33301 -6.66699 -9 -9.66699 -17 -9c-20 4 -41.833 7.5 -65.5 10.5s-48 5.5 -73 7.5s-50 3.33301 -75 4s-49.5 1 -73.5 1c-86 0 -163.333 -9.83301 -232 -29.5s-129.5 -53.167 -182.5 -100.5s-98 -111 -135 -191
s-66.833 -180 -89.5 -300l-27 -151c-22.667 -120.667 -30.667 -220.834 -24 -300.501s26.667 -143.334 60 -191.001s79.5 -81.167 138.5 -100.5s129.833 -29 212.5 -29c66 0 124.667 2.33301 176 7s98 11.334 140 20.001l115 624h-355c-7.33301 0 -10.666 4 -9.99902 12
l8 38c0.666992 8 5.33398 12 14.001 12h404z" />
    <glyph glyph-name="H" unicode="H" horiz-adv-x="1408" 
d="M125 0c-7.33301 0 -10.666 4 -9.99902 12l269 1451c0.666992 8 5.33398 12 14.001 12h37c7.33301 0 10.666 -4 9.99902 -12l-113 -613h826l113 613c0.666992 8 5.33398 12 14.001 12h37c7.33301 0 10.666 -4 9.99902 -12l-268 -1451
c-0.666992 -8 -5.33398 -12 -14.001 -12h-38c-7.33301 0 -10.666 4 -9.99902 12l144 776h-826l-143 -776c-0.666992 -8 -5.33398 -12 -14.001 -12h-38z" />
    <glyph glyph-name="I" unicode="I" horiz-adv-x="521" 
d="M125 0c-7.33301 0 -10.666 4 -9.99902 12l269 1451c0.666992 8 5.33398 12 14.001 12h37c7.33301 0 10.666 -4 9.99902 -12l-268 -1451c-0.666992 -8 -5.33398 -12 -14.001 -12h-38z" />
    <glyph glyph-name="J" unicode="J" horiz-adv-x="521" 
d="M-69 -236c-15.333 0 -31.833 1.16602 -49.5 3.49902s-33.5 5.5 -47.5 9.5c-7.33301 2.66699 -9.33301 7.66699 -6 15l14 34c3.33301 7.33301 8.66602 10 15.999 8c12.667 -4 26.167 -6.33301 40.5 -7s28.5 -1 42.5 -1c20.667 0 40 1.66699 58 5s34.333 11 49 23
s27.334 29.5 38.001 52.5s19.667 54.167 27 93.5l271 1463c0.666992 8 5.33398 12 14.001 12h37c7.33301 0 10.666 -4 9.99902 -12l-270 -1463c-10 -53.333 -22.833 -95.666 -38.5 -126.999s-34 -55 -55 -71s-44.167 -26.333 -69.5 -31s-52.333 -7 -81 -7z" />
    <glyph glyph-name="K" unicode="K" horiz-adv-x="1115" 
d="M922 0c-8 0 -14 3.33301 -18 10l-482 793l-117 -95l-128 -696c-0.666992 -8 -5.33398 -12 -14.001 -12h-38c-7.33301 0 -10.666 4 -9.99902 12l269 1451c0.666992 8 5.33398 12 14.001 12h37c7.33301 0 10.666 -4 9.99902 -12l-124 -669l813 673c6 5.33301 13 8 21 8h73
c7.33301 0 8.33301 -2.66699 3 -8l-760 -624l505 -833c4.66699 -6.66699 2.66699 -10 -6 -10h-48z" />
    <glyph glyph-name="L" unicode="L" horiz-adv-x="1019" 
d="M125 0c-7.33301 0 -10.667 4 -10 12l269 1451c0.666992 8 5.33398 12 14.001 12h37c7.33301 0 10.666 -4 9.99902 -12l-258 -1402h701c8 0 11 -4 9 -12l-7 -37c-2 -8 -7 -12 -15 -12h-750z" />
    <glyph glyph-name="M" unicode="M" horiz-adv-x="1633" 
d="M125 0c-7.33301 0 -10.665 4 -9.99805 12l269 1451c0.666992 8 5.33398 12 14.001 12h33c8 0 13.333 -3.66699 16 -11l305 -794l15.5 -40.5l13.5 -37l10 -27l4 -10.5l90 117l596 793c4 6.66699 10.333 10 19 10h47c7.33301 0 10.666 -4 9.99902 -12l-268 -1451
c-0.666992 -8 -5.33398 -12 -14.001 -12h-38c-7.33301 0 -10.666 4 -9.99902 12l234 1262l12 72c-0.666992 0 -2.83398 -2.33301 -6.50098 -7l-13.5 -17.5l-18.5 -24l-20.5 -27.5l-587 -775c-4 -6.66699 -10.333 -10 -19 -10h-40c-8 0 -13.333 3.66699 -16 11l-293 768
l-21 58c-6 16 -9.66699 24 -11 24l-19 -91l-231 -1243c-0.666992 -8 -5.33398 -12 -14.001 -12h-38z" />
    <glyph glyph-name="N" unicode="N" horiz-adv-x="1412" 
d="M125 0c-7.33301 0 -10.665 4 -9.99805 12l269 1451c0.666992 8 5.33398 12 14.001 12h49c7.33301 0 13 -3.66699 17 -11l505 -1241l38.5 -91c9 -21.333 13.833 -32 14.5 -32l253 1363c0.666992 8 5.33398 12 14.001 12h37c7.33301 0 10.666 -4 9.99902 -12l-268 -1451
c-0.666992 -8 -5.33398 -12 -14.001 -12h-50c-8 0 -13.667 3.66699 -17 11l-501 1232l-39 93.5c-10.667 25 -16.334 37.5 -17.001 37.5l-253 -1362c-0.666992 -8 -5.33398 -12 -14.001 -12h-38z" />
    <glyph glyph-name="O" unicode="O" horiz-adv-x="1431" 
d="M596 -20c-88 0 -163.67 11 -227.003 33s-113.166 59.5 -149.499 112.5s-58.666 124 -66.999 213s-1.16602 200.167 21.501 333.5l22 131c22.667 134.667 54.334 246.5 95.001 335.5s89.667 159.833 147 212.5s122.666 89.834 195.999 111.501s154 32.5 242 32.5
c88.667 0 164.667 -10.833 228 -32.5s113 -58.834 149 -111.501s57.833 -123.5 65.5 -212.5s0.166992 -200.833 -22.5 -335.5l-22 -131c-22 -132.667 -53.167 -243.334 -93.5 -332.001s-89 -159.667 -146 -213s-122.167 -91.166 -195.5 -113.499s-154.333 -33.5 -243 -33.5z
M863.997 1430c-78 0 -148.833 -9.66602 -212.5 -28.999s-120.5 -52.5 -170.5 -99.5s-93 -110.167 -129 -189.5s-65.333 -179 -88 -299l-27 -151c-22 -122 -29.5 -222.667 -22.5 -302s26.833 -142.333 59.5 -189s77.167 -79.334 133.5 -98.001s123.166 -28 200.499 -28
c76 0 145.667 9.83301 209 29.5s120.333 53.167 171 100.5s94.167 110.833 130.5 190.5s65.5 179.167 87.5 298.5l27 149c22 120.667 29.5 220.667 22.5 300s-26.5 142.5 -58.5 189.5s-76.167 80 -132.5 99s-123.166 28.5 -200.499 28.5z" />
    <glyph glyph-name="P" unicode="P" horiz-adv-x="1251" 
d="M659 1430c-12 0 -28.167 -0.333984 -48.5 -1.00098l-63.5 -2c-22 -0.666992 -43 -1.66699 -63 -3l-46 -3l-150 -805c10 -1.33301 25 -2.33301 45 -3s41 -1.5 63 -2.5s43.167 -1.66699 63.5 -2s36.5 -0.5 48.5 -0.5c71.333 0 135.333 2.16699 192 6.5
s107.334 11.833 152.001 22.5s83.5 25.334 116.5 44.001s61.5 42.167 85.5 70.5s44 62.333 60 102s29 86.167 39 139.5l10 51c14 80 16.167 145.167 6.5 195.5s-34.167 89.5 -73.5 117.5s-94.833 47.167 -166.5 57.5s-161.834 15.5 -270.501 15.5zM124 -0.000976562
c-7.33301 0 -10.666 3.99902 -9.99902 11.999l271 1455c0.666992 8 5.33398 12.333 14.001 13c20 1.33301 42.833 2.66602 68.5 3.99902s51.167 2.5 76.5 3.5s49.333 1.83301 72 2.5s41 1 55 1c106 0 197.833 -5 275.5 -15s140 -30.5 187 -61.5s78.333 -75.333 94 -133
s14.5 -134.5 -3.5 -230.5l-12 -64c-12 -64 -27.333 -119.167 -46 -165.5s-42 -85.833 -70 -118.5s-60.833 -59.167 -98.5 -79.5s-81 -36.166 -130 -47.499s-104.333 -19 -166 -23s-130.5 -6 -206.5 -6c-14.667 0 -33.667 0.333008 -57 1s-46.333 1.5 -69 2.5
s-42.834 1.83301 -60.501 2.5s-28.5 1.33398 -32.5 2.00098l-100 -543c-0.666992 -8 -5.33398 -12 -14.001 -12h-38z" />
    <glyph glyph-name="Q" unicode="Q" horiz-adv-x="1434" 
d="M591 -20c-87.333 0 -162.5 11.1689 -225.5 33.502s-112.5 60.166 -148.5 113.499s-58 124.166 -66 212.499s-0.666992 199.166 22 332.499l22 131c22.667 134.667 54.334 246.5 95.001 335.5s89.667 159.833 147 212.5s122.666 89.834 195.999 111.501s154 32.5 242 32.5
c88.667 0 164.667 -10.833 228 -32.5s113 -58.834 149 -111.501s57.833 -123.5 65.5 -212.5s0.166992 -200.833 -22.5 -335.5l-22 -131c-20.667 -123.333 -49.167 -227.666 -85.5 -312.999s-80 -155 -131 -209s-109 -94 -174 -120s-136.833 -41.667 -215.5 -47l156 -361
c3.33301 -7.33301 1 -11 -7 -11h-58c-8 0 -13.667 3.66699 -17 11zM863 1430c-78 0 -148.833 -9.66602 -212.5 -28.999s-120.5 -52.5 -170.5 -99.5s-93 -110.167 -129 -189.5s-65.333 -179 -88 -299l-27 -151c-22 -122 -29.5 -222.667 -22.5 -302s26.833 -142.333 59.5 -189
s77.167 -79.334 133.5 -98.001s123.166 -28 200.499 -28c76 0 145.667 9.83301 209 29.5s120.333 53.167 171 100.5s94.167 110.833 130.5 190.5s65.5 179.167 87.5 298.5l27 149c22 120.667 29.5 220.667 22.5 300s-26.5 142.5 -58.5 189.5s-76.167 80 -132.5 99
s-123.166 28.5 -200.499 28.5z" />
    <glyph glyph-name="R" unicode="R" horiz-adv-x="1340" 
d="M1057 0c-8 0 -13.667 3.66699 -17 11l-278 571c-29.333 -1.33301 -59.833 -2.33301 -91.5 -3s-64.5 -1 -98.5 -1h-70c-22.667 0 -45.5 0.333008 -68.5 1s-46.833 1.5 -71.5 2.5s-51 2.5 -79 4.5l-106 -574c-0.666992 -8 -5.33398 -12 -14.001 -12h-38
c-7.33301 0 -10.666 4 -9.99902 12l269 1449c0.666992 8 5.33398 12.333 14.001 13c61.333 5.33301 120.166 8.5 176.499 9.5s112.833 1.5 169.5 1.5c67.333 0 128.5 -1.5 183.5 -4.5s103.5 -9.33301 145.5 -19s77.667 -23.667 107 -42s52 -42.833 68 -73.5
s25.333 -68.5 28 -113.5s-1.33301 -98.833 -12 -161.5l-14 -82c-12.667 -72 -31 -132.333 -55 -181s-53.5 -88.167 -88.5 -118.5s-75.667 -53.333 -122 -69s-97.833 -26.5 -154.5 -32.5l14 -25l270 -552c3.33301 -7.33301 1 -11 -7 -11h-50zM732 1423l-81.501 0.00195312
c-29 0 -57 -0.333008 -84 -1s-52 -1.5 -75 -2.5s-41.167 -2.5 -54.5 -4.5l-141 -768c23.333 -2 48.666 -3.5 75.999 -4.5s54.333 -1.83301 81 -2.5s51.5 -1 74.5 -1h56.5c96.667 0 179.834 3.33301 249.501 10s128.334 22.5 176.001 47.5s86 62 115 111
s51.167 115.833 66.5 200.5l10 57c10.667 57.333 15.167 106 13.5 146s-9.66699 73.167 -24 99.5s-34.833 47.166 -61.5 62.499s-59.167 26.666 -97.5 33.999s-82.5 11.833 -132.5 13.5s-105.667 2.5 -167 2.5z" />
    <glyph glyph-name="S" unicode="S" horiz-adv-x="1147" 
d="M372 -20c-29.333 0 -59.1729 0.666992 -89.5059 2s-60.166 3.16602 -89.499 5.49902s-57.333 5.33301 -84 9s-50.667 7.83398 -72 12.501c-8 2 -10 6.33301 -6 13l23 36c2 4 4.33301 6.5 7 7.5s6.33398 1.16699 11.001 0.5c59.333 -9.33301 114.5 -15.833 165.5 -19.5
s99.5 -5.5 145.5 -5.5c108 0 197.333 8.16699 268 24.5s126.667 41.333 168 75s70.333 76.5 87 128.5s25 114 25 186c0 36 -5.66699 66.5 -17 91.5s-29.5 47.667 -54.5 68s-57.5 39.666 -97.5 57.999s-88.667 39.166 -146 62.499l-116 47
c-46.667 18.667 -87.667 37.5 -123 56.5s-65 40.333 -89 64s-42 50.834 -54 81.501s-18 66.667 -18 108c0 73.333 9.33301 135.666 28 186.999s50.834 93 96.501 125s106.834 55.167 183.501 69.5s172.667 21.5 288 21.5c56 0 110.833 -2.16699 164.5 -6.5
s99.167 -10.166 136.5 -17.499c7.33301 -2 9.66602 -6.66699 6.99902 -14l-18 -35c-3.33301 -7.33301 -9 -10 -17 -8c-17.333 3.33301 -37.666 6.33301 -60.999 9s-47.833 4.83398 -73.5 6.50098s-51.667 2.83398 -78 3.50098s-51.5 1 -75.5 1
c-106 0 -192.5 -6.33301 -259.5 -19s-119.667 -32.5 -158 -59.5s-64.666 -61.833 -78.999 -104.5s-21.5 -94 -21.5 -154c0 -39.333 6.66699 -72.5 20 -99.5s32.833 -50.5 58.5 -70.5s56.834 -38.167 93.501 -54.5s78.667 -33.5 126 -51.5l137 -53
c54 -20.667 98.833 -41.334 134.5 -62.001s64.167 -43 85.5 -67s36.5 -50.333 45.5 -79s13.5 -61 13.5 -97c0 -86.667 -10.5 -160.5 -31.5 -221.5s-55.833 -110.833 -104.5 -149.5s-112.5 -67 -191.5 -85s-176.833 -27 -293.5 -27z" />
    <glyph glyph-name="T" unicode="T" horiz-adv-x="1155" 
d="M435 0c-7.33301 0 -10.666 4 -9.99902 12l260 1401h-512c-7.33301 0 -10.666 4 -9.99902 12l8 38c0.666992 8 5.33398 12 14.001 12h1086c7.33301 0 10.666 -4 9.99902 -12l-8 -38c-0.666992 -8 -5.33398 -12 -14.001 -12h-512l-260 -1401
c-0.666992 -8 -5.33398 -12 -14.001 -12h-38z" />
    <glyph glyph-name="U" unicode="U" horiz-adv-x="1435" 
d="M590 -20c-80.667 0 -150.333 9.66797 -209 29.001s-105.5 50 -140.5 92s-57.5 95.833 -67.5 161.5s-6.33301 144.834 11 237.501l180 963c0.666992 8 5.33398 12 14.001 12h38c7.33301 0 10.666 -4 9.99902 -12l-176 -945c-15.333 -80 -21.333 -149.833 -18 -209.5
s18.5 -109.334 45.5 -149.001s66.833 -69.334 119.5 -89.001s121 -29.5 205 -29.5c86.667 0 160.667 9.83301 222 29.5s113.166 49.167 155.499 88.5s76.333 89 102 149s46.167 130 61.5 210l176 945c0.666992 8 5.33398 12 14.001 12h35c7.33301 0 10.666 -4 9.99902 -12
l-180 -963c-18.667 -100 -45.167 -183.333 -79.5 -250s-76.666 -120 -126.999 -160s-108.833 -68.333 -175.5 -85s-142 -25 -226 -25z" />
    <glyph glyph-name="V" unicode="V" horiz-adv-x="1250" 
d="M508 61h2.00098l786 1404c4.66699 6.66699 10.667 10 18 10h45c8.66699 0 10.667 -3.33301 6 -10l-815 -1455c-4.66699 -6.66699 -10.667 -10 -18 -10h-64c-8.66699 0 -13.334 4 -14.001 12l-277 1451c-0.666992 8 2.66602 12 9.99902 12h41
c8.66699 0 13.334 -4 14.001 -12z" />
    <glyph glyph-name="W" unicode="W" horiz-adv-x="1807" 
d="M326 0c-8 0 -12.333 4 -13 12l-64 1451c-0.666992 8 3 12 11 12h42c8 0 12 -4 12 -12l43 -1170l9 -236l10.5 22.5l26 57l34.5 75l37 77.5l551 1175c3.33301 7.33301 9 11 17 11h44c8 0 12.333 -4 13 -12l114 -1166l27 -240l96 244l476 1163c3.33301 7.33301 9 11 17 11
h44c8.66699 0 11 -3.66699 7 -11l-601 -1453c-4 -7.33301 -9.66699 -11 -17 -11h-66c-8 0 -12.333 4 -13 12l-126 1268l-5.5 73c-1.66699 21.333 -2.5 32.333 -2.5 33l-3.5 -9c-2.33301 -6 -5.66602 -14 -9.99902 -24l-15 -34c-5.66699 -12.667 -11.834 -25.667 -18.501 -39
l-595 -1269c-4 -7.33301 -9.66699 -11 -17 -11h-64z" />
    <glyph glyph-name="X" unicode="X" horiz-adv-x="1205" 
d="M970 0c-8 0 -13.666 3.66699 -16.999 11l-334 679l-586 -681c-5.33301 -6 -12 -9 -20 -9h-61c-8 0 -9.33301 3 -4 9l636 727l-367 728c-3.33301 7.33301 -1 11 7 11h51c7.33301 0 13 -3.66699 17 -11l334 -682l587 684c5.33301 6 12 9 20 9h61
c7.33301 0 8.66602 -3 3.99902 -9l-638 -729l368 -726c3.33301 -7.33301 1 -11 -7 -11h-51z" />
    <glyph glyph-name="Y" unicode="Y" horiz-adv-x="1106" 
d="M412 0c-7.33301 0 -10.667 4 -10 12l94 511l-322 941c-3.33301 7.33301 -0.666016 11 8.00098 11h39c8 0 13.333 -3.66699 16 -11l299 -860l620 861c4 6.66699 10.333 10 19 10h46c8 0 9.66699 -3.33301 5 -10l-669 -941l-94 -512c-0.666992 -8 -5.33398 -12 -14.001 -12
h-37z" />
    <glyph glyph-name="Z" unicode="Z" horiz-adv-x="1132" 
d="M-16 0c-8 0 -10.998 4 -8.99805 12l7 37c2 8.66699 5.66699 15.667 11 21l1116 1343h-850c-7.33301 0 -10.666 4 -9.99902 12l6 38c2 8 6.66699 12 14 12h912c7.33301 0 10.666 -4 9.99902 -12l-6 -38c-0.666992 -8 -4 -15 -10 -21l-1114 -1343h860
c7.33301 0 10.666 -4 9.99902 -12l-8 -37c-0.666992 -8 -5.33398 -12 -14.001 -12h-925z" />
    <glyph glyph-name="bracketleft" unicode="[" horiz-adv-x="568" 
d="M26 -389c-7.33301 0 -10.665 4 -9.99805 12l357 1921c0.666992 8 5.33398 12 14.001 12h352c7.33301 0 10.666 -4 9.99902 -12l-6 -37c-2 -8 -6.66699 -12 -14 -12h-305l-337 -1823h304c7.33301 0 10.666 -4 9.99902 -12l-8 -37c-0.666992 -8 -5.33398 -12 -14.001 -12
h-353z" />
    <glyph glyph-name="backslash" unicode="\" horiz-adv-x="990" 
d="M755 0c-6 0 -10.333 0.833008 -13 2.5s-5 5.5 -7 11.5l-505 1528c-2.66699 9.33301 1 14 11 14h35c5.33301 0 8.83301 -0.666992 10.5 -2s3.5 -5 5.5 -11l506 -1529c1.33301 -5.33301 1.5 -9 0.5 -11s-4.16699 -3 -9.5 -3h-34z" />
    <glyph glyph-name="bracketright" unicode="]" horiz-adv-x="538" 
d="M498 1556c7.33301 0 10.665 -4 9.99805 -12l-357 -1921c-0.666992 -8 -5.33398 -12 -14.001 -12h-352c-7.33301 0 -10.666 4 -9.99902 12l6 37c2 8 6.66699 12 14 12h305l337 1823h-304c-7.33301 0 -10.666 4 -9.99902 12l8 37c0.666992 8 5.33398 12 14.001 12h353z" />
    <glyph glyph-name="asciicircum" unicode="^" horiz-adv-x="1188" 
d="M499 1172c-7.33301 0 -8.33301 2.66699 -3 8l327 285c6 5.33301 13 8 21 8h46c8.66699 0 15 -3.33301 19 -10l214 -281c4.66699 -6.66699 3 -10 -5 -10h-71c-8.66699 0 -15 3.33301 -19 10l-166 229l-264 -231c-6 -5.33301 -13 -8 -21 -8h-78z" />
    <glyph glyph-name="underscore" unicode="_" horiz-adv-x="899" 
d="M-71 -184c-7.33301 0 -10.668 4 -10.001 12l8 37c0.666992 8 5.33398 12 14.001 12h755c8 0 11 -4 9 -12l-7 -37c-2 -8 -7 -12 -15 -12h-754z" />
    <glyph glyph-name="grave" unicode="`" 
d="M700 1260c-8.66699 0 -15.001 3.33301 -19.001 10l-166 236c-5.33301 6.66699 -3.66602 10 5.00098 10h66c8.66699 0 14.667 -3.33301 18 -10l150 -236c4.66699 -6.66699 2.66699 -10 -6 -10h-48z" />
    <glyph glyph-name="a" unicode="a" horiz-adv-x="1155" 
d="M970 1014c-38 4 -77.999 7.33594 -119.999 10.0029s-89.667 4 -143 4c-84.667 0 -155 -7 -211 -21s-102.5 -38.333 -139.5 -73s-66.833 -81.334 -89.5 -140.001s-43 -132.334 -61 -221.001l-15 -75c-10.667 -59.333 -17.834 -111.833 -21.501 -157.5
s-2.5 -85.334 3.5 -119.001s17.167 -62.167 33.5 -85.5s38.833 -42 67.5 -56s64.167 -24 106.5 -30s92.5 -9 150.5 -9c48 0 95 1.5 141 4.5s85.333 6.16699 118 9.5zM519.001 -19.9971c-92.667 0 -168.498 8.16699 -227.498 24.5s-103.667 44 -134 83
s-47.5 90.5 -51.5 154.5s2.66699 143.667 20 239l20 107c18 98 40.833 179.167 68.5 243.5s63.5 115.666 107.5 153.999s98.333 65.333 163 81s143 23.5 235 23.5c20.667 0 44 -0.5 70 -1.5s52.833 -2.16699 80.5 -3.5s55 -3.16602 82 -5.49902s52.5 -4.83301 76.5 -7.5
c7.33301 -0.666992 10.666 -5 9.99902 -13l-195 -1047c-0.666992 -8 -5.33398 -12.333 -14.001 -13c-58.667 -6 -113.667 -10.667 -165 -14s-100 -5 -146 -5z" />
    <glyph glyph-name="b" unicode="b" horiz-adv-x="1153" 
d="M596 1028c-19.333 0 -40.333 -0.500977 -63 -1.50098s-45.834 -2.5 -69.501 -4.5s-47.167 -4.5 -70.5 -7.5s-44.666 -6.5 -63.999 -10.5l-176 -943c41.333 -6 83.833 -10.833 127.5 -14.5s88.5 -5.5 134.5 -5.5c84.667 0 155.5 7.16699 212.5 21.5s104.167 39 141.5 74
s67.333 81.833 90 140.5s42 132.334 58 221.001l15 75c16 88 23.5 161.167 22.5 219.5s-13.667 105 -38 140s-62.333 59.667 -114 74s-120.5 21.5 -206.5 21.5zM403 -20.001c-46.667 0 -95.502 2.00293 -146.502 6.00293s-104.5 11.667 -160.5 23
c-7.33301 2 -10.666 7 -9.99902 15l291 1566c0.666992 8 5 13.333 13 16l43 12c7.33301 3.33301 10.333 0.666016 9 -8.00098l-102 -545l61 8.5c22 3 44.5 5.83301 67.5 8.5s46 4.66699 69 6s45.167 2 66.5 2c94 0 170.667 -8.83301 230 -26.5
s103.833 -46.334 133.5 -86.001s46 -91.334 49 -155.001s-4.16699 -141.834 -21.5 -234.501l-20 -107c-18 -96.667 -40.833 -177.167 -68.5 -241.5s-63.667 -115.666 -108 -153.999s-98.666 -65.5 -162.999 -81.5s-141.833 -24 -232.5 -24z" />
    <glyph glyph-name="c" unicode="c" horiz-adv-x="961" 
d="M519 -20c-89.333 0 -163.667 7.33105 -223 21.998s-104.666 41 -135.999 79s-49.333 90.333 -54 157s2.66602 152 21.999 256l14 84c17.333 94 39.833 173.5 67.5 238.5s64 117.833 109 158.5s100.667 70 167 88s146.5 27 240.5 27c42 0 82 -1.83301 120 -5.5
s72.333 -8.16699 103 -13.5c8 -0.666992 10 -5 6 -13l-18 -35c-4 -6.66699 -10 -9.66699 -18 -9c-30.667 5.33301 -64.334 9 -101.001 11s-71.334 3 -104.001 3c-84 0 -154.833 -7.5 -212.5 -22.5s-106 -40.333 -145 -76s-70.5 -83.334 -94.5 -143.001
s-44 -134.167 -60 -223.5l-11 -57c-16.667 -91.333 -24.167 -166.833 -22.5 -226.5s15.334 -107.167 41.001 -142.5s64.667 -60.166 117 -74.499s120.5 -21.5 204.5 -21.5c36.667 0 74 1.33301 112 4s72.667 7.33398 104 14.001c8 0.666992 12.333 -2.66602 13 -9.99902
l2 -35c0.666992 -8.66699 -3 -13.334 -11 -14.001c-16 -3.33301 -33.667 -6.16602 -53 -8.49902s-39.166 -4.33301 -59.499 -6s-40.833 -3 -61.5 -4s-40 -1.5 -58 -1.5z" />
    <glyph glyph-name="d" unicode="d" horiz-adv-x="1152" 
d="M706 1028c-84.667 0 -155.333 -7.16406 -212 -21.4971s-103.667 -39 -141 -74s-67.333 -81.667 -90 -140s-42 -131.5 -58 -219.5l-15 -75c-16 -88.667 -23.667 -162.334 -23 -221.001s13.334 -105.5 38.001 -140.5s63.167 -59.667 115.5 -74s122.166 -21.5 209.499 -21.5
c44 0 88 1.83301 132 5.5s86.667 8.5 128 14.5l177 940c-18.667 4 -39.167 7.66699 -61.5 11s-45.166 6.16602 -68.499 8.49902s-46.333 4.16602 -69 5.49902s-43.334 2 -62.001 2zM518.001 -19.9971c-92.667 0 -168.496 8.16797 -227.496 24.501s-103.667 44 -134 83
s-47.5 90.5 -51.5 154.5s2.66699 143.667 20 239l20 107c17.333 94 39.666 173.167 66.999 237.5s63.166 116 107.499 155s99 67 164 84s143.5 25.5 235.5 25.5c44 0 88.667 -2.66699 134 -8s86.666 -11.666 123.999 -18.999l98 527c0.666992 8 5 13 13 15l44 14
c6.66699 2 9.66699 -1 9 -9l-295 -1586c-0.666992 -8.66699 -5.33398 -13.334 -14.001 -14.001c-58.667 -10.667 -114.167 -18.334 -166.5 -23.001s-101.5 -7 -147.5 -7z" />
    <glyph glyph-name="e" unicode="e" horiz-adv-x="1142" 
d="M489 -20c-82.667 0 -151.504 9.16602 -206.504 27.499s-97.167 48.166 -126.5 89.499s-46.166 95.833 -50.499 163.5s2.83398 150.834 21.501 249.501l12 70c16 85.333 37.833 160 65.5 224s63 117.167 106 159.5s94.667 74 155 95s131.166 31.5 212.499 31.5
c65.333 0 121.5 -7.5 168.5 -22.5s85.5 -37 115.5 -66s52.167 -64.833 66.5 -107.5s21.5 -91.334 21.5 -146.001c0 -27.333 -1.5 -52.333 -4.5 -75s-6.5 -43.167 -10.5 -61.5s-8.16699 -34 -12.5 -47s-7.83301 -22.833 -10.5 -29.5c-4 -7.33301 -9.66699 -11 -17 -11h-805
l-2 -14c-16 -85.333 -23.167 -157.666 -21.5 -216.999s14.167 -107.666 37.5 -144.999s58.833 -64.5 106.5 -81.5s109.834 -25.5 186.501 -25.5c54.667 0 110.334 1.16699 167.001 3.5s115.334 6.5 176.001 12.5c8 0.666992 12.333 -3 13 -11l4 -34
c0.666992 -8 -3 -12.333 -11 -13c-56 -6 -112.5 -10.667 -169.5 -14s-119.5 -5 -187.5 -5zM965.996 583.999c14.667 75.333 21.1689 140.833 19.502 196.5s-13.834 101.834 -36.501 138.501s-56.834 64 -102.501 82s-105.5 27 -179.5 27c-71.333 0 -133 -8.83301 -185 -26.5
s-96.167 -44.667 -132.5 -81s-66.333 -82.333 -90 -138s-43.167 -121.834 -58.5 -198.501h765z" />
    <glyph glyph-name="f" unicode="f" horiz-adv-x="664" 
d="M118 1020c-7.33301 0 -10.6641 4 -9.99707 12l6 27c0.666992 8 5.33398 12 14.001 12h224l22 119c14.667 78 29.667 144.5 45 199.5s36.166 99.667 62.499 134s60.666 59.333 102.999 75s97.833 23.5 166.5 23.5c31.333 0 61.666 -0.833008 90.999 -2.5
s55.666 -4.16699 78.999 -7.5c8 -0.666992 10 -5 6 -13l-19 -36c-4 -6.66699 -10 -9.66699 -18 -9c-10.667 1.33301 -22.667 2.5 -36 3.5s-26.833 1.66699 -40.5 2l-39.5 1c-12.667 0.333008 -24 0.5 -34 0.5c-47.333 0 -87.166 -4.5 -119.499 -13.5s-59 -23.5 -80 -43.5
s-37.833 -46 -50.5 -78s-23.334 -71 -32.001 -117l-44 -238h292c8 0 10 -3.66699 6 -11l-19 -35c-4.66699 -7.33301 -10.667 -11 -18 -11h-272l-218 -1182c-12 -65.333 -26.833 -117.833 -44.5 -157.5s-39.167 -70.167 -64.5 -91.5s-55.333 -35.666 -90 -42.999
s-75 -11 -121 -11c-20.667 0 -43.5 1 -68.5 3s-47.5 5.66699 -67.5 11c-7.33301 2.66699 -9.66602 7.66699 -6.99902 15l15 36c3.33301 6.66699 9 9.66699 17 9c18 -3.33301 38.167 -6.33301 60.5 -9s43.166 -4 62.499 -4c39.333 0 72.5 3.33301 99.5 10s49.833 19 68.5 37
s34 42.667 46 74s22.667 71.666 32 120.999l218 1182z" />
    <glyph glyph-name="g" unicode="g" horiz-adv-x="1157" 
d="M293 -471c-16 0 -35.167 0.331055 -57.5 0.998047s-45.666 1.66699 -69.999 3s-48.333 3.33301 -72 6s-44.834 5.66699 -63.501 9c-8.66699 0.666992 -11 5 -7 13l15 37c3.33301 6.66699 9 9.66699 17 9c34.667 -6.66699 73.5 -11.167 116.5 -13.5s87.5 -3.5 133.5 -3.5
c66.667 0 125.834 4.66699 177.501 14s96.834 28.5 135.501 57.5s71.167 69.833 97.5 122.5s47.833 122.667 64.5 210c-14.667 -1.33301 -32.334 -2.83301 -53.001 -4.5s-42.334 -3.16699 -65.001 -4.5s-45.667 -2.5 -69 -3.5s-45 -1.5 -65 -1.5
c-96.667 0 -175.167 8.83301 -235.5 26.5s-105.666 46.334 -135.999 86.001s-47.166 91.334 -50.499 155.001s3.66699 141.5 21 233.5l20 107c18 98 40.833 179.167 68.5 243.5s63.5 115.666 107.5 153.999s98.333 65.333 163 81s143 23.5 235 23.5
c20.667 0 44 -0.5 70 -1.5s52.833 -2.16699 80.5 -3.5s55 -3.16602 82 -5.49902s52.5 -4.83301 76.5 -7.5c7.33301 -0.666992 10.666 -5 9.99902 -13l-196 -1059c-18.667 -98 -42.834 -177.5 -72.501 -238.5s-66.5 -108.833 -110.5 -143.5s-96.333 -58.167 -157 -70.5
s-131 -18.5 -211 -18.5zM708 1028c-84.667 0 -154.999 -6.99707 -210.999 -20.9971s-102.5 -38.333 -139.5 -73s-66.833 -81.334 -89.5 -140.001s-43 -132.334 -61 -221.001l-15 -75c-10.667 -59.333 -17.834 -111.833 -21.501 -157.5s-2.5 -85.334 3.5 -119.001
s17.167 -62.167 33.5 -85.5s38.833 -42 67.5 -56s64.167 -24 106.5 -30s92.5 -9 150.5 -9c48 0 95 1.5 141 4.5s85.333 6.16699 118 9.5l180 959c-38 4 -78 7.33301 -120 10s-89.667 4 -143 4z" />
    <glyph glyph-name="h" unicode="h" horiz-adv-x="1189" 
d="M843 0c-7.33301 0 -10.6631 4.00293 -9.99609 12.0029l117 629c14 78 21.667 142 23 192s-6.33398 89.5 -23.001 118.5s-43.167 49 -79.5 60s-84.833 16.5 -145.5 16.5c-29.333 0 -61 -2.16699 -95 -6.5s-68.833 -10.833 -104.5 -19.5s-71.334 -19.5 -107.001 -32.5
s-69.834 -28.5 -102.501 -46.5l-169 -911c-0.666992 -8 -5.33398 -12 -14.001 -12h-37c-7.33301 0 -10.666 4 -9.99902 12l293 1578c0.666992 8 5 13.333 13 16l43 12c7.33301 3.33301 10.333 0.666016 9 -8.00098l-116 -625c30.667 16.667 63.834 31.5 99.501 44.5
s71.5 24 107.5 33s71.333 15.833 106 20.5s66.667 7 96 7c74.667 0 133.667 -8.16699 177 -24.5s74.666 -42.333 93.999 -78s28.333 -81.834 27 -138.501s-9.33301 -125.334 -24 -206.001l-116 -631c-0.666992 -8 -5.33398 -12 -14.001 -12h-38z" />
    <glyph glyph-name="i" unicode="i" horiz-adv-x="453" 
d="M93 0c-7.33301 0 -10.666 4 -9.99902 12l194 1047c0.666992 8 5.33398 12 14.001 12h38c7.33301 0 10.666 -4 9.99902 -12l-195 -1047c-0.666992 -8 -5.33398 -12 -14.001 -12h-37zM320 1260c-8.66699 0 -11.999 4 -9.99902 12l47 252c2 8.66699 6.66699 13.667 14 15
l54 14c7.33301 2 10.666 -1 9.99902 -9l-51 -272c-2 -8 -6.66699 -12 -14 -12h-50z" />
    <glyph glyph-name="j" unicode="j" horiz-adv-x="453" 
d="M-208 -471c-20.667 0 -43.5 1 -68.5 3s-47.5 5.66699 -67.5 11c-7.33301 2.66699 -9.66602 7.66699 -6.99902 15l15 36c3.33301 6.66699 9 9.66699 17 9c18 -3.33301 38.167 -6.33301 60.5 -9s43.166 -4 62.499 -4c39.333 0 72.666 3.33301 99.999 10s50.333 19 69 37
s33.834 42.667 45.501 74s22.167 71.666 31.5 120.999l227 1227c0.666992 8 5.33398 12 14.001 12h38c7.33301 0 10.666 -4 9.99902 -12l-227 -1227c-12.667 -65.333 -27.834 -117.833 -45.501 -157.5s-39.167 -70.167 -64.5 -91.5s-55.166 -35.666 -89.499 -42.999
s-74.5 -11 -120.5 -11zM320 1260c-7.33301 0 -10.666 4 -9.99902 12l47 252c0.666992 8 5.33398 13 14.001 15l54 14c7.33301 2 10.666 -1 9.99902 -9l-51 -272c-0.666992 -8 -5.33398 -12 -14.001 -12h-50z" />
    <glyph glyph-name="k" unicode="k" horiz-adv-x="1010" 
d="M798 0c-7.33301 0 -13.333 3.66797 -18 11.001l-358 652l-176 -119l-99 -532c-0.666992 -8 -5.33398 -12 -14.001 -12h-37c-7.33301 0 -10.666 4 -9.99902 12l293 1578c0.666992 8 5 13.333 13 16l43 12c7.33301 3.33301 10.333 0.666016 9 -8.00098l-184 -989l655 443
c6.66699 4.66699 14 7 22 7h77c8 0 8.66699 -2.33301 2 -7l-536 -362l380 -691c4 -7.33301 2 -11 -6 -11h-56z" />
    <glyph glyph-name="l" unicode="l" horiz-adv-x="465" 
d="M99 0c-7.33301 0 -10.666 4.00098 -9.99902 12.001l293 1578c0.666992 8 5 13.333 13 16l43 12c7.33301 3.33301 10.333 0.666016 9 -8.00098l-297 -1598c-0.666992 -8 -5.33398 -12 -14.001 -12h-37z" />
    <glyph glyph-name="m" unicode="m" horiz-adv-x="1721" 
d="M95 0c-7.33301 0 -10.6699 3.99707 -10.0029 11.9971l198 1066c0.666992 8 5.33398 12 14.001 12h23c8 0 11.667 -4 11 -12l-5 -92c24 15.333 49.5 29.333 76.5 42s55 23.667 84 33s58.5 16.5 88.5 21.5s59.667 7.5 89 7.5c60.667 0 110.834 -6.83301 150.501 -20.5
s69.834 -37.167 90.501 -70.5c65.333 30 130.333 52.667 195 68s123.667 23 177 23c65.333 0 119.166 -6.5 161.499 -19.5s74.333 -34.167 96 -63.5s33.834 -68.333 36.501 -117s-2.66602 -108.334 -15.999 -179.001l-129 -699c-0.666992 -8 -5.33398 -12 -14.001 -12h-37
c-7.33301 0 -10.666 4 -9.99902 12l123 666c14 74 20.333 133.833 19 179.5s-11 81.167 -29 106.5s-44.667 42.333 -80 51s-80 13 -134 13c-52 0 -105 -6.16699 -159 -18.5s-113.333 -33.166 -178 -62.499c18 -65.333 15 -159.666 -9 -282.999l-121 -652
c-0.666992 -8 -5.33398 -12 -14.001 -12h-37c-7.33301 0 -10.666 4 -9.99902 12l121 650c14 76.667 20.333 138.834 19 186.501s-10.5 84.834 -27.5 111.501s-42.167 44.667 -75.5 54s-75 14 -125 14c-24 0 -49 -1.5 -75 -4.5s-53 -8.5 -81 -16.5s-56.833 -18.667 -86.5 -32
s-59.5 -30.333 -89.5 -51l-170 -912c-0.666992 -8 -5.33398 -12 -14.001 -12h-37z" />
    <glyph glyph-name="n" unicode="n" horiz-adv-x="1188" 
d="M95 0c-7.33301 0 -10.6641 4.00195 -9.99707 12.002l198 1066c0.666992 8 5.33398 12 14.001 12h23c8 0 11.667 -4 11 -12l-5 -94c30.667 16.667 63.834 31.667 99.501 45s71.5 24.5 107.5 33.5s71.5 15.833 106.5 20.5s67.167 7 96.5 7
c74.667 0 133.667 -8.16699 177 -24.5s74.666 -42.333 93.999 -78s28.333 -81.834 27 -138.501s-9.33301 -125.334 -24 -206.001l-116 -631c-0.666992 -8 -5.33398 -12 -14.001 -12h-38c-7.33301 0 -10.666 4 -9.99902 12l117 629c14 78 21.667 142 23 192
s-6.33398 89.5 -23.001 118.5s-43.167 49 -79.5 60s-84.833 16.5 -145.5 16.5c-29.333 0 -61 -2.16699 -95 -6.5s-68.833 -10.833 -104.5 -19.5s-71.334 -19.5 -107.001 -32.5s-69.834 -28.5 -102.501 -46.5l-169 -911c-0.666992 -8 -5.33398 -12 -14.001 -12h-37z" />
    <glyph glyph-name="o" unicode="o" horiz-adv-x="1183" 
d="M667 1028c-72.667 0 -135.166 -8.99805 -187.499 -26.998s-97 -45.833 -134 -83.5s-67.167 -85.5 -90.5 -143.5s-42.333 -127 -57 -207l-11 -65c-14.667 -80 -21.334 -149 -20.001 -207s13.166 -105.833 35.499 -143.5s56.333 -65.5 102 -83.5s105.5 -27 179.5 -27
c72.667 0 135.167 9 187.5 27s96.833 45.667 133.5 83s66.667 85.166 90 143.499s42.666 128.166 57.999 209.499l10 63c14.667 79.333 21.334 148 20.001 206s-13.166 105.833 -35.499 143.5s-56.333 65.667 -102 84s-105.167 27.5 -178.5 27.5zM472.001 -19.998
c-79.333 0 -145.168 9.66699 -197.501 29s-92.5 49.833 -120.5 91.5s-44.333 94.834 -49 159.501s1.66602 142 18.999 232l14 83c16.667 90 39.334 167.5 68.001 232.5s64.834 118.5 108.501 160.5s95.5 72.833 155.5 92.5s129.667 29.5 209 29.5
c80 0 146.167 -9.83301 198.5 -29.5s92.5 -50.5 120.5 -92.5s44 -95.5 48 -160.5s-2.33301 -142.5 -19 -232.5l-14 -83c-17.333 -90 -40.166 -167.333 -68.499 -232s-64.333 -117.834 -108 -159.501s-95.334 -72.167 -155.001 -91.5s-129.5 -29 -209.5 -29z" />
    <glyph glyph-name="p" unicode="p" horiz-adv-x="1153" 
d="M598 1028c-93.333 0 -183 -6.00293 -269 -18.0029l-174 -942c18 -4 38 -7.66699 60 -11s44.333 -6.16602 67 -8.49902s45.167 -4.16602 67.5 -5.49902s42.833 -2 61.5 -2c86 0 157.667 7.16699 215 21.5s104.833 39 142.5 74s67.834 81.667 90.501 140s42 131.5 58 219.5
l13 75c16.667 88.667 24.667 162.334 24 221.001s-13.167 105.5 -37.5 140.5s-62.333 59.667 -114 74s-119.834 21.5 -204.501 21.5zM10 -451.003c-7.33301 0 -10.666 4.00195 -9.99902 12.002l276 1486c0.666992 8.66699 5.33398 13.334 14.001 14.001
c60.667 11.333 117.167 19 169.5 23s101.833 6 148.5 6c90.667 0 165.167 -7.83301 223.5 -23.5s102.666 -42.834 132.999 -81.501s47.5 -90.167 51.5 -154.5s-3 -145.166 -21 -242.499l-18 -105c-17.333 -93.333 -39.5 -172 -66.5 -236s-62.667 -115.667 -107 -155
s-99 -67.833 -164 -85.5s-144.5 -26.5 -238.5 -26.5c-21.333 0 -43.5 0.666992 -66.5 2s-45.667 3.16602 -68 5.49902s-44 5.16602 -65 8.49902s-40.5 6.66602 -58.5 9.99902l-82 -445c-0.666992 -8 -5.33398 -12 -14.001 -12h-37z" />
    <glyph glyph-name="q" unicode="q" horiz-adv-x="1153" 
d="M706 1028c-56.667 0 -106.836 -2.99902 -150.503 -8.99902s-82.334 -16.167 -116.001 -30.5s-62.667 -33 -87 -56s-45.666 -51.5 -63.999 -85.5s-34.166 -73.667 -47.499 -119s-25.333 -97.666 -36 -156.999l-15 -75c-16 -88 -23.667 -161.167 -23 -219.5
s13.334 -105 38.001 -140s63 -59.667 115 -74s121.333 -21.5 208 -21.5c18.667 0 39.334 0.666992 62.001 2s45.667 3.16602 69 5.49902s46.5 5.16602 69.5 8.49902s44.167 7 63.5 11l174 942c-81.333 12 -168 18 -260 18zM707.998 -450.999
c-7.33301 0 -10.668 3.99805 -10.001 11.998l84 445c-19.333 -3.33301 -40.166 -6.66602 -62.499 -9.99902s-45 -6.16602 -68 -8.49902s-46.167 -4.16602 -69.5 -5.49902s-45.333 -2 -66 -2c-94 0 -170.5 8.83301 -229.5 26.5s-103.167 46.167 -132.5 85.5
s-45.5 91 -48.5 155s4.16699 142.667 21.5 236l18 105c18 97.333 41 178.166 69 242.499s64.333 115.833 109 154.5s99.167 65.834 163.5 81.501s141.833 23.5 232.5 23.5c46.667 0 95.334 -2 146.001 -6s104.334 -11.667 161.001 -23
c7.33301 -0.666992 10.666 -5.33398 9.99902 -14.001l-276 -1486c-0.666992 -8 -5.33398 -12 -14.001 -12h-38z" />
    <glyph glyph-name="r" unicode="r" horiz-adv-x="684" 
d="M95 0c-7.33301 0 -10.6699 4.00195 -10.0029 12.002l198 1066c0.666992 8 5.33398 12 14.001 12h23c8 0 11.667 -4 11 -12l-4 -73c22 13.333 46 25.166 72 35.499s53 19.166 81 26.499s56.333 13 85 17s57 6 85 6c26.667 0 49.334 -1.66699 68.001 -5
c8 -0.666992 10.667 -5 8 -13l-13 -37c-2.66699 -7.33301 -8 -10.666 -16 -9.99902c-9.33301 1.33301 -18.666 2.16602 -27.999 2.49902s-19.666 0.5 -30.999 0.5c-26 0 -51.833 -1.16699 -77.5 -3.5s-51.5 -6.66602 -77.5 -12.999s-52.667 -14.833 -80 -25.5
s-55.333 -24.334 -84 -41.001l-173 -933c-0.666992 -8 -5.33398 -12 -14.001 -12h-37z" />
    <glyph glyph-name="s" unicode="s" horiz-adv-x="967" 
d="M315 -20c-18 0 -39.502 0.334961 -64.502 1.00195s-50.833 2.16699 -77.5 4.5s-53.167 5.66602 -79.5 9.99902s-50.166 9.83301 -71.499 16.5c-7.33301 2.66699 -9.33301 7.66699 -6 15l18 34c4.66699 7.33301 10.667 10 18 8c44.667 -11.333 88.667 -18.833 132 -22.5
s90.333 -5.5 141 -5.5c86.667 0 156.834 4.5 210.501 13.5s95.334 24 125.001 45s49.667 48.5 60 82.5s15.5 75.667 15.5 125c0 24 -3.83301 44.667 -11.5 62s-20 33.166 -37 47.499s-39.333 28.333 -67 42s-61.5 28.834 -101.5 45.501l-170 69
c-29.333 12.667 -56 25.167 -80 37.5s-44.5 26.5 -61.5 42.5s-30 34.667 -39 56s-13.5 47.666 -13.5 78.999c0 53.333 6.83301 99 20.5 137s37.834 69.333 72.501 94s81.667 42.667 141 54s134.333 17 225 17c51.333 0 100.833 -2 148.5 -6s87.5 -8.33301 119.5 -13
c8 -1.33301 10 -5.33301 6 -12l-19 -36c-4.66699 -7.33301 -10.667 -10.333 -18 -9l-47 6c-16 2 -33.667 3.5 -53 4.5s-40.833 1.83301 -64.5 2.5s-50.834 1 -81.501 1c-67.333 0 -125.333 -3 -174 -9s-89 -17.667 -121 -35s-55.667 -41.5 -71 -72.5s-23 -71.167 -23 -120.5
c0 -20 3.16699 -37.667 9.5 -53s17.166 -29.833 32.499 -43.5s35.833 -27 61.5 -40s58.167 -27.167 97.5 -42.5l143 -57c40 -16 75 -31.333 105 -46s55 -31 75 -49s35 -38.333 45 -61s15 -50 15 -82c0 -58.667 -7 -109.167 -21 -151.5s-39.167 -77.333 -75.5 -105
s-85.833 -48 -148.5 -61s-142.667 -19.5 -240 -19.5z" />
    <glyph glyph-name="t" unicode="t" horiz-adv-x="718" 
d="M344 -20c-35.333 0 -65.5039 2.83398 -90.5039 8.50098s-44.5 17.5 -58.5 35.5s-22.167 43.833 -24.5 77.5s1.5 78.5 11.5 134.5l144 778l-222 8c-7.33301 0 -10.666 4 -9.99902 12l4 25c2 8 6.66699 12 14 12h224l39 201c0.666992 8 5 13.333 13 16l44 13
c7.33301 3.33301 10.333 0.666016 9 -8.00098l-44 -222h351c8 0 10.333 -3.66699 7 -11l-17 -35c-4 -7.33301 -9.66699 -11 -17 -11h-334l-143 -778c-8 -43.333 -11.833 -77.833 -11.5 -103.5s5 -45.334 14 -59.001s22.333 -22.5 40 -26.5s40.167 -6 67.5 -6
c26.667 0 53.834 1.5 81.501 4.5s51.834 7.16699 72.501 12.5c8 2 12.333 -1 13 -9l2 -33c0.666992 -8 -3 -13 -11 -15c-21.333 -5.33301 -47.166 -10.166 -77.499 -14.499s-60.5 -6.5 -90.5 -6.5z" />
    <glyph glyph-name="u" unicode="u" horiz-adv-x="1186" 
d="M490 -20c-85.333 0 -154 7.66504 -206 22.998s-90.667 40.333 -116 75s-39 79.834 -41 135.501s4.33301 123.834 19 204.501l119 641c0.666992 8 5.33398 12 14.001 12h38c7.33301 0 10.666 -4 9.99902 -12l-119 -641c-14.667 -77.333 -20.834 -140.5 -18.501 -189.5
s14.833 -87.333 37.5 -115s56.5 -46.667 101.5 -57s102.5 -15.5 172.5 -15.5c26.667 0 54.834 1 84.501 3s58.834 4.5 87.501 7.5s56.5 6.66699 83.5 11s51.5 8.83301 73.5 13.5l183 983c0.666992 8 5.33398 12 14.001 12h37c7.33301 0 10.666 -4 9.99902 -12l-188 -1018
c-0.666992 -8 -5.33398 -13 -14.001 -15c-48 -11.333 -105 -21.833 -171 -31.5s-136.333 -14.5 -211 -14.5z" />
    <glyph glyph-name="v" unicode="v" horiz-adv-x="961" 
d="M327 0c-8.66699 0 -13.333 4 -14 12l-199 1047c-0.666992 8 2.66602 12 9.99902 12h37c8.66699 0 13.334 -4 14.001 -12l191 -985l557 987c4.66699 6.66699 10.667 10 18 10h42c8.66699 0 10.667 -3.33301 6 -10l-588 -1051c-4.66699 -6.66699 -10.667 -10 -18 -10h-56z
" />
    <glyph glyph-name="w" unicode="w" horiz-adv-x="1619" 
d="M282 0c-8 0 -12.332 4 -12.999 12l-115 1047c-0.666992 8 3 12 11 12h38c8 0 12.333 -4 13 -12l99 -909l2 -26.5c0.666992 -9 1.33398 -17.167 2.00098 -24.5s1.33398 -13.333 2.00098 -18s1.33398 -7 2.00098 -7c1.33301 0.666992 5.66602 8.83398 12.999 24.501
s16.666 33.5 27.999 53.5l484 908c4.66699 7.33301 10.667 11 18 11h54c7.33301 0 12 -4 14 -12l145 -909c3.33301 -19.333 6.16602 -36.833 8.49902 -52.5s4.16602 -23.5 5.49902 -23.5c0.666992 0 2.16699 2.5 4.5 7.5l9 18.5l12 24l13.5 26l433 910
c3.33301 7.33301 9 11 17 11h46c8 0 10.333 -3.66699 7 -11l-506 -1049c-4 -7.33301 -9.66699 -11 -17 -11h-54c-7.33301 0 -12 4 -14 12l-149 922c-3.33301 15.333 -6 29.666 -8 42.999s-3.66699 20 -5 20c-1.33301 -0.666992 -5 -7.5 -11 -20.5s-13 -27.167 -21 -42.5
l-496 -923c-4.66699 -7.33301 -10.667 -11 -18 -11h-54z" />
    <glyph glyph-name="x" unicode="x" horiz-adv-x="1005" 
d="M766 0c-7.33301 0 -13.332 3.33301 -17.999 10l-266 479l-445 -480c-5.33301 -6 -12 -9 -20 -9h-56c-8 0 -9.33301 3 -4 9l494 530l-291 522c-4.66699 6.66699 -2.66699 10 6 10h43c7.33301 0 13.333 -3.66699 18 -11l265 -482l446 484c5.33301 6 12 9 20 9h56
c7.33301 0 8.66602 -3 3.99902 -9l-497 -532l294 -520c4.66699 -6.66699 2.66699 -10 -6 -10h-43z" />
    <glyph glyph-name="y" unicode="y" horiz-adv-x="919" 
d="M-71 -471c-15.333 0 -32.668 1.16309 -52.001 3.49609s-37.333 5.83301 -54 10.5c-7.33301 2.66699 -9.66602 7.66699 -6.99902 15l15 36c3.33301 7.33301 9 10 17 8c14 -3.33301 29.667 -6.16602 47 -8.49902s32.666 -3.5 45.999 -3.5c24.667 0 47.167 1.33301 67.5 4
s39.5 8.83398 57.5 18.501s36 23.5 54 41.5s37.333 42.167 58 72.5s43.167 67.833 67.5 112.5l83.5 161c-0.666992 0 -2 0.666992 -4 2s-4.16699 4 -6.5 8s-4.83301 9.5 -7.5 16.5s-5.33398 16.5 -8.00098 28.5l-188 1004c-0.666992 8 2.66602 12 9.99902 12h35
c8.66699 0 13.334 -4 14.001 -12l166 -877c2.66699 -12 5.16699 -24.333 7.5 -37l6.5 -34.5c2 -10.333 3.83301 -18.666 5.5 -24.999s3.16699 -9.5 4.5 -9.5l507 984c4.66699 7.33301 10.667 11 18 11h45c8 0 10.333 -3.66699 7 -11l-589 -1142
c-30 -57.333 -57.167 -106.833 -81.5 -148.5s-47.166 -77 -68.499 -106s-41.833 -52.333 -61.5 -70s-40.167 -31.167 -61.5 -40.5s-44.166 -15.666 -68.499 -18.999s-51.5 -5 -81.5 -5z" />
    <glyph glyph-name="z" unicode="z" horiz-adv-x="963" 
d="M750 61c6.66699 0 9.66797 -3.66699 9.00098 -11l-8 -40c-2 -6.66699 -6.66699 -10 -14 -10h-747c-7.33301 0 -10.333 3.66699 -9 11l8 40c0.666992 6.66699 3.66699 12.667 9 18l870 941h-692c-7.33301 0 -10.333 3.66699 -9 11l8 40c1.33301 6.66699 6 10 14 10h755
c8 0 11 -4.33301 9 -13l-8 -39c-0.666992 -5.33301 -3.33398 -10.333 -8.00098 -15l-868 -943h681z" />
    <glyph glyph-name="braceleft" unicode="{" horiz-adv-x="590" 
d="M220 -389c-33.333 0 -60.998 2.49609 -82.998 7.49609s-38.833 15.333 -50.5 31s-18 38 -19 67s2.83301 67.5 11.5 115.5l74 393c8 42.667 13.167 78.167 15.5 106.5s1.33301 52.5 -3 72.5s-12.333 37.333 -24 52s-27.834 29.667 -48.501 45
c-4 2.66699 -6.5 5.33398 -7.5 8.00098s-1.16699 6.33398 -0.5 11.001l8 46c0.666992 4.66699 2 8.16699 4 10.5s4.66699 4.83301 8 7.5c27.333 15.333 49.833 30.333 67.5 45s32.334 31.834 44.001 51.501s21.334 43.667 29.001 72s15.5 64.166 23.5 107.499l74 393
c8.66699 48 19 86.667 31 116s26.667 51.833 44 67.5s38 26 62 31s52.667 7.5 86 7.5h142c7.33301 0 10.666 -4 9.99902 -12l-6 -38c-2 -8 -6.66699 -12 -14 -12h-140c-25.333 0 -46.333 -1.66699 -63 -5s-30.667 -10.5 -42 -21.5s-20.5 -27.167 -27.5 -48.5
s-13.833 -49.666 -20.5 -84.999l-74 -393c-8 -43.333 -16.5 -81 -25.5 -113s-20.167 -60.5 -33.5 -85.5s-29.833 -47 -49.5 -66s-43.834 -36.5 -72.501 -52.5c22.667 -16.667 40.334 -34.5 53.001 -53.5s21.167 -41 25.5 -66s5 -53.667 2 -86s-8.5 -69.833 -16.5 -112.5
l-74 -393c-6 -35.333 -9.33301 -63.5 -10 -84.5s2.5 -37.167 9.5 -48.5s18.167 -18.666 33.5 -21.999s36 -5 62 -5h139c7.33301 0 10.666 -4 9.99902 -12l-8 -37c-0.666992 -8 -5.33398 -12 -14.001 -12h-142v0z" />
    <glyph glyph-name="bar" unicode="|" horiz-adv-x="564" 
d="M242 -389c-8 0 -12 4 -12 12v1840c0 8 4 12 12 12h38c8 0 12 -4 12 -12v-1840c0 -8 -4 -12 -12 -12h-38z" />
    <glyph glyph-name="braceright" unicode="}" horiz-adv-x="569" 
d="M319 1474c33.333 0 60.998 -2.49609 82.998 -7.49609s38.833 -15.333 50.5 -31s18 -38 19 -67s-2.83301 -67.5 -11.5 -115.5l-74 -393c-8 -43.333 -13.167 -79 -15.5 -107s-1.33301 -52 3 -72s12.333 -37.333 24 -52s27.834 -29.667 48.501 -45
c4 -2.66699 6.5 -5.33398 7.5 -8.00098s1.16699 -6.33398 0.5 -11.001l-8 -46c-0.666992 -4.66699 -2 -8.16699 -4 -10.5s-4.66699 -4.83301 -8 -7.5c-27.333 -15.333 -49.833 -30.333 -67.5 -45s-32.334 -31.834 -44.001 -51.501s-21.334 -43.667 -29.001 -72
s-15.5 -64.166 -23.5 -107.499l-74 -393c-8.66699 -48 -19 -86.667 -31 -116s-26.667 -51.833 -44 -67.5s-38 -26 -62 -31s-52.667 -7.5 -86 -7.5h-142c-7.33301 0 -10.666 4 -9.99902 12l6 38c2 8 6.66699 12 14 12h140c25.333 0 46.333 1.66699 63 5s30.667 10.5 42 21.5
s20.5 27.167 27.5 48.5s13.833 49.666 20.5 84.999l74 393c8 42.667 16.5 80.167 25.5 112.5s20.167 61 33.5 86s29.833 47 49.5 66s43.834 36.5 72.501 52.5c-22.667 16.667 -40.334 34.5 -53.001 53.5s-21.167 41 -25.5 66s-5 53.5 -2 85.5s8.5 69.667 16.5 113l74 393
c6 35.333 9.33301 63.5 10 84.5s-2.5 37.167 -9.5 48.5s-18.167 18.666 -33.5 21.999s-36 5 -62 5h-139c-7.33301 0 -10.666 4 -9.99902 12l8 37c0.666992 8 5.33398 12 14.001 12h142v0z" />
    <glyph glyph-name="asciitilde" unicode="~" horiz-adv-x="985" 
d="M170 666c-7.33301 0 -10.6689 4.00195 -10.002 12.002l4 23c10 56 23.167 99.667 39.5 131s34 54.333 53 69s38.333 23.5 58 26.5s37.834 4.5 54.501 4.5c32 0 59.333 -7.66699 82 -23s43 -33 61 -53l53 -59c19.333 -21.333 39 -39.333 59 -54s42.667 -22 68 -22
c16 0 30.5 2 43.5 6s25 12.833 36 26.5s21.167 33.167 30.5 58.5s18.333 59.333 27 102c0.666992 8 5.33398 12 14.001 12h35c7.33301 0 10.666 -4 9.99902 -12l-4 -23c-9.33301 -54 -22.166 -96.333 -38.499 -127s-34 -53.5 -53 -68.5s-38.5 -24.333 -58.5 -28
s-38.333 -5.5 -55 -5.5c-32 0 -59.5 7.16699 -82.5 21.5s-43.5 31.833 -61.5 52.5l-52 59c-19.333 22 -38.666 40.5 -57.999 55.5s-42.333 22.5 -69 22.5c-16 0 -30.5 -2.16699 -43.5 -6.5s-25 -13.333 -36 -27s-21.167 -33.334 -30.5 -59.001s-18.333 -59.834 -27 -102.501
c-0.666992 -8 -5.33398 -12 -14.001 -12h-35z" />
    <glyph glyph-name="uni007F" horiz-adv-x="0" 
 />
    <glyph glyph-name="uni00A0" unicode="&#xa0;" horiz-adv-x="508" 
 />
    <glyph glyph-name="exclamdown" unicode="&#xa1;" horiz-adv-x="465" 
d="M259 661c7.33301 0 10.666 -4 9.99902 -12l-184 -1041c-0.666992 -8 -5.33398 -13 -14.001 -15l-50 -14c-7.33301 -2 -10.666 1 -9.99902 9l205 1061c0.666992 8 5.33398 12 14.001 12h29zM345 1071c7.33301 0 10.666 -4 9.99902 -12l-35 -181
c-0.666992 -8 -5.33398 -13 -14.001 -15l-52 -14c-7.33301 -2 -10.666 1 -9.99902 9l37 201c0.666992 8 5.33398 12 14.001 12h50z" />
    <glyph glyph-name="cent" unicode="&#xa2;" horiz-adv-x="920" 
d="M323 -266c-7.33301 0 -10.665 3.99902 -9.99805 11.999l44 239c-63.333 6 -115.666 18.833 -156.999 38.5s-72.333 49.667 -93 90s-31.5 92.666 -32.5 156.999s7.5 143.5 25.5 237.5l20 110c16 86 35.5 160.333 58.5 223s52 115 87 157s77.333 74.5 127 97.5
s109.167 38.167 178.5 45.5l45 240c0.666992 8 5.33398 12 14.001 12h38c7.33301 0 10.666 -4 9.99902 -12l-44 -235c8.66699 0.666992 17.5 1 26.5 1h27.5c40 0 78.333 -1.66699 115 -5s69.334 -8.33301 98.001 -15c8 -2 10 -6.33301 6 -13l-19 -36
c-4.66699 -7.33301 -10.667 -10 -18 -8c-28 6 -59.333 10 -94 12s-68 3 -100 3c-9.33301 0 -18.5 -0.166992 -27.5 -0.5s-17.833 -0.833008 -26.5 -1.5l-193 -1041c8.66699 -0.666992 17.167 -1 25.5 -1h26.5c36 0 72.167 1.33301 108.5 4s69.166 7 98.499 13
c8 2 12.333 -1 13 -9l2 -35c0.666992 -8 -3 -13 -11 -15c-14.667 -3.33301 -31.167 -6.16602 -49.5 -8.49902s-37.333 -4.16602 -57 -5.49902s-39.334 -2.5 -59.001 -3.5s-38.167 -1.5 -55.5 -1.5c-9.33301 0 -18.333 0.166992 -27 0.5s-17.334 0.5 -26.001 0.5l-44 -235
c-0.666992 -8 -5.33398 -12 -14.001 -12h-37zM164.001 521.999c-15.333 -82 -23.832 -151.836 -25.499 -209.503s5.16602 -105.167 20.499 -142.5s40.166 -65.666 74.499 -84.999s79.5 -32.333 135.5 -39l191 1033c-58.667 -7.33301 -108.667 -21.166 -150 -41.499
s-76.666 -49.166 -105.999 -86.499s-54 -84.5 -74 -141.5s-37.333 -125.5 -52 -205.5z" />
    <glyph glyph-name="sterling" unicode="&#xa3;" horiz-adv-x="1051" 
d="M172 770c-7.33301 0 -10.666 4.00293 -9.99902 12.0029l6 37c2 8 6.66699 12 14 12h112l40 218c14.667 79.333 33.167 146.166 55.5 200.499s53.833 98.166 94.5 131.499s93.5 57.333 158.5 72s147.833 22 248.5 22h142c7.33301 0 10.666 -4 9.99902 -12l-6 -38
c-2 -8 -6.66699 -12 -14 -12h-140c-88.667 0 -161.5 -5.83301 -218.5 -17.5s-103.167 -31.5 -138.5 -59.5s-62.666 -65.333 -81.999 -112s-35.333 -105 -48 -175l-41 -218h508c8.66699 0 11 -3.66699 7 -11l-15 -39c-4 -7.33301 -9.66699 -11 -17 -11h-494l-77 -418
c-7.33301 -38 -15 -71.833 -23 -101.5s-17.5 -56.167 -28.5 -79.5s-24 -43.833 -39 -61.5s-33.167 -33.834 -54.5 -48.501h716c7.33301 0 10.666 -4 9.99902 -12l-8 -37c-0.666992 -8 -5.33398 -12 -14.001 -12h-797c-7.33301 0 -10.666 4 -9.99902 12l8 46
c0.666992 4.66699 2 8.16699 4 10.5s4.66699 4.83301 8 7.5c27.333 15.333 49.833 30.333 67.5 45s32.5 31.834 44.5 51.501s22 43.667 30 72s16 64.166 24 107.499l77 418h-110z" />
    <glyph glyph-name="currency" unicode="&#xa4;" horiz-adv-x="1250" 
d="M290 1143c-5.33301 6 -5.00098 11.6709 0.999023 17.0039l33 27c6 5.33301 11.667 5 17 -1l78 -95c78 56 179.667 84 305 84c66 0 120.5 -8.16699 163.5 -24.5s77.167 -39.5 102.5 -69.5l126 106c6 5.33301 11.667 5 17 -1l21 -25c5.33301 -6 5 -11.667 -1 -17l-131 -110
c21.333 -44.667 32 -98.334 32 -161.001c0 -91.333 -10.833 -170.333 -32.5 -237s-53.5 -122 -95.5 -166l81 -101c5.33301 -6 5 -11.667 -1 -17l-35 -27c-6 -5.33301 -11.667 -5 -17 1l-80 98c-39.333 -28 -84.333 -48.833 -135 -62.5s-107.334 -20.5 -170.001 -20.5
c-64.667 0 -118.167 8 -160.5 24s-76.166 38.667 -101.499 68l-128 -108c-6 -4.66699 -11.667 -4.33398 -17 0.999023l-19 25c-5.33301 6 -5 11.667 1 17l132 111c-11.333 23.333 -19.666 48.666 -24.999 75.999s-8 56.666 -8 87.999c0 91.333 10.5 170.333 31.5 237
s52.167 122 93.5 166zM303.999 648.004c0 -36.667 4.5 -70.332 13.5 -100.999s24 -57 45 -79s49.167 -39 84.5 -51s79.666 -18 132.999 -18c138.667 0 242.334 38 311.001 114s103 194.667 103 356c0 37.333 -4.5 71.166 -13.5 101.499s-24.333 56.333 -46 78
s-50.5 38.5 -86.5 50.5s-81 18 -135 18c-137.333 0 -239.833 -37.5 -307.5 -112.5s-101.5 -193.833 -101.5 -356.5z" />
    <glyph glyph-name="yen" unicode="&#xa5;" horiz-adv-x="1204" 
d="M212 543c-8 0 -10.334 3.66699 -7.00098 11l16 39c3.33301 7.33301 9 11 17 11h286l-305 860c-3.33301 7.33301 -0.666016 11 8.00098 11h44c8 0 13.333 -3.66699 16 -11l303 -839l616 840c4 6.66699 10.333 10 19 10h41c8 0 9.66699 -3.33301 5 -10l-622 -861h327
c8 0 10.333 -3.66699 7 -11l-16 -39c-4 -7.33301 -9.66699 -11 -17 -11h-344l-31 -166h360c8.66699 0 11.334 -3.66699 8.00098 -11l-17 -40c-2.66699 -7.33301 -8 -11 -16 -11h-346l-56 -303c-0.666992 -8 -5.33398 -12 -14.001 -12h-37c-7.33301 0 -10.666 4 -9.99902 12
l56 303h-333c-8.66699 0 -11.334 3.66699 -8.00098 11l17 40c2.66699 7.33301 8 11 16 11h319l31 166h-333z" />
    <glyph glyph-name="brokenbar" unicode="&#xa6;" horiz-adv-x="554" 
d="M235 707c-8 0 -12 4 -12 12l-5 744c0 8 4 12 12 12h37c8 0 12 -4 12 -12l-5 -744c0 -8 -4 -12 -12 -12h-27zM230 -389c-8 0 -12 4 -12 12l5 744c0 8 4 12 12 12h27c8 0 12 -4 12 -12l5 -744c0 -8 -4 -12 -12 -12h-37z" />
    <glyph glyph-name="section" unicode="&#xa7;" horiz-adv-x="1075" 
d="M259 -450c-26 0 -52.6738 0.666992 -80.0068 2s-54.166 3.33301 -80.499 6s-51.666 5.66699 -75.999 9s-46.166 7 -65.499 11c-8 2 -10 6.33301 -6 13l22 37c3.33301 6 9.33301 8.66699 18 8c54 -9.33301 103.667 -15.666 149 -18.999s86 -5 122 -5
c90 0 166.667 7.83301 230 23.5s115 39 155 70s69.167 69.5 87.5 115.5s27.5 99.667 27.5 161c0 32 -5.33301 59.667 -16 83s-27.167 44.666 -49.5 63.999s-51 37.833 -86 55.5s-76.5 36.834 -124.5 57.501l-109 46c-34 14.667 -66.833 30.667 -98.5 48s-59.667 38 -84 62
s-43.666 52.333 -57.999 85s-21.5 71.667 -21.5 117c0 73.333 14.5 134.166 43.5 182.499s71.167 90.166 126.5 125.499c-23.333 25.333 -41.833 54.333 -55.5 87s-20.5 71 -20.5 115c0 72 10.833 132.5 32.5 181.5s55 88.5 100 118.5s102.333 51.667 172 65
s152.834 20 249.501 20c52 0 102.167 -2 150.5 -6s89.5 -9.66699 123.5 -17c8.66699 -0.666992 11 -5 7 -13l-15 -35c-3.33301 -6.66699 -9 -9.66699 -17 -9c-16.667 3.33301 -35.667 6.16602 -57 8.49902s-43.5 4.33301 -66.5 6s-46.333 2.83398 -70 3.50098
s-46.167 1 -67.5 1c-76 0 -143.167 -5.5 -201.5 -16.5s-107.5 -29 -147.5 -54s-70.167 -58.167 -90.5 -99.5s-30.5 -92 -30.5 -152c0 -36.667 6.5 -68.667 19.5 -96s31.167 -51.5 54.5 -72.5s51 -39.833 83 -56.5s67 -32.667 105 -48l124 -50
c91.333 -36.667 157.5 -79.167 198.5 -127.5s61.5 -106.5 61.5 -174.5c0 -38.667 -3.66699 -73.334 -11 -104.001s-18.166 -58.5 -32.499 -83.5s-31.833 -47.667 -52.5 -68s-44.334 -39.5 -71.001 -57.5c26 -25.333 45 -53 57 -83s18 -64 18 -102
c0 -78.667 -11.333 -145.667 -34 -201s-57.667 -100.666 -105 -135.999s-107.166 -61.166 -179.499 -77.499s-158.166 -24.5 -257.499 -24.5zM470.993 794c-25.333 9.33301 -49.502 19.833 -72.502 31.5s-44.5 24.834 -64.5 39.501
c-29.333 -16.667 -53.333 -36.167 -72 -58.5s-33.667 -45.333 -45 -69s-19.166 -46.834 -23.499 -69.501s-6.5 -43 -6.5 -61c0 -36.667 6.5 -68.667 19.5 -96s31.167 -51.666 54.5 -72.999s51 -40.333 83 -57s67 -32.667 105 -48l124 -50
c55.333 -21.333 100.333 -43.666 135 -66.999c28.667 16.667 52.334 36 71.001 58s33.5 45 44.5 69s18.667 47.667 23 71s6.5 44.666 6.5 63.999c0 29.333 -4.83301 56.166 -14.5 80.499s-25.167 47.333 -46.5 69s-49.5 42.5 -84.5 62.5s-77.5 40 -127.5 60z" />
    <glyph glyph-name="dieresis" unicode="&#xa8;" 
d="M469 1260c-7.33301 0 -10.666 4 -9.99902 12l47 252c0.666992 8 5.33398 13 14.001 15l54 14c7.33301 2 10.666 -1 9.99902 -9l-52 -272c-0.666992 -8 -5.33398 -12 -14.001 -12h-49zM727 1260c-7.33301 0 -10.666 4 -9.99902 12l47 252c0.666992 8 5.33398 13 14.001 15
l54 14c7.33301 2 10.666 -1 9.99902 -9l-52 -272c-0.666992 -8 -5.33398 -12 -14.001 -12h-49z" />
    <glyph glyph-name="copyright" unicode="&#xa9;" horiz-adv-x="1578" 
d="M773 340c-64 0 -117.168 6 -159.501 18s-74.5 32.833 -96.5 62.5s-34.5 69.5 -37.5 119.5s2.5 113 16.5 189l15 80c14 76 31.667 139 53 189s48.5 89.833 81.5 119.5s72.833 50.5 119.5 62.5s102 18 166 18c30 0 58.833 -1.16699 86.5 -3.5s52.167 -5.83301 73.5 -10.5
c7.33301 -0.666992 9.66602 -5 6.99902 -13l-17 -34c-3.33301 -6.66699 -9 -9.66699 -17 -9c-21.333 4 -44.5 6.83301 -69.5 8.5s-49.167 2.5 -72.5 2.5c-57.333 0 -105.666 -5.5 -144.999 -16.5s-72.166 -29.5 -98.499 -55.5s-48 -60.833 -65 -104.5
s-31.5 -98.167 -43.5 -163.5l-10 -60c-12 -65.333 -17.833 -119.833 -17.5 -163.5s9 -78.5 26 -104.5s43 -44.5 78 -55.5s81.167 -16.5 138.5 -16.5c25.333 0 51 0.833008 77 2.5s49.667 4.83398 71 9.50098c8 2 12.333 -1 13 -9l2 -34
c0.666992 -8.66699 -3 -13.334 -11 -14.001c-22.667 -4.66699 -49.167 -8.16699 -79.5 -10.5s-58.5 -3.5 -84.5 -3.5zM233.999 584c0 -61.333 7.5 -117.168 22.5 -167.501s40.5 -93.5 76.5 -129.5s84 -63.833 144 -83.5s135.333 -29.5 226 -29.5
c118 0 220.167 15.333 306.5 46s157.666 78 213.999 142s98.333 145.167 126 243.5s41.5 215.166 41.5 350.499c0 60.667 -7.33301 116.167 -22 166.5s-40 93.333 -76 129s-84.167 63.334 -144.5 83.001s-135.833 29.5 -226.5 29.5c-118 0 -220.167 -15.167 -306.5 -45.5
s-157.666 -77.333 -213.999 -141s-98.333 -144.667 -126 -243s-41.5 -215.166 -41.5 -350.499zM1455 960.998c0 -152 -16.168 -281.665 -48.501 -388.998s-80.5 -195 -144.5 -263s-143.667 -117.667 -239 -149s-206 -47 -332 -47c-98.667 0 -181 11.167 -247 33.5
s-119 53.666 -159 93.999s-68.333 88.666 -85 144.999s-25 118.833 -25 187.5c0 152 15.833 282 47.5 390s79.167 196.167 142.5 264.5s142.5 118.333 237.5 150s205.833 47.5 332.5 47.5c98.667 0 181.334 -11.167 248.001 -33.5s120.167 -53.833 160.5 -94.5
s69 -89.5 86 -146.5s25.5 -120.167 25.5 -189.5z" />
    <glyph glyph-name="ordfeminine" unicode="&#xaa;" horiz-adv-x="935" 
d="M525 762c33.333 0 65.5 0.833984 96.5 2.50098s62.167 5.5 93.5 11.5l63 342h-123c-68.667 0 -126.167 -2.5 -172.5 -7.5s-83.5 -15.167 -111.5 -30.5s-48 -37.666 -60 -66.999s-18 -68 -18 -116c0 -30 5.5 -53.833 16.5 -71.5s26.5 -31.334 46.5 -41.001
s44.333 -15.834 73 -18.501s60.667 -4 96 -4zM633 1440c-42 0 -80.335 -1.99805 -115.002 -5.99805s-70 -9 -106 -15c-7.33301 -0.666992 -10.666 2.66602 -9.99902 9.99902l5 29c2 8.66699 6.66699 13.667 14 15c18.667 4 38.167 7.5 58.5 10.5s40.5 5.33301 60.5 7
s39 2.83398 57 3.50098s34 1 48 1c58.667 0 104.334 -5 137.001 -15s55.834 -26.167 69.501 -48.5s19.667 -51.666 18 -87.999s-7.5 -80.833 -17.5 -133.5l-87 -469c-0.666992 -8.66699 -5.33398 -13.334 -14.001 -14.001c-19.333 -3.33301 -39.833 -6.16602 -61.5 -8.49902
s-43 -4.33301 -64 -6s-41.167 -3 -60.5 -4s-36 -1.5 -50 -1.5c-46.667 0 -87.667 2.66699 -123 8s-64.833 14.666 -88.5 27.999s-41.5 31.333 -53.5 54s-18 51.667 -18 87c0 58.667 8.16699 106.667 24.5 144s42.333 66.666 78 87.999s81.5 35.833 137.5 43.5
s123.667 11.5 203 11.5h113l12 66c8 40.667 11.667 74.167 11 100.5s-7.16699 47.166 -19.5 62.499s-31.333 25.833 -57 31.5s-59.5 8.5 -101.5 8.5zM152.998 545.003c-7.33301 0 -10.666 4 -9.99902 12l7 37c0.666992 8 5.33398 12 14.001 12h607
c7.33301 0 10.666 -4 9.99902 -12l-7 -37c-0.666992 -8 -5.33398 -12 -14.001 -12h-607z" />
    <glyph glyph-name="guillemotleft" unicode="&#xab;" horiz-adv-x="1071" 
d="M387 231c-8 0 -14.667 3 -20 9l-299 372c-5.33301 6 -5 11.667 1 17l441 373c6 5.33301 13 8 21 8h67c7.33301 0 8.33301 -2.66699 3 -8l-454 -387l301 -375c6 -6 4.66699 -9 -4 -9h-57zM797 231c-8 0 -14.667 3 -20 9l-299 372c-5.33301 6 -5 11.667 1 17l441 373
c6 5.33301 13 8 21 8h67c7.33301 0 8.33301 -2.66699 3 -8l-454 -387l301 -375c6 -6 4.66699 -9 -4 -9h-57z" />
    <glyph glyph-name="logicalnot" unicode="&#xac;" horiz-adv-x="1116" 
d="M224 975c-7.33301 0 -10.667 4 -10 12l7 37c0.666992 8 5.33398 12 14.001 12h754c7.33301 0 10.666 -4 9.99902 -12l-9 -49l-72 -388c-0.666992 -8 -5.33398 -12 -14.001 -12h-37c-7.33301 0 -10.666 4 -9.99902 12l71 388h-704z" />
    <glyph glyph-name="uni00AD" unicode="&#xad;" horiz-adv-x="846" 
d="M187 586c-7.33301 0 -10.666 4 -9.99902 12l7 37c0.666992 8 5.33398 12 14.001 12h455c7.33301 0 10.666 -4 9.99902 -12l-7 -37c-0.666992 -8 -5.33398 -12 -14.001 -12h-455z" />
    <glyph glyph-name="registered" unicode="&#xae;" horiz-adv-x="1264" 
d="M1199 1153c0 -119.333 -12.3311 -221.166 -36.998 -305.499s-61.834 -153.166 -111.501 -206.499s-112.167 -92.333 -187.5 -117s-163.333 -37 -264 -37c-74.667 0 -137.834 8.83301 -189.501 26.5s-93.5 42.667 -125.5 75s-55 71 -69 116s-21 94.833 -21 149.5
c0 120 12.667 222.167 38 306.5s63 153.166 113 206.499s112.167 92.166 186.5 116.499s160.5 36.5 258.5 36.5c78 0 143.167 -8.83301 195.5 -26.5s94.333 -42.667 126 -75s54.167 -71 67.5 -116s20 -94.833 20 -149.5zM255.002 858c0 -47.333 5.66699 -90.165 17 -128.498
s30.5 -71.166 57.5 -98.499s63.333 -48.5 109 -63.5s102.834 -22.5 171.501 -22.5c90.667 0 169.167 11.833 235.5 35.5s121.166 60.167 164.499 109.5s75.5 112.166 96.5 188.499s31.5 167.166 31.5 272.499c0 46.667 -5.66699 89.167 -17 127.5
s-30.833 71.166 -58.5 98.499s-64.5 48.333 -110.5 63s-103.333 22 -172 22c-90 0 -168 -11.667 -234 -35s-120.5 -59.5 -163.5 -108.5s-75 -111.5 -96 -187.5s-31.5 -167 -31.5 -273zM849.002 662.001c-8 0 -13.335 3.66699 -16.002 11l-91 244
c-13.333 -1.33301 -27.833 -2.33301 -43.5 -3s-32.167 -1 -49.5 -1c-18.667 0 -37 0.166992 -55 0.5s-37.333 1.83301 -58 4.5l-45 -244c-0.666992 -8 -5.33398 -12 -14.001 -12h-38c-7.33301 0 -10.666 4 -9.99902 12l119 645c0.666992 8 5.33398 12.333 14.001 13
c30 2.66699 58.5 4.16699 85.5 4.5s53.833 0.5 80.5 0.5c42.667 0 80.334 -2 113.001 -6s59.334 -12.667 80.001 -26s34.667 -32.5 42 -57.5s7 -58.5 -1 -100.5l-8 -45c-9.33301 -52 -25.333 -91.5 -48 -118.5s-56 -45.833 -100 -56.5l99 -252
c1.33301 -3.33301 0.666016 -6 -2.00098 -8l-1 -2c-3.33301 -2 -6.33301 -3 -9 -3h-44zM716 1278l-30.5039 -0.000976562c-11 0 -22 -0.166992 -33 -0.5s-21 -0.833008 -30 -1.5s-16.167 -1.33398 -21.5 -2.00098l-55 -297c18.667 -2 38.834 -3.16699 60.501 -3.5
s39.834 -0.5 54.501 -0.5c38 0 70.5 1.33301 97.5 4s49.667 8.83398 68 18.501s33 23.834 44 42.501s19.5 44 25.5 76l4 27c6 32 6.83301 57.167 2.5 75.5s-14.166 32 -29.499 41s-36.166 14.667 -62.499 17s-57.833 3.5 -94.5 3.5z" />
    <glyph glyph-name="macron" unicode="&#xaf;" 
d="M407 1352c-8 0 -11 4 -9 12l7 37c2 8 7 12 15 12h455c8 0 11 -4 9 -12l-7 -37c-2 -8 -7 -12 -15 -12h-455z" />
    <glyph glyph-name="degree" unicode="&#xb0;" horiz-adv-x="746" 
d="M517 1440c-64 0 -116.831 -15.499 -158.498 -46.499s-68.5 -79.833 -80.5 -146.5l-4 -26c-12.667 -67.333 -4.83398 -116.333 23.499 -147s75.5 -46 141.5 -46c63.333 0 116.166 15.167 158.499 45.5s69.5 80.166 81.5 149.499l4 24
c12.667 66.667 4.66699 115.5 -24 146.5s-76 46.5 -142 46.5zM429.002 973.001c-40 0 -75.333 4.66699 -106 14s-55.5 23.833 -74.5 43.5s-31.833 44.5 -38.5 74.5s-6 65.667 2 107l8 41c8 42 21 78.167 39 108.5s40.167 55.5 66.5 75.5s56.666 34.667 90.999 44
s71.5 14 111.5 14s75.167 -4.66699 105.5 -14s55 -24 74 -44s31.833 -45.167 38.5 -75.5s6.33398 -66.5 -0.999023 -108.5l-9 -41c-7.33301 -41.333 -20 -77 -38 -107s-40.333 -54.833 -67 -74.5s-57 -34.167 -91 -43.5s-71 -14 -111 -14z" />
    <glyph glyph-name="plusminus" unicode="&#xb1;" horiz-adv-x="1106" 
d="M215 776c-7.33301 0 -10.666 4 -9.99902 12l7 38c0.666992 8 5.33398 12 14.001 12h346l65 346c0.666992 8 5.33398 12 14.001 12h38c7.33301 0 10.666 -4 9.99902 -12l-65 -346h346c7.33301 0 10.666 -4 9.99902 -12l-7 -38c-0.666992 -8 -5.33398 -12 -14.001 -12h-346
l-65 -346c-0.666992 -8 -5.33398 -12 -14.001 -12h-38c-7.33301 0 -10.666 4 -9.99902 12l64 346h-345zM71 0c-7.33301 0 -10.666 4 -9.99902 12l7 37c0.666992 8 5.33398 12 14.001 12h754c7.33301 0 10.666 -4 9.99902 -12l-7 -37c-0.666992 -8 -5.33398 -12 -14.001 -12
h-754z" />
    <glyph glyph-name="twosuperior" unicode="&#xb2;" horiz-adv-x="817" 
d="M137 598c-7.33301 0 -10.665 4.00391 -9.99805 12.0039l7 35c7.33301 39.333 17 74.333 29 105s28.167 59.167 48.5 85.5s45.5 51.833 75.5 76.5s66.667 51 110 79l168 109l69 45.5c21.333 14.333 39.833 29.666 55.5 45.999s27.834 34.666 36.501 54.999
s13 45.166 13 74.499c0 22 -4 40.5 -12 55.5s-21 27 -39 36s-41.833 15.5 -71.5 19.5s-66.167 6 -109.5 6c-26.667 0 -56 -1.16699 -88 -3.5s-64.333 -6.83301 -97 -13.5c-8 -0.666992 -12 2.66602 -12 9.99902l1 34c0 8.66699 4 13.334 12 14.001
c14.667 2.66699 30.667 5 48 7s34.666 3.66699 51.999 5s34.333 2.33301 51 3s31.667 1 45 1c50.667 0 94 -2.83301 130 -8.5s65.333 -15 88 -28s39.334 -29.833 50.001 -50.5s16 -45.667 16 -75c0 -34 -4.16699 -63.5 -12.5 -88.5s-21 -47.833 -38 -68.5
s-38.333 -40.334 -64 -59.001s-55.834 -38.667 -90.501 -60l-149 -94c-44 -27.333 -80.5 -52.5 -109.5 -75.5s-52.667 -46 -71 -69s-32.5 -47.5 -42.5 -73.5s-18 -56 -24 -90h461c7.33301 0 10.666 -4 9.99902 -12l-7 -33c-0.666992 -8 -5.33398 -12 -14.001 -12h-515z" />
    <glyph glyph-name="threesuperior" unicode="&#xb3;" horiz-adv-x="825" 
d="M348 586c-34.667 0 -68.3291 1.50195 -100.996 4.50195s-61.667 6.83301 -87 11.5c-8 0.666992 -11 5.33398 -9 14.001l7 34c2 7.33301 7 10.666 15 9.99902c28 -5.33301 58.167 -9.16602 90.5 -11.499s63.5 -3.5 93.5 -3.5c47.333 0 88.833 3.16699 124.5 9.5
s66.167 17.166 91.5 32.499s45.666 35.333 60.999 60s26.666 55.667 33.999 93l4 22c4 20.667 5 42 3 64s-9 42.333 -21 61s-30 34 -54 46s-56 18 -96 18h-226c-7.33301 0 -10.666 4 -9.99902 12l6 33c0.666992 8 5.33398 12 14.001 12h226c40.667 0 75 5.16699 103 15.5
s51.167 23.333 69.5 39s32.166 32.334 41.499 50.001s15.333 34.167 18 49.5l2 12c6 32.667 4.66699 59.667 -4 81s-23.667 38.166 -45 50.499s-48.5 20.833 -81.5 25.5s-70.833 7 -113.5 7c-30.667 0 -62.334 -1.5 -95.001 -4.5s-64 -6.5 -94 -10.5
c-8 -1.33301 -11.667 2 -11 10l5 34c0.666992 7.33301 5 12 13 14c27.333 3.33301 57.5 6.5 90.5 9.5s66.833 4.5 101.5 4.5c52 0 98.167 -3.5 138.5 -10.5s73.166 -18.667 98.499 -35s43.166 -38.333 53.499 -66s11.5 -62.167 3.5 -103.5l-2 -14
c-4 -20.667 -10.833 -40.834 -20.5 -60.501s-22.667 -37.834 -39 -54.501s-36 -31.334 -59 -44.001s-49.833 -22 -80.5 -28c30 -8 54.167 -20 72.5 -36s31.833 -34.167 40.5 -54.5s13.5 -41.666 14.5 -63.999s-0.5 -43.833 -4.5 -64.5l-4 -24
c-9.33301 -48.667 -24.333 -89.167 -45 -121.5s-47 -58 -79 -77s-69.333 -32.333 -112 -40s-90 -11.5 -142 -11.5z" />
    <glyph glyph-name="acute" unicode="&#xb4;" 
d="M471 1260c-8 0 -9.33301 3 -4 9l238 238c5.33301 6 12 9 20 9h78c7.33301 0 8.33301 -2.66699 3 -8l-256 -240c-6 -5.33301 -13 -8 -21 -8h-58z" />
    <glyph glyph-name="mu" unicode="&#xb5;" horiz-adv-x="1246" 
d="M38 -389c-7.33301 0 -10.666 4.00195 -9.99902 12.002l267 1436c0.666992 8 5.33398 12 14.001 12h38c7.33301 0 10.666 -4 9.99902 -12l-127 -682c-14 -76 -15.833 -136.333 -5.5 -181s30.166 -78.5 59.499 -101.5s66.333 -37.667 111 -44s94.334 -9.5 149.001 -9.5
c26.667 0 54.5 1 83.5 3s57.667 4.66699 86 8s55.833 7.16602 82.5 11.499s50.667 9.16602 72 14.499l182 981c0.666992 8 5.33398 12 14.001 12h39c7.33301 0 10.666 -4 9.99902 -12l-189 -1016c-0.666992 -8 -5.33398 -13 -14.001 -15c-48 -12 -104.167 -23 -168.5 -33
s-133.5 -15 -207.5 -15c-104.667 0 -186.167 12.167 -244.5 36.5s-93.166 64.5 -104.499 120.5l-95 -514c-0.666992 -8 -5.33398 -12 -14.001 -12h-38z" />
    <glyph glyph-name="paragraph" unicode="&#xb6;" horiz-adv-x="986" 
d="M353 -451c-7.33301 0 -10.6699 4.00293 -10.0029 12.0029l199 1072c-4 0 -13.167 -0.166992 -27.5 -0.5s-30.666 -0.833008 -48.999 -1.5s-37.166 -1.16699 -56.499 -1.5s-35.333 -0.5 -48 -0.5c-52 0 -94.833 4.66699 -128.5 14s-58.5 28.666 -74.5 57.999
s-23.667 71.166 -23 125.499s9.33398 126.166 26.001 215.499l6 31c11.333 60 23.333 111.5 36 154.5s26.834 79.333 42.501 109s33.334 53.667 53.001 72s42.167 32.333 67.5 42s54 16.167 86 19.5s68 5 108 5h191c7.33301 0 10.666 -4 9.99902 -12l-354 -1902
c-0.666992 -8 -5.33398 -12 -14.001 -12h-40zM510.996 -450.997c-7.33301 0 -10.666 4 -9.99902 12l354 1902c0.666992 8 5.33398 12 14.001 12h39c7.33301 0 10.666 -4 9.99902 -12l-354 -1902c-0.666992 -8 -5.33398 -12 -14.001 -12h-39z" />
    <glyph glyph-name="periodcentered" unicode="&#xb7;" horiz-adv-x="434" 
d="M158 450c-7.33301 0 -10.666 4 -9.99902 12l35 181c0.666992 8 5.33398 13 14.001 15l52 14c7.33301 2 10.666 -1 9.99902 -9l-37 -201c-0.666992 -8 -5.33398 -12 -14.001 -12h-50z" />
    <glyph glyph-name="cedilla" unicode="&#xb8;" 
d="M217 -389c-8.66699 0 -10.334 3.33301 -5.00098 10l187 267c4 6.66699 10.333 10 19 10h53c8.66699 0 10.334 -3.33301 5.00098 -10l-186 -267c-4 -6.66699 -10.333 -10 -19 -10h-54z" />
    <glyph glyph-name="onesuperior" unicode="&#xb9;" horiz-adv-x="484" 
d="M195 1409c-8 -2 -11.999 1.33301 -11.999 10l1 33c0 7.33301 4 12 12 14l210 27c3.33301 0.666992 7.33301 1.16699 12 1.5s8.66699 0.5 12 0.5h36c7.33301 0 10.666 -4 9.99902 -12l-162 -873c-0.666992 -8 -5.33398 -12 -14.001 -12h-36
c-7.33301 0 -10.666 4 -9.99902 12l154 828z" />
    <glyph glyph-name="ordmasculine" unicode="&#xba;" horiz-adv-x="954" 
d="M625 1440c-48 0 -89.334 -6.16406 -124.001 -18.4971s-64.334 -31.5 -89.001 -57.5s-45 -58.833 -61 -98.5s-29 -86.834 -39 -141.501l-8 -47c-10 -54.667 -14.667 -101.834 -14 -141.501s8.33398 -72.334 23.001 -98.001s37 -44.667 67 -57s69.667 -18.5 119 -18.5
c48 0 89.5 6 124.5 18s64.667 30.833 89 56.5s44.5 58.5 60.5 98.5s29 88 39 144l8 45c10 54 14.833 100.833 14.5 140.5s-7.83301 72.5 -22.5 98.5s-37.167 45.333 -67.5 58s-70.166 19 -119.499 19zM488.999 707.003c-56 0 -102.669 7 -140.002 21
s-65.666 35.667 -84.999 65s-30.666 66.833 -33.999 112.5s1 100.167 13 163.5l11 61c12 63.333 28 118 48 164s45.333 83.833 76 113.5s67.167 51.667 109.5 66s91.5 21.5 147.5 21.5s102.5 -7.16699 139.5 -21.5s65.333 -36.333 85 -66s31.167 -67.5 34.5 -113.5
s-1 -100.667 -13 -164l-11 -61c-12 -63.333 -28 -117.833 -48 -163.5s-45.333 -83.167 -76 -112.5s-67.167 -51 -109.5 -65s-91.5 -21 -147.5 -21zM155.997 545.003c-7.33301 0 -10.666 4 -9.99902 12l7 37c0.666992 8 5.33398 12 14.001 12h607
c7.33301 0 10.666 -4 9.99902 -12l-7 -37c-0.666992 -8 -5.33398 -12 -14.001 -12h-607z" />
    <glyph glyph-name="guillemotright" unicode="&#xbb;" horiz-adv-x="1076" 
d="M276 1010c8 0 14.667 -3 20 -9l299 -372c5.33301 -6 5 -11.667 -1 -17l-441 -373c-6 -5.33301 -13 -8 -21 -8h-67c-7.33301 0 -8.33301 2.66699 -3 8l454 387l-301 375c-6 6 -4.66699 9 4 9h57zM686 1010c8 0 14.667 -3 20 -9l299 -372c5.33301 -6 5 -11.667 -1 -17
l-441 -373c-6 -5.33301 -13 -8 -21 -8h-67c-7.33301 0 -8.33301 2.66699 -3 8l454 387l-301 375c-6 6 -4.66699 9 4 9h57z" />
    <glyph glyph-name="onequarter" unicode="&#xbc;" horiz-adv-x="1472" 
d="M1106 0c-7.33301 0 -10.6641 4 -9.99707 12l44 236h-451c-7.33301 0 -10.666 4 -9.99902 12l16 84c0.666992 8 4 15 10 21l473 523c5.33301 6 12 9 20 9h111c7.33301 0 10.666 -4 9.99902 -12l-107 -580h101c7.33301 0 10.666 -4 9.99902 -12l-7 -33
c-0.666992 -8 -5.33398 -12 -14.001 -12h-101l-44 -236c-0.666992 -8 -5.33398 -12 -14.001 -12h-37zM748.002 305h403l98 531h-43l-452 -496zM71.002 0c-8.66699 0 -10 3 -4 9l1168 1457c5.33301 6 12 9 20 9h52c8.66699 0 10 -3 4 -9l-1169 -1457
c-5.33301 -6 -12 -9 -20 -9h-51zM229.002 1409c-8 -2 -11.999 1.33301 -11.999 10v33c0 7.33301 4 12 12 14l211 27c3.33301 0.666992 7.33301 1.16699 12 1.5s8.66699 0.5 12 0.5h36c7.33301 0 10.666 -4 9.99902 -12l-162 -873c-0.666992 -8 -5.33398 -12 -14.001 -12h-36
c-7.33301 0 -10.666 4 -9.99902 12l154 828z" />
    <glyph glyph-name="onehalf" unicode="&#xbd;" horiz-adv-x="1564" 
d="M804 0c-7.33301 0 -10.6621 4 -9.99512 12l7 35c7.33301 39.333 17 74.333 29 105s28.167 59.167 48.5 85.5s45.333 51.833 75 76.5s66.167 51 109.5 79l168 109l70 45.5c21.333 14.333 39.666 29.666 54.999 45.999s27.333 34.833 36 55.5s13 45.334 13 74.001
c0 22 -4 40.5 -12 55.5s-21 27 -39 36s-41.833 15.5 -71.5 19.5s-66.167 6 -109.5 6c-26 0 -55.167 -1.16699 -87.5 -3.5s-64.5 -6.83301 -96.5 -13.5c-8 -0.666992 -12 2.66602 -12 9.99902v34c0 8.66699 4 13.334 12 14.001c15.333 2.66699 31.666 5 48.999 7
s34.666 3.66699 51.999 5s34.166 2.33301 50.499 3s31.166 1 44.499 1c50.667 0 94.167 -2.83301 130.5 -8.5s65.833 -15 88.5 -28s39.334 -29.833 50.001 -50.5s16 -45.667 16 -75c0 -34 -4.33301 -63.5 -13 -88.5s-21.5 -47.667 -38.5 -68s-38.5 -39.833 -64.5 -58.5
s-56 -39 -90 -61l-148 -94c-44 -28 -80.5 -53.333 -109.5 -76s-52.667 -45.5 -71 -68.5s-32.666 -47.5 -42.999 -73.5s-18.5 -56 -24.5 -90h461c7.33301 0 10.666 -4 9.99902 -12l-7 -33c-0.666992 -8 -5.33398 -12 -14.001 -12h-514zM71.0039 0c-8.66699 0 -10 3 -4 9
l1168 1457c5.33301 6 12 9 20 9h52c8.66699 0 10 -3 4 -9l-1169 -1457c-5.33301 -6 -12 -9 -20 -9h-51zM229.004 1409c-8 -2 -11.999 1.33301 -11.999 10v33c0 7.33301 4 12 12 14l211 27c3.33301 0.666992 7.33301 1.16699 12 1.5s8.66699 0.5 12 0.5h36
c7.33301 0 10.666 -4 9.99902 -12l-162 -873c-0.666992 -8 -5.33398 -12 -14.001 -12h-36c-7.33301 0 -10.666 4 -9.99902 12l154 828z" />
    <glyph glyph-name="threequarters" unicode="&#xbe;" horiz-adv-x="1711" 
d="M939 248c-7.33301 0 -10.6641 4 -9.99707 12l16 84c0.666992 8 4 15 10 21l473 523c5.33301 6 12 9 20 9h111c7.33301 0 10.666 -4 9.99902 -12l-107 -580h100c7.33301 0 10.666 -4 9.99902 -12l-7 -33c-0.666992 -8 -5.33398 -12 -14.001 -12h-100l-44 -236
c-0.666992 -8 -5.33398 -12 -14.001 -12h-38c-7.33301 0 -10.666 4 -9.99902 12l44 236h-450zM997.002 305h403l98 531h-43l-452 -496zM309.002 0c-8.66699 0 -10 3 -4 9l1168 1457c5.33301 6 12 9 20 9h52c8.66699 0 10 -3 4 -9l-1168 -1457c-5.33301 -6 -12 -9 -20 -9h-52
zM314.002 586c-34 0 -67.4971 1.50195 -100.497 4.50195s-62.167 6.83301 -87.5 11.5c-8 0.666992 -11 5.33398 -9 14.001l7 34c2 7.33301 7 10.666 15 9.99902c28 -5.33301 58.167 -9.16602 90.5 -11.499s63.5 -3.5 93.5 -3.5c46.667 0 87.834 3.16699 123.501 9.5
s66.167 17.166 91.5 32.499s45.666 35.333 60.999 60s26.666 55.667 33.999 93l4 22c4 20.667 5 42 3 64s-9 42.333 -21 61s-30 34 -54 46s-56 18 -96 18h-225c-7.33301 0 -10.666 4 -9.99902 12l6 33c0.666992 8 5.33398 12 14.001 12h225c40.667 0 75 5.16699 103 15.5
s51.167 23.333 69.5 39s32.166 32.334 41.499 50.001s15.333 34.167 18 49.5l2 12c6 32.667 4.66699 59.667 -4 81s-23.667 38.166 -45 50.499s-48.333 20.833 -81 25.5s-70.334 7 -113.001 7c-31.333 0 -63.333 -1.5 -96 -4.5s-63.667 -6.5 -93 -10.5
c-8 -1.33301 -11.667 2 -11 10l5 34c0.666992 7.33301 5 12 13 14c27.333 3.33301 57.5 6.5 90.5 9.5s66.833 4.5 101.5 4.5c52 0 98 -3.5 138 -10.5s72.833 -18.667 98.5 -35s43.5 -38.333 53.5 -66s11 -62.167 3 -103.5l-2 -14c-4 -20.667 -10.833 -40.834 -20.5 -60.501
s-22.667 -37.834 -39 -54.501s-36 -31.334 -59 -44.001s-49.5 -22 -79.5 -28c30 -8 54 -20 72 -36s31.333 -34.167 40 -54.5s13.5 -41.666 14.5 -63.999s-0.5 -43.833 -4.5 -64.5l-4 -24c-9.33301 -48.667 -24.333 -89.167 -45 -121.5s-46.834 -58 -78.501 -77
s-68.834 -32.333 -111.501 -40s-90 -11.5 -142 -11.5z" />
    <glyph glyph-name="questiondown" unicode="&#xbf;" horiz-adv-x="813" 
d="M530 686c0.666992 8 5.33496 11.9971 14.002 11.9971h38c7.33301 0 10.666 -4 9.99902 -12l-21 -111c-8 -40.667 -15.833 -75 -23.5 -103s-19 -54.333 -34 -79s-35.5 -50.167 -61.5 -76.5s-60.667 -58.166 -104 -95.499l-66 -57l-101.5 -91
c-29.667 -27.333 -55.167 -53.666 -76.5 -78.999s-38.833 -51 -52.5 -77s-23.5 -54.333 -29.5 -85c-6.66699 -36 -5.5 -66.5 3.5 -91.5s25.167 -45.167 48.5 -60.5s53.833 -26.333 91.5 -33s82.167 -10 133.5 -10c36.667 0 74.334 1.16699 113.001 3.5
s82.334 6.83301 131.001 13.5c8 2 12.333 -1.33301 13 -10l2 -36c0.666992 -8.66699 -3 -13.334 -11 -14.001c-20 -3.33301 -41.167 -6.16602 -63.5 -8.49902s-44.833 -4.16602 -67.5 -5.49902s-44.834 -2.33301 -66.501 -3s-41.834 -1 -60.501 -1
c-57.333 0 -108.333 3.66699 -153 11s-81.5 20.833 -110.5 40.5s-49.333 46.334 -61 80.001s-12.834 76.5 -3.50098 128.5c6 31.333 15 60.5 27 87.5s29 54.5 51 82.5s49.333 57.667 82 89s72.667 67.333 120 108l74 63c40.667 34.667 72.5 64 95.5 88
s40.833 46.833 53.5 68.5s22 44.167 28 67.5s12 51.666 18 84.999zM645.001 1071c7.33301 0 10.666 -4 9.99902 -12l-35 -181c-0.666992 -8 -5.33398 -13 -14.001 -15l-52 -14c-7.33301 -2 -10.666 1 -9.99902 9l37 201c0.666992 8 5.33398 12 14.001 12h50z" />
    <glyph glyph-name="Agrave" unicode="&#xc0;" horiz-adv-x="1254" 
d="M-67 0c-8.66699 0 -10.668 3.33301 -6.00098 10l814 1455c4.66699 6.66699 10.667 10 18 10h64c8.66699 0 13.334 -4 14.001 -12l278 -1451c0.666992 -8 -2.66602 -12 -9.99902 -12h-39c-8.66699 0 -13.334 4 -14.001 12l-89 457h-711l-255 -459
c-4.66699 -6.66699 -10.667 -10 -18 -10h-46zM778.999 1413l-493 -883h665zM891.999 1608c-3.33301 0 -5.83301 0.5 -7.5 1.5s-4.16699 2.83301 -7.5 5.5l-200 178c-2 2 -2.66699 4 -2 6s3 3 7 3h86c6 0 11.333 -2.33301 16 -7l170 -177
c6.66699 -6.66699 5.66699 -10 -3 -10h-59z" />
    <glyph glyph-name="Aacute" unicode="&#xc1;" horiz-adv-x="1254" 
d="M-67 0c-8.66699 0 -10.668 3.33301 -6.00098 10l814 1455c4.66699 6.66699 10.667 10 18 10h64c8.66699 0 13.334 -4 14.001 -12l278 -1451c0.666992 -8 -2.66602 -12 -9.99902 -12h-39c-8.66699 0 -13.334 4 -14.001 12l-89 457h-711l-255 -459
c-4.66699 -6.66699 -10.667 -10 -18 -10h-46zM778.999 1413l-493 -883h665zM688.999 1608c-8 0 -9 2.33301 -3 7l226 180c5.33301 4.66699 12.333 7 21 7h92c8 0 8.66699 -2.33301 2 -7l-255 -180c-6.66699 -4.66699 -14 -7 -22 -7h-61z" />
    <glyph glyph-name="Acircumflex" unicode="&#xc2;" horiz-adv-x="1254" 
d="M-67 0c-8.66699 0 -10.668 3.33301 -6.00098 10l814 1455c4.66699 6.66699 10.667 10 18 10h64c8.66699 0 13.334 -4 14.001 -12l278 -1451c0.666992 -8 -2.66602 -12 -9.99902 -12h-39c-8.66699 0 -13.334 4 -14.001 12l-89 457h-711l-255 -459
c-4.66699 -6.66699 -10.667 -10 -18 -10h-46zM778.999 1413l-493 -883h665zM1076 1617c4.66699 -6 3.33301 -9 -4 -9h-54c-8 0 -14.667 3 -20 9l-131 131h-21l-183 -133c-5.33301 -4.66699 -12.666 -7 -21.999 -7h-73c-8.66699 0 -9.33398 2.33301 -2.00098 7l252 180
c6.66699 4.66699 14 7 22 7h42c8 0 14.667 -3 20 -9z" />
    <glyph glyph-name="Atilde" unicode="&#xc3;" horiz-adv-x="1254" 
d="M-67 0c-8.66699 0 -10.668 3.33301 -6.00098 10l814 1455c4.66699 6.66699 10.667 10 18 10h64c8.66699 0 13.334 -4 14.001 -12l278 -1451c0.666992 -8 -2.66602 -12 -9.99902 -12h-39c-8.66699 0 -13.334 4 -14.001 12l-89 457h-711l-255 -459
c-4.66699 -6.66699 -10.667 -10 -18 -10h-46zM778.999 1413l-493 -883h665zM514.999 1608c-8.66699 0 -12.002 3.99902 -10.002 11.999c6.66699 44.667 17.167 80.334 31.5 107.001s30.166 46.667 47.499 60s34.833 22 52.5 26s33.5 6 47.5 6c18.667 0 35.167 -2 49.5 -6
s27.5 -9.5 39.5 -16.5s23.667 -15.5 35 -25.5s23.333 -21.333 36 -34c16.667 -16.667 30.667 -30 42 -40s21.666 -17.667 30.999 -23s18.333 -8.83301 27 -10.5s19 -2.5 31 -2.5c14.667 0 28.5 1.83301 41.5 5.5s24.833 10.667 35.5 21s20 24.666 28 42.999
s14.333 42.166 19 71.499c2 8 6.66699 12 14 12h33c8.66699 0 12 -4 10 -12c-7.33301 -45.333 -18.333 -81.166 -33 -107.499s-30.667 -46.333 -48 -60s-35.166 -22.334 -53.499 -26.001s-34.833 -5.5 -49.5 -5.5c-18 0 -34 1.83301 -48 5.5s-26.833 8.83398 -38.5 15.501
s-23 15 -34 25s-22.5 21.667 -34.5 35c-15.333 16 -28.666 29.167 -39.999 39.5s-21.666 18.166 -30.999 23.499s-18.666 9 -27.999 11s-20 3 -32 3c-14.667 0 -28.5 -1.83301 -41.5 -5.5s-24.833 -10.667 -35.5 -21s-20 -24.666 -28 -42.999s-14.333 -42.166 -19 -71.499
c-2 -8 -6.66699 -12 -14 -12h-33z" />
    <glyph glyph-name="Adieresis" unicode="&#xc4;" horiz-adv-x="1254" 
d="M-67 0c-8.66699 0 -10.668 3.33301 -6.00098 10l814 1455c4.66699 6.66699 10.667 10 18 10h64c8.66699 0 13.334 -4 14.001 -12l278 -1451c0.666992 -8 -2.66602 -12 -9.99902 -12h-39c-8.66699 0 -13.334 4 -14.001 12l-89 457h-711l-255 -459
c-4.66699 -6.66699 -10.667 -10 -18 -10h-46zM778.999 1413l-493 -883h665zM667.999 1608c-7.33301 0 -10.666 4 -9.99902 12l35 191c0.666992 8 5.33398 13 14.001 15l52 14c7.33301 2 10.666 -1 9.99902 -9l-39 -211c-0.666992 -8 -5.33398 -12 -14.001 -12h-48z
M923.999 1608c-7.33301 0 -10.666 4 -9.99902 12l35 191c0.666992 8 5.33398 13 14.001 15l52 14c7.33301 2 10.666 -1 9.99902 -9l-39 -211c-0.666992 -8 -5.33398 -12 -14.001 -12h-48z" />
    <glyph glyph-name="Aring" unicode="&#xc5;" horiz-adv-x="1246" 
d="M-71 0c-8.66699 0 -10.668 3.33398 -6.00098 10.001l795 1421c-32.667 9.33301 -55.5 25.833 -68.5 49.5s-16.5 53.5 -10.5 89.5l1 6c3.33301 20 10 38.333 20 55s23.167 31.167 39.5 43.5s35.333 22 57 29s45.834 10.5 72.501 10.5c52.667 0 90.667 -13.333 114 -40
s31.333 -63 24 -109c-5.33301 -32.667 -19 -60.834 -41 -84.501s-51 -40.167 -87 -49.5l272 -1419c0.666992 -8 -2.66602 -12 -9.99902 -12h-39c-8.66699 0 -13.334 4 -14.001 12l-89 457h-711l-255 -459c-4.66699 -6.66699 -10.667 -10 -18 -10h-46zM774.999 1413
l-493 -883h665zM818.999 1659c-34.667 0 -62.5 -8.83301 -83.5 -26.5s-32.833 -37.5 -35.5 -59.5l-1 -9c-1.33301 -11.333 -0.833008 -22 1.5 -32s7 -19 14 -27s16.333 -14.333 28 -19s26.167 -7 43.5 -7c35.333 0 63.5 9 84.5 27s33.167 39.333 36.5 64
c2.66699 24 -2.33301 44.833 -15 62.5s-37 26.5 -73 26.5z" />
    <glyph glyph-name="AE" unicode="&#xc6;" horiz-adv-x="1822" 
d="M769 0c-7.33301 0 -10.6611 4 -9.99414 12l85 457h-555l-328 -459c-4 -6.66699 -10.333 -10 -19 -10h-44c-8 -0 -9.66699 3.33301 -5 10l1036 1455c4 6.66699 10.333 10 19 10h887c7.33301 0 10.666 -4 9.99902 -12l-7 -38c-0.666992 -8 -5.33398 -12 -14.001 -12h-744
l-104 -563h672c7.33301 0 10.666 -4 9.99902 -12l-8 -38c-0.666992 -8 -5.33398 -12 -14.001 -12h-672l-135 -727h744c7.33301 0 10.666 -4 9.99902 -12l-7 -37c-0.666992 -8 -5.33398 -12 -14.001 -12h-793zM964.005 1413l-632 -883h523l163 883h-54z" />
    <glyph glyph-name="Ccedilla" unicode="&#xc7;" horiz-adv-x="1151" 
d="M625 -20c-92.667 0 -173.171 11.3311 -241.504 33.998s-122.5 60.834 -162.5 114.501s-65 124.667 -75 213s-2.66699 198.5 22 330.5l22 131c24.667 131.333 58.334 241.333 101.001 330s94 159.834 154 213.501s128.5 91.834 205.5 114.501s161.833 34 254.5 34
c58 0 113.667 -2.5 167 -7.5s98 -11.167 134 -18.5c8.66699 -2 11 -6.66699 7 -14l-14 -35c-3.33301 -6.66699 -9 -9.66699 -17 -9c-20 4 -41.833 7.5 -65.5 10.5s-48 5.5 -73 7.5s-50 3.33301 -75 4s-49.5 1 -73.5 1c-82 0 -157.167 -9.83301 -225.5 -29.5
s-129.166 -53.167 -182.499 -100.5s-99.166 -111 -137.499 -191s-68.833 -180 -91.5 -300l-27 -151c-22.667 -120.667 -29.667 -220.834 -21 -300.501s30.834 -143.334 66.501 -191.001s84 -81.167 145 -100.5s132.833 -29 215.5 -29c64 0 121 2.5 171 7.5
s94.667 11.5 134 19.5c8 0.666992 12 -2.66602 12 -9.99902l2 -34c0 -8 -4 -13 -12 -15c-40 -9.33301 -88 -16.5 -144 -21.5s-114.333 -7.5 -175 -7.5zM365.996 -389.002c-8.66699 0 -10.334 3.33301 -5.00098 10l187 267c4 6.66699 10.333 10 19 10h53
c8.66699 0 10.334 -3.33301 5.00098 -10l-186 -267c-4 -6.66699 -10.333 -10 -19 -10h-54z" />
    <glyph glyph-name="Egrave" unicode="&#xc8;" horiz-adv-x="1182" 
d="M125 0c-7.33301 0 -10.6631 4 -9.99609 12l269 1451c0.666992 8 5.33398 12 14.001 12h801c7.33301 0 10.666 -4 9.99902 -12l-6 -38c-2 -8 -6.66699 -12 -14 -12h-752l-105 -563h668c7.33301 0 10.666 -4 9.99902 -12l-8 -38c-0.666992 -8 -5.33398 -12 -14.001 -12
h-668l-133 -727h752c7.33301 0 10.666 -4 9.99902 -12l-8 -37c-0.666992 -8 -5.33398 -12 -14.001 -12h-802zM853.003 1608c-3.33301 0 -5.83301 0.5 -7.5 1.5s-4.16699 2.83301 -7.5 5.5l-200 178c-2 2 -2.66699 4 -2 6s3 3 7 3h86c6 0 11.333 -2.33301 16 -7l170 -177
c6.66699 -6.66699 5.66699 -10 -3 -10h-59z" />
    <glyph glyph-name="Eacute" unicode="&#xc9;" horiz-adv-x="1182" 
d="M125 0c-7.33301 0 -10.6631 4 -9.99609 12l269 1451c0.666992 8 5.33398 12 14.001 12h801c7.33301 0 10.666 -4 9.99902 -12l-6 -38c-2 -8 -6.66699 -12 -14 -12h-752l-105 -563h668c7.33301 0 10.666 -4 9.99902 -12l-8 -38c-0.666992 -8 -5.33398 -12 -14.001 -12
h-668l-133 -727h752c7.33301 0 10.666 -4 9.99902 -12l-8 -37c-0.666992 -8 -5.33398 -12 -14.001 -12h-802zM711.003 1608c-8 0 -9 2.33301 -3 7l226 180c5.33301 4.66699 12.333 7 21 7h92c8 0 8.66699 -2.33301 2 -7l-255 -180c-6.66699 -4.66699 -14 -7 -22 -7h-61z" />
    <glyph glyph-name="Ecircumflex" unicode="&#xca;" horiz-adv-x="1182" 
d="M125 0c-7.33301 0 -10.6631 4 -9.99609 12l269 1451c0.666992 8 5.33398 12 14.001 12h801c7.33301 0 10.666 -4 9.99902 -12l-6 -38c-2 -8 -6.66699 -12 -14 -12h-752l-105 -563h668c7.33301 0 10.666 -4 9.99902 -12l-8 -38c-0.666992 -8 -5.33398 -12 -14.001 -12
h-668l-133 -727h752c7.33301 0 10.666 -4 9.99902 -12l-8 -37c-0.666992 -8 -5.33398 -12 -14.001 -12h-802zM1057 1617c4.66699 -6 3.33301 -9 -4 -9h-54c-8 0 -14.667 3 -20 9l-131 131h-21l-183 -133c-5.33301 -4.66699 -12.666 -7 -21.999 -7h-73
c-8.66699 0 -9.33398 2.33301 -2.00098 7l252 180c6.66699 4.66699 14 7 22 7h42c8 0 14.667 -3 20 -9z" />
    <glyph glyph-name="Edieresis" unicode="&#xcb;" horiz-adv-x="1182" 
d="M125 0c-7.33301 0 -10.6631 4 -9.99609 12l269 1451c0.666992 8 5.33398 12 14.001 12h801c7.33301 0 10.666 -4 9.99902 -12l-6 -38c-2 -8 -6.66699 -12 -14 -12h-752l-105 -563h668c7.33301 0 10.666 -4 9.99902 -12l-8 -38c-0.666992 -8 -5.33398 -12 -14.001 -12
h-668l-133 -727h752c7.33301 0 10.666 -4 9.99902 -12l-8 -37c-0.666992 -8 -5.33398 -12 -14.001 -12h-802zM649.003 1608c-7.33301 0 -10.666 4 -9.99902 12l35 191c0.666992 8 5.33398 13 14.001 15l52 14c7.33301 2 10.666 -1 9.99902 -9l-39 -211
c-0.666992 -8 -5.33398 -12 -14.001 -12h-48zM905.003 1608c-7.33301 0 -10.666 4 -9.99902 12l35 191c0.666992 8 5.33398 13 14.001 15l52 14c7.33301 2 10.666 -1 9.99902 -9l-39 -211c-0.666992 -8 -5.33398 -12 -14.001 -12h-48z" />
    <glyph glyph-name="Igrave" unicode="&#xcc;" horiz-adv-x="521" 
d="M125 0c-7.33301 0 -10.666 4 -9.99902 12l269 1451c0.666992 8 5.33398 12 14.001 12h37c7.33301 0 10.666 -4 9.99902 -12l-268 -1451c-0.666992 -8 -5.33398 -12 -14.001 -12h-38zM535 1608c-3.33301 0 -5.83301 0.5 -7.5 1.5s-4.16699 2.83301 -7.5 5.5l-200 178
c-2 2 -2.66699 4 -2 6s3 3 7 3h86c6 0 11.333 -2.33301 16 -7l170 -177c6.66699 -6.66699 5.66699 -10 -3 -10h-59z" />
    <glyph glyph-name="Iacute" unicode="&#xcd;" horiz-adv-x="521" 
d="M125 0c-7.33301 0 -10.666 4 -9.99902 12l269 1451c0.666992 8 5.33398 12 14.001 12h37c7.33301 0 10.666 -4 9.99902 -12l-268 -1451c-0.666992 -8 -5.33398 -12 -14.001 -12h-38zM290 1608c-8 0 -9 2.33301 -3 7l226 180c5.33301 4.66699 12.333 7 21 7h92
c8 0 8.66699 -2.33301 2 -7l-255 -180c-6.66699 -4.66699 -14 -7 -22 -7h-61z" />
    <glyph glyph-name="Icircumflex" unicode="&#xce;" horiz-adv-x="521" 
d="M125 0c-7.33301 0 -10.666 4 -9.99902 12l269 1451c0.666992 8 5.33398 12 14.001 12h37c7.33301 0 10.666 -4 9.99902 -12l-268 -1451c-0.666992 -8 -5.33398 -12 -14.001 -12h-38zM708 1617c4.66699 -6 3.33301 -9 -4 -9h-54c-8 0 -14.667 3 -20 9l-131 131h-21
l-183 -133c-5.33301 -4.66699 -12.666 -7 -21.999 -7h-73c-8.66699 0 -9.33398 2.33301 -2.00098 7l252 180c6.66699 4.66699 14 7 22 7h42c8 0 14.667 -3 20 -9z" />
    <glyph glyph-name="Idieresis" unicode="&#xcf;" horiz-adv-x="521" 
d="M125 0c-7.33301 0 -10.666 4 -9.99902 12l269 1451c0.666992 8 5.33398 12 14.001 12h37c7.33301 0 10.666 -4 9.99902 -12l-268 -1451c-0.666992 -8 -5.33398 -12 -14.001 -12h-38zM290 1608c-7.33301 0 -10.666 4 -9.99902 12l35 191c0.666992 8 5.33398 13 14.001 15
l52 14c7.33301 2 10.666 -1 9.99902 -9l-39 -211c-0.666992 -8 -5.33398 -12 -14.001 -12h-48zM546 1608c-7.33301 0 -10.666 4 -9.99902 12l35 191c0.666992 8 5.33398 13 14.001 15l52 14c7.33301 2 10.666 -1 9.99902 -9l-39 -211c-0.666992 -8 -5.33398 -12 -14.001 -12
h-48z" />
    <glyph glyph-name="Eth" unicode="&#xd0;" horiz-adv-x="1408" 
d="M482 -16c-26.667 0 -54.835 0.333984 -84.502 1.00098s-59.834 1.5 -90.501 2.5s-61.334 2.5 -92.001 4.5s-60 4.33301 -88 7c-7.33301 0.666992 -10.666 5 -9.99902 13l140 758h-186c-8 0 -11 4 -9 12l7 37c2 8 7 12 15 12h185l117 632
c0.666992 8 5.33398 12.333 14.001 13c30 2 61.667 3.5 95 4.5s66 1.83301 98 2.5s62.167 1.16699 90.5 1.5s52.5 0.5 72.5 0.5c60.667 0 118.334 -3.16699 173.001 -9.5s104.5 -18.333 149.5 -36s84.167 -42.334 117.5 -74.001s59.166 -73 77.499 -124
s28.333 -113.167 30 -186.5s-6.5 -160 -24.5 -260l-21 -113c-18.667 -100 -41.5 -186.833 -68.5 -260.5s-58 -136.334 -93 -188.001s-74 -93.667 -117 -126s-90.167 -57.666 -141.5 -75.999s-106.666 -30.833 -165.999 -37.5s-122.666 -10 -189.999 -10zM743.999 1423
c-19.333 0 -42.6719 -0.166016 -70.0049 -0.499023s-55.166 -0.833008 -83.499 -1.5s-56 -1.5 -83 -2.5s-49.833 -2.16699 -68.5 -3.5l-109 -584h289c8 0 11 -4 9 -12l-7 -37c-2 -8 -7 -12 -15 -12h-287l-132 -713c22.667 -2 47 -3.83301 73 -5.5s52.167 -3 78.5 -4
s52.5 -1.66699 78.5 -2s50.333 -0.5 73 -0.5c64 0 123.667 3.33301 179 10s106.333 18.667 153 36s89.334 41.166 128.001 71.499s73.334 68.833 104.001 115.5s57.667 102.834 81 168.501s43.333 142.834 60 231.501l22 119c16.667 88 25.334 164.5 26.001 229.5
s-5.66602 120.833 -18.999 167.5s-33.833 84.667 -61.5 114s-61.667 52.666 -102 69.999s-87 29.166 -140 35.499s-111.833 9.5 -176.5 9.5z" />
    <glyph glyph-name="Ntilde" unicode="&#xd1;" horiz-adv-x="1412" 
d="M125 0c-7.33301 0 -10.665 4 -9.99805 12l269 1451c0.666992 8 5.33398 12 14.001 12h49c7.33301 0 13 -3.66699 17 -11l505 -1241l38.5 -91c9 -21.333 13.833 -32 14.5 -32l253 1363c0.666992 8 5.33398 12 14.001 12h37c7.33301 0 10.666 -4 9.99902 -12l-268 -1451
c-0.666992 -8 -5.33398 -12 -14.001 -12h-50c-8 0 -13.667 3.66699 -17 11l-501 1232l-39 93.5c-10.667 25 -16.334 37.5 -17.001 37.5l-253 -1362c-0.666992 -8 -5.33398 -12 -14.001 -12h-38zM592.001 1608c-8.66699 0 -12.002 3.99902 -10.002 11.999
c6.66699 44.667 17.167 80.334 31.5 107.001s30.166 46.667 47.499 60s34.833 22 52.5 26s33.5 6 47.5 6c18.667 0 35.167 -2 49.5 -6s27.5 -9.5 39.5 -16.5s23.667 -15.5 35 -25.5s23.333 -21.333 36 -34c16.667 -16.667 30.667 -30 42 -40s21.666 -17.667 30.999 -23
s18.333 -8.83301 27 -10.5s19 -2.5 31 -2.5c14.667 0 28.5 1.83301 41.5 5.5s24.833 10.667 35.5 21s20 24.666 28 42.999s14.333 42.166 19 71.499c2 8 6.66699 12 14 12h33c8.66699 0 12 -4 10 -12c-7.33301 -45.333 -18.333 -81.166 -33 -107.499
s-30.667 -46.333 -48 -60s-35.166 -22.334 -53.499 -26.001s-34.833 -5.5 -49.5 -5.5c-18 0 -34 1.83301 -48 5.5s-26.833 8.83398 -38.5 15.501s-23 15 -34 25s-22.5 21.667 -34.5 35c-15.333 16 -28.666 29.167 -39.999 39.5s-21.666 18.166 -30.999 23.499
s-18.666 9 -27.999 11s-20 3 -32 3c-14.667 0 -28.5 -1.83301 -41.5 -5.5s-24.833 -10.667 -35.5 -21s-20 -24.666 -28 -42.999s-14.333 -42.166 -19 -71.499c-2 -8 -6.66699 -12 -14 -12h-33z" />
    <glyph glyph-name="Ograve" unicode="&#xd2;" horiz-adv-x="1431" 
d="M596 -20c-88 0 -163.67 11 -227.003 33s-113.166 59.5 -149.499 112.5s-58.666 124 -66.999 213s-1.16602 200.167 21.501 333.5l22 131c22.667 134.667 54.334 246.5 95.001 335.5s89.667 159.833 147 212.5s122.666 89.834 195.999 111.501s154 32.5 242 32.5
c88.667 0 164.667 -10.833 228 -32.5s113 -58.834 149 -111.501s57.833 -123.5 65.5 -212.5s0.166992 -200.833 -22.5 -335.5l-22 -131c-22 -132.667 -53.167 -243.334 -93.5 -332.001s-89 -159.667 -146 -213s-122.167 -91.166 -195.5 -113.499s-154.333 -33.5 -243 -33.5z
M863.997 1430c-78 0 -148.833 -9.66602 -212.5 -28.999s-120.5 -52.5 -170.5 -99.5s-93 -110.167 -129 -189.5s-65.333 -179 -88 -299l-27 -151c-22 -122 -29.5 -222.667 -22.5 -302s26.833 -142.333 59.5 -189s77.167 -79.334 133.5 -98.001s123.166 -28 200.499 -28
c76 0 145.667 9.83301 209 29.5s120.333 53.167 171 100.5s94.167 110.833 130.5 190.5s65.5 179.167 87.5 298.5l27 149c22 120.667 29.5 220.667 22.5 300s-26.5 142.5 -58.5 189.5s-76.167 80 -132.5 99s-123.166 28.5 -200.499 28.5zM925.997 1608
c-3.33301 0 -5.83301 0.5 -7.5 1.5s-4.16699 2.83301 -7.5 5.5l-200 178c-2 2 -2.66699 4 -2 6s3 3 7 3h86c6 0 11.333 -2.33301 16 -7l170 -177c6.66699 -6.66699 5.66699 -10 -3 -10h-59z" />
    <glyph glyph-name="Oacute" unicode="&#xd3;" horiz-adv-x="1431" 
d="M596 -20c-88 0 -163.67 11 -227.003 33s-113.166 59.5 -149.499 112.5s-58.666 124 -66.999 213s-1.16602 200.167 21.501 333.5l22 131c22.667 134.667 54.334 246.5 95.001 335.5s89.667 159.833 147 212.5s122.666 89.834 195.999 111.501s154 32.5 242 32.5
c88.667 0 164.667 -10.833 228 -32.5s113 -58.834 149 -111.501s57.833 -123.5 65.5 -212.5s0.166992 -200.833 -22.5 -335.5l-22 -131c-22 -132.667 -53.167 -243.334 -93.5 -332.001s-89 -159.667 -146 -213s-122.167 -91.166 -195.5 -113.499s-154.333 -33.5 -243 -33.5z
M863.997 1430c-78 0 -148.833 -9.66602 -212.5 -28.999s-120.5 -52.5 -170.5 -99.5s-93 -110.167 -129 -189.5s-65.333 -179 -88 -299l-27 -151c-22 -122 -29.5 -222.667 -22.5 -302s26.833 -142.333 59.5 -189s77.167 -79.334 133.5 -98.001s123.166 -28 200.499 -28
c76 0 145.667 9.83301 209 29.5s120.333 53.167 171 100.5s94.167 110.833 130.5 190.5s65.5 179.167 87.5 298.5l27 149c22 120.667 29.5 220.667 22.5 300s-26.5 142.5 -58.5 189.5s-76.167 80 -132.5 99s-123.166 28.5 -200.499 28.5zM783.997 1608c-8 0 -9 2.33301 -3 7
l226 180c5.33301 4.66699 12.333 7 21 7h92c8 0 8.66699 -2.33301 2 -7l-255 -180c-6.66699 -4.66699 -14 -7 -22 -7h-61z" />
    <glyph glyph-name="Ocircumflex" unicode="&#xd4;" horiz-adv-x="1431" 
d="M596 -20c-88 0 -163.67 11 -227.003 33s-113.166 59.5 -149.499 112.5s-58.666 124 -66.999 213s-1.16602 200.167 21.501 333.5l22 131c22.667 134.667 54.334 246.5 95.001 335.5s89.667 159.833 147 212.5s122.666 89.834 195.999 111.501s154 32.5 242 32.5
c88.667 0 164.667 -10.833 228 -32.5s113 -58.834 149 -111.501s57.833 -123.5 65.5 -212.5s0.166992 -200.833 -22.5 -335.5l-22 -131c-22 -132.667 -53.167 -243.334 -93.5 -332.001s-89 -159.667 -146 -213s-122.167 -91.166 -195.5 -113.499s-154.333 -33.5 -243 -33.5z
M863.997 1430c-78 0 -148.833 -9.66602 -212.5 -28.999s-120.5 -52.5 -170.5 -99.5s-93 -110.167 -129 -189.5s-65.333 -179 -88 -299l-27 -151c-22 -122 -29.5 -222.667 -22.5 -302s26.833 -142.333 59.5 -189s77.167 -79.334 133.5 -98.001s123.166 -28 200.499 -28
c76 0 145.667 9.83301 209 29.5s120.333 53.167 171 100.5s94.167 110.833 130.5 190.5s65.5 179.167 87.5 298.5l27 149c22 120.667 29.5 220.667 22.5 300s-26.5 142.5 -58.5 189.5s-76.167 80 -132.5 99s-123.166 28.5 -200.499 28.5zM1151 1617
c4.66699 -6 3.33301 -9 -4 -9h-54c-8 0 -14.667 3 -20 9l-131 131h-21l-183 -133c-5.33301 -4.66699 -12.666 -7 -21.999 -7h-73c-8.66699 0 -9.33398 2.33301 -2.00098 7l252 180c6.66699 4.66699 14 7 22 7h42c8 0 14.667 -3 20 -9z" />
    <glyph glyph-name="Otilde" unicode="&#xd5;" horiz-adv-x="1431" 
d="M596 -20c-88 0 -163.67 11 -227.003 33s-113.166 59.5 -149.499 112.5s-58.666 124 -66.999 213s-1.16602 200.167 21.501 333.5l22 131c22.667 134.667 54.334 246.5 95.001 335.5s89.667 159.833 147 212.5s122.666 89.834 195.999 111.501s154 32.5 242 32.5
c88.667 0 164.667 -10.833 228 -32.5s113 -58.834 149 -111.501s57.833 -123.5 65.5 -212.5s0.166992 -200.833 -22.5 -335.5l-22 -131c-22 -132.667 -53.167 -243.334 -93.5 -332.001s-89 -159.667 -146 -213s-122.167 -91.166 -195.5 -113.499s-154.333 -33.5 -243 -33.5z
M863.997 1430c-78 0 -148.833 -9.66602 -212.5 -28.999s-120.5 -52.5 -170.5 -99.5s-93 -110.167 -129 -189.5s-65.333 -179 -88 -299l-27 -151c-22 -122 -29.5 -222.667 -22.5 -302s26.833 -142.333 59.5 -189s77.167 -79.334 133.5 -98.001s123.166 -28 200.499 -28
c76 0 145.667 9.83301 209 29.5s120.333 53.167 171 100.5s94.167 110.833 130.5 190.5s65.5 179.167 87.5 298.5l27 149c22 120.667 29.5 220.667 22.5 300s-26.5 142.5 -58.5 189.5s-76.167 80 -132.5 99s-123.166 28.5 -200.499 28.5zM599.997 1608
c-8.66699 0 -12.002 3.99902 -10.002 11.999c6.66699 44.667 17.167 80.334 31.5 107.001s30.166 46.667 47.499 60s34.833 22 52.5 26s33.5 6 47.5 6c18.667 0 35.167 -2 49.5 -6s27.5 -9.5 39.5 -16.5s23.667 -15.5 35 -25.5s23.333 -21.333 36 -34
c16.667 -16.667 30.667 -30 42 -40s21.666 -17.667 30.999 -23s18.333 -8.83301 27 -10.5s19 -2.5 31 -2.5c14.667 0 28.5 1.83301 41.5 5.5s24.833 10.667 35.5 21s20 24.666 28 42.999s14.333 42.166 19 71.499c2 8 6.66699 12 14 12h33c8.66699 0 12 -4 10 -12
c-7.33301 -45.333 -18.333 -81.166 -33 -107.499s-30.667 -46.333 -48 -60s-35.166 -22.334 -53.499 -26.001s-34.833 -5.5 -49.5 -5.5c-18 0 -34 1.83301 -48 5.5s-26.833 8.83398 -38.5 15.501s-23 15 -34 25s-22.5 21.667 -34.5 35
c-15.333 16 -28.666 29.167 -39.999 39.5s-21.666 18.166 -30.999 23.499s-18.666 9 -27.999 11s-20 3 -32 3c-14.667 0 -28.5 -1.83301 -41.5 -5.5s-24.833 -10.667 -35.5 -21s-20 -24.666 -28 -42.999s-14.333 -42.166 -19 -71.499c-2 -8 -6.66699 -12 -14 -12h-33z" />
    <glyph glyph-name="Odieresis" unicode="&#xd6;" horiz-adv-x="1431" 
d="M596 -20c-88 0 -163.67 11 -227.003 33s-113.166 59.5 -149.499 112.5s-58.666 124 -66.999 213s-1.16602 200.167 21.501 333.5l22 131c22.667 134.667 54.334 246.5 95.001 335.5s89.667 159.833 147 212.5s122.666 89.834 195.999 111.501s154 32.5 242 32.5
c88.667 0 164.667 -10.833 228 -32.5s113 -58.834 149 -111.501s57.833 -123.5 65.5 -212.5s0.166992 -200.833 -22.5 -335.5l-22 -131c-22 -132.667 -53.167 -243.334 -93.5 -332.001s-89 -159.667 -146 -213s-122.167 -91.166 -195.5 -113.499s-154.333 -33.5 -243 -33.5z
M863.997 1430c-78 0 -148.833 -9.66602 -212.5 -28.999s-120.5 -52.5 -170.5 -99.5s-93 -110.167 -129 -189.5s-65.333 -179 -88 -299l-27 -151c-22 -122 -29.5 -222.667 -22.5 -302s26.833 -142.333 59.5 -189s77.167 -79.334 133.5 -98.001s123.166 -28 200.499 -28
c76 0 145.667 9.83301 209 29.5s120.333 53.167 171 100.5s94.167 110.833 130.5 190.5s65.5 179.167 87.5 298.5l27 149c22 120.667 29.5 220.667 22.5 300s-26.5 142.5 -58.5 189.5s-76.167 80 -132.5 99s-123.166 28.5 -200.499 28.5zM742.997 1608
c-7.33301 0 -10.666 4 -9.99902 12l35 191c0.666992 8 5.33398 13 14.001 15l52 14c7.33301 2 10.666 -1 9.99902 -9l-39 -211c-0.666992 -8 -5.33398 -12 -14.001 -12h-48zM998.997 1608c-7.33301 0 -10.666 4 -9.99902 12l35 191c0.666992 8 5.33398 13 14.001 15l52 14
c7.33301 2 10.666 -1 9.99902 -9l-39 -211c-0.666992 -8 -5.33398 -12 -14.001 -12h-48z" />
    <glyph glyph-name="multiply" unicode="&#xd7;" horiz-adv-x="920" 
d="M250 1052c-5.33301 6 -5.00098 11.667 0.999023 17l33 27c6 4.66699 11.667 4.33398 17 -0.999023l198 -244l291 245c6 5.33301 11.667 5 17 -1l21 -25c5.33301 -6 5 -11.667 -1 -17l-292 -245l199 -244c4.66699 -6 4.33398 -11.667 -0.999023 -17l-35 -27
c-6 -5.33301 -11.667 -5 -17 1l-198 243l-291 -244c-6 -4.66699 -11.667 -4.33398 -17 0.999023l-19 25c-5.33301 6 -5 11.667 1 17l291 245z" />
    <glyph glyph-name="Oslash" unicode="&#xd8;" horiz-adv-x="1379" 
d="M174 198c-19.333 54 -29.333 119.665 -30 196.998s9 169.666 29 276.999l24 131c24 131.333 55.833 241.333 95.5 330s86.834 159.834 141.501 213.501s116.834 91.834 186.501 114.501s146.5 34 230.5 34s155.833 -11.167 215.5 -33.5s106.834 -59.5 141.501 -111.5
l105 116c5.33301 6 12 9 20 9h61c7.33301 0 8.66602 -3 3.99902 -9l-159 -177c21.333 -54 32.666 -120.667 33.999 -200s-8 -174.666 -28 -285.999l-24 -131c-24.667 -132 -56.5 -242.167 -95.5 -330.5s-85.667 -159.333 -140 -213s-116 -91.834 -185 -114.501
s-145.833 -34 -230.5 -34c-86.667 0 -160.834 11.833 -222.501 35.5s-109.5 63.834 -143.5 120.501l-114 -127c-5.33301 -6 -12 -9 -20 -9h-61c-8 0 -9.33301 3 -4 9zM1182 812.998c17.333 94 26.1699 175.002 26.5029 243.002s-7.16699 126 -22.5 174l-932 -1039
c29.333 -54 71.666 -91.833 126.999 -113.5s122.333 -32.5 201 -32.5c73.333 0 140.166 9.5 200.499 28.5s114.166 52.167 161.499 99.5s88.5 110.666 123.5 189.999s63.833 179.666 86.5 300.999zM839.004 1430c-73.333 0 -140.333 -9.66699 -201 -29
s-115 -52.5 -163 -99.5s-89.667 -110.167 -125 -189.5s-64 -179 -86 -299l-28 -151c-17.333 -90.667 -26.5 -169 -27.5 -235s5.16699 -122.667 18.5 -170l931 1037c-30 50 -71.833 85.167 -125.5 105.5s-118.167 30.5 -193.5 30.5z" />
    <glyph glyph-name="Ugrave" unicode="&#xd9;" horiz-adv-x="1435" 
d="M590 -20c-80.667 0 -150.333 9.66797 -209 29.001s-105.5 50 -140.5 92s-57.5 95.833 -67.5 161.5s-6.33301 144.834 11 237.501l180 963c0.666992 8 5.33398 12 14.001 12h38c7.33301 0 10.666 -4 9.99902 -12l-176 -945c-15.333 -80 -21.333 -149.833 -18 -209.5
s18.5 -109.334 45.5 -149.001s66.833 -69.334 119.5 -89.001s121 -29.5 205 -29.5c86.667 0 160.667 9.83301 222 29.5s113.166 49.167 155.499 88.5s76.333 89 102 149s46.167 130 61.5 210l176 945c0.666992 8 5.33398 12 14.001 12h35c7.33301 0 10.666 -4 9.99902 -12
l-180 -963c-18.667 -100 -45.167 -183.333 -79.5 -250s-76.666 -120 -126.999 -160s-108.833 -68.333 -175.5 -85s-142 -25 -226 -25zM947.001 1608c-3.33301 0 -5.83301 0.5 -7.5 1.5s-4.16699 2.83301 -7.5 5.5l-200 178c-2 2 -2.66699 4 -2 6s3 3 7 3h86
c6 0 11.333 -2.33301 16 -7l170 -177c6.66699 -6.66699 5.66699 -10 -3 -10h-59z" />
    <glyph glyph-name="Uacute" unicode="&#xda;" horiz-adv-x="1435" 
d="M590 -20c-80.667 0 -150.333 9.66797 -209 29.001s-105.5 50 -140.5 92s-57.5 95.833 -67.5 161.5s-6.33301 144.834 11 237.501l180 963c0.666992 8 5.33398 12 14.001 12h38c7.33301 0 10.666 -4 9.99902 -12l-176 -945c-15.333 -80 -21.333 -149.833 -18 -209.5
s18.5 -109.334 45.5 -149.001s66.833 -69.334 119.5 -89.001s121 -29.5 205 -29.5c86.667 0 160.667 9.83301 222 29.5s113.166 49.167 155.499 88.5s76.333 89 102 149s46.167 130 61.5 210l176 945c0.666992 8 5.33398 12 14.001 12h35c7.33301 0 10.666 -4 9.99902 -12
l-180 -963c-18.667 -100 -45.167 -183.333 -79.5 -250s-76.666 -120 -126.999 -160s-108.833 -68.333 -175.5 -85s-142 -25 -226 -25zM824.001 1608c-8 0 -9 2.33301 -3 7l226 180c5.33301 4.66699 12.333 7 21 7h92c8 0 8.66699 -2.33301 2 -7l-255 -180
c-6.66699 -4.66699 -14 -7 -22 -7h-61z" />
    <glyph glyph-name="Ucircumflex" unicode="&#xdb;" horiz-adv-x="1435" 
d="M590 -20c-80.667 0 -150.333 9.66797 -209 29.001s-105.5 50 -140.5 92s-57.5 95.833 -67.5 161.5s-6.33301 144.834 11 237.501l180 963c0.666992 8 5.33398 12 14.001 12h38c7.33301 0 10.666 -4 9.99902 -12l-176 -945c-15.333 -80 -21.333 -149.833 -18 -209.5
s18.5 -109.334 45.5 -149.001s66.833 -69.334 119.5 -89.001s121 -29.5 205 -29.5c86.667 0 160.667 9.83301 222 29.5s113.166 49.167 155.499 88.5s76.333 89 102 149s46.167 130 61.5 210l176 945c0.666992 8 5.33398 12 14.001 12h35c7.33301 0 10.666 -4 9.99902 -12
l-180 -963c-18.667 -100 -45.167 -183.333 -79.5 -250s-76.666 -120 -126.999 -160s-108.833 -68.333 -175.5 -85s-142 -25 -226 -25zM1151 1617c4.66699 -6 3.33301 -9 -4 -9h-54c-8 0 -14.667 3 -20 9l-131 131h-21l-183 -133c-5.33301 -4.66699 -12.666 -7 -21.999 -7
h-73c-8.66699 0 -9.33398 2.33301 -2.00098 7l252 180c6.66699 4.66699 14 7 22 7h42c8 0 14.667 -3 20 -9z" />
    <glyph glyph-name="Udieresis" unicode="&#xdc;" horiz-adv-x="1435" 
d="M590 -20c-80.667 0 -150.333 9.66797 -209 29.001s-105.5 50 -140.5 92s-57.5 95.833 -67.5 161.5s-6.33301 144.834 11 237.501l180 963c0.666992 8 5.33398 12 14.001 12h38c7.33301 0 10.666 -4 9.99902 -12l-176 -945c-15.333 -80 -21.333 -149.833 -18 -209.5
s18.5 -109.334 45.5 -149.001s66.833 -69.334 119.5 -89.001s121 -29.5 205 -29.5c86.667 0 160.667 9.83301 222 29.5s113.166 49.167 155.499 88.5s76.333 89 102 149s46.167 130 61.5 210l176 945c0.666992 8 5.33398 12 14.001 12h35c7.33301 0 10.666 -4 9.99902 -12
l-180 -963c-18.667 -100 -45.167 -183.333 -79.5 -250s-76.666 -120 -126.999 -160s-108.833 -68.333 -175.5 -85s-142 -25 -226 -25zM743.001 1608c-7.33301 0 -10.666 4 -9.99902 12l35 191c0.666992 8 5.33398 13 14.001 15l52 14c7.33301 2 10.666 -1 9.99902 -9
l-39 -211c-0.666992 -8 -5.33398 -12 -14.001 -12h-48zM999.001 1608c-7.33301 0 -10.666 4 -9.99902 12l35 191c0.666992 8 5.33398 13 14.001 15l52 14c7.33301 2 10.666 -1 9.99902 -9l-39 -211c-0.666992 -8 -5.33398 -12 -14.001 -12h-48z" />
    <glyph glyph-name="Yacute" unicode="&#xdd;" horiz-adv-x="1106" 
d="M412 0c-7.33301 0 -10.667 4 -10 12l94 511l-322 941c-3.33301 7.33301 -0.666016 11 8.00098 11h39c8 0 13.333 -3.66699 16 -11l299 -860l620 861c4 6.66699 10.333 10 19 10h46c8 0 9.66699 -3.33301 5 -10l-669 -941l-94 -512c-0.666992 -8 -5.33398 -12 -14.001 -12
h-37zM644.999 1608c-8 0 -9 2.33301 -3 7l226 180c5.33301 4.66699 12.333 7 21 7h92c8 0 8.66699 -2.33301 2 -7l-255 -180c-6.66699 -4.66699 -14 -7 -22 -7h-61z" />
    <glyph glyph-name="Thorn" unicode="&#xde;" horiz-adv-x="1253" 
d="M126 0c-7.33301 0 -10.6631 3.99805 -9.99609 11.998l230 1241l39 210c0.666992 8 5.33398 12 14.001 12h37c7.33301 0 10.666 -4 9.99902 -12l-38 -206c19.333 0.666992 39.666 1.5 60.999 2.5l62 3c20 1 38.667 1.66699 56 2s31.666 0.5 42.999 0.5
c106 0 197.833 -5 275.5 -15s140 -30.5 187 -61.5s78.333 -75.333 94 -133s14.5 -134.5 -3.5 -230.5l-12 -64c-12 -64 -27.333 -119.167 -46 -165.5s-42 -85.833 -70 -118.5s-60.833 -59.167 -98.5 -79.5s-81 -36.166 -130 -47.499s-104.333 -19 -166 -23
s-130.5 -6 -206.5 -6c-14.667 0 -33.667 0.333008 -57 1s-46.333 1.5 -69 2.5s-42.834 1.83301 -60.501 2.5s-28.5 1.33398 -32.5 2.00098l-57 -317c-0.666992 -8 -5.33398 -12 -14.001 -12h-38zM618.003 1204c-12 0 -28.167 -0.333984 -48.5 -1.00098l-63.5 -2
c-22 -0.666992 -43 -1.66699 -63 -3l-46 -3l-150 -805c10 -1.33301 25 -2.33301 45 -3s41 -1.5 63 -2.5s43.167 -1.66699 63.5 -2s36.5 -0.5 48.5 -0.5c71.333 0 135.333 2.16699 192 6.5s107.334 11.833 152.001 22.5s83.5 25.334 116.5 44.001s61.5 42.167 85.5 70.5
s44 62.333 60 102s29 86.167 39 139.5l10 51c14 80 16.167 145.167 6.5 195.5s-34.167 89.5 -73.5 117.5s-94.833 47.167 -166.5 57.5s-161.834 15.5 -270.501 15.5z" />
    <glyph glyph-name="germandbls" unicode="&#xdf;" horiz-adv-x="1192" 
d="M96 0c-7.33301 0 -10.667 3.99902 -10 11.999l196 1061c17.333 94.667 41.833 174.167 73.5 238.5s69.5 116.166 113.5 155.499s93.333 67.5 148 84.5s113.667 25.5 177 25.5c124 0 214 -31.333 270 -94s72.667 -155 50 -277l-2 -16c-6.66699 -34 -16.5 -68 -29.5 -102
s-30.167 -65.667 -51.5 -95s-47.166 -55.166 -77.499 -77.499s-66.166 -39.5 -107.499 -51.5c49.333 -13.333 87.666 -35.166 114.999 -65.499s47 -64.833 59 -103.5s17.667 -79 17 -121s-4.33398 -81 -11.001 -117l-6 -33c-15.333 -85.333 -38.333 -156.333 -69 -213
s-67.5 -102.167 -110.5 -136.5s-91.333 -58.666 -145 -72.999s-111.5 -21.5 -173.5 -21.5c-36 0 -68.333 2 -97 6s-55.334 9.66699 -80.001 17c-8 2 -10 6.66699 -6 14l16 33c3.33301 7.33301 9 10 17 8c11.333 -2.66699 22.5 -5.16699 33.5 -7.5s22.667 -4.33301 35 -6
s25.666 -3 39.999 -4s30.833 -1.5 49.5 -1.5c60 0 113.5 6.5 160.5 19.5s88.167 34.5 123.5 64.5s64.833 69.333 88.5 118s42.167 109 55.5 181l8 43c9.33301 50 11.5 97.5 6.5 142.5s-18.167 84.167 -39.5 117.5s-51.666 59.833 -90.999 79.5s-88.666 29.5 -147.999 29.5
h-152c-7.33301 0 -10.666 4 -9.99902 12l8 37c0.666992 8 5.33398 12 14.001 12h154c58.667 0 108.5 9.16699 149.5 27.5s74.667 41.833 101 70.5s46.666 60.5 60.999 95.5s24.5 68.833 30.5 101.5l2 16c19.333 103.333 6 181.166 -40 233.499s-122.667 78.5 -230 78.5
c-56 0 -107.5 -7.5 -154.5 -22.5s-88.833 -39.667 -125.5 -74s-68.167 -80 -94.5 -137s-47.5 -127.5 -63.5 -211.5l-197 -1061c-0.666992 -8 -5.33398 -12 -14.001 -12h-37z" />
    <glyph glyph-name="agrave" unicode="&#xe0;" horiz-adv-x="1155" 
d="M970 1014c-38 4 -77.999 7.33594 -119.999 10.0029s-89.667 4 -143 4c-84.667 0 -155 -7 -211 -21s-102.5 -38.333 -139.5 -73s-66.833 -81.334 -89.5 -140.001s-43 -132.334 -61 -221.001l-15 -75c-10.667 -59.333 -17.834 -111.833 -21.501 -157.5
s-2.5 -85.334 3.5 -119.001s17.167 -62.167 33.5 -85.5s38.833 -42 67.5 -56s64.167 -24 106.5 -30s92.5 -9 150.5 -9c48 0 95 1.5 141 4.5s85.333 6.16699 118 9.5zM519.001 -19.9971c-92.667 0 -168.498 8.16699 -227.498 24.5s-103.667 44 -134 83
s-47.5 90.5 -51.5 154.5s2.66699 143.667 20 239l20 107c18 98 40.833 179.167 68.5 243.5s63.5 115.666 107.5 153.999s98.333 65.333 163 81s143 23.5 235 23.5c20.667 0 44 -0.5 70 -1.5s52.833 -2.16699 80.5 -3.5s55 -3.16602 82 -5.49902s52.5 -4.83301 76.5 -7.5
c7.33301 -0.666992 10.666 -5 9.99902 -13l-195 -1047c-0.666992 -8 -5.33398 -12.333 -14.001 -13c-58.667 -6 -113.667 -10.667 -165 -14s-100 -5 -146 -5zM760.003 1260c-8.66699 0 -15.001 3.33301 -19.001 10l-166 236c-5.33301 6.66699 -3.66602 10 5.00098 10h66
c8.66699 0 14.667 -3.33301 18 -10l150 -236c4.66699 -6.66699 2.66699 -10 -6 -10h-48z" />
    <glyph glyph-name="aacute" unicode="&#xe1;" horiz-adv-x="1155" 
d="M970 1014c-38 4 -77.999 7.33594 -119.999 10.0029s-89.667 4 -143 4c-84.667 0 -155 -7 -211 -21s-102.5 -38.333 -139.5 -73s-66.833 -81.334 -89.5 -140.001s-43 -132.334 -61 -221.001l-15 -75c-10.667 -59.333 -17.834 -111.833 -21.501 -157.5
s-2.5 -85.334 3.5 -119.001s17.167 -62.167 33.5 -85.5s38.833 -42 67.5 -56s64.167 -24 106.5 -30s92.5 -9 150.5 -9c48 0 95 1.5 141 4.5s85.333 6.16699 118 9.5zM519.001 -19.9971c-92.667 0 -168.498 8.16699 -227.498 24.5s-103.667 44 -134 83
s-47.5 90.5 -51.5 154.5s2.66699 143.667 20 239l20 107c18 98 40.833 179.167 68.5 243.5s63.5 115.666 107.5 153.999s98.333 65.333 163 81s143 23.5 235 23.5c20.667 0 44 -0.5 70 -1.5s52.833 -2.16699 80.5 -3.5s55 -3.16602 82 -5.49902s52.5 -4.83301 76.5 -7.5
c7.33301 -0.666992 10.666 -5 9.99902 -13l-195 -1047c-0.666992 -8 -5.33398 -12.333 -14.001 -13c-58.667 -6 -113.667 -10.667 -165 -14s-100 -5 -146 -5zM624.003 1260c-8 0 -9.33301 3 -4 9l238 238c5.33301 6 12 9 20 9h78c7.33301 0 8.33301 -2.66699 3 -8l-256 -240
c-6 -5.33301 -13 -8 -21 -8h-58z" />
    <glyph glyph-name="acircumflex" unicode="&#xe2;" horiz-adv-x="1155" 
d="M970 1014c-38 4 -77.999 7.33594 -119.999 10.0029s-89.667 4 -143 4c-84.667 0 -155 -7 -211 -21s-102.5 -38.333 -139.5 -73s-66.833 -81.334 -89.5 -140.001s-43 -132.334 -61 -221.001l-15 -75c-10.667 -59.333 -17.834 -111.833 -21.501 -157.5
s-2.5 -85.334 3.5 -119.001s17.167 -62.167 33.5 -85.5s38.833 -42 67.5 -56s64.167 -24 106.5 -30s92.5 -9 150.5 -9c48 0 95 1.5 141 4.5s85.333 6.16699 118 9.5zM519.001 -19.9971c-92.667 0 -168.498 8.16699 -227.498 24.5s-103.667 44 -134 83
s-47.5 90.5 -51.5 154.5s2.66699 143.667 20 239l20 107c18 98 40.833 179.167 68.5 243.5s63.5 115.666 107.5 153.999s98.333 65.333 163 81s143 23.5 235 23.5c20.667 0 44 -0.5 70 -1.5s52.833 -2.16699 80.5 -3.5s55 -3.16602 82 -5.49902s52.5 -4.83301 76.5 -7.5
c7.33301 -0.666992 10.666 -5 9.99902 -13l-195 -1047c-0.666992 -8 -5.33398 -12.333 -14.001 -13c-58.667 -6 -113.667 -10.667 -165 -14s-100 -5 -146 -5zM965.003 1280c4.66699 -6.66699 3 -10 -5 -10h-51c-8.66699 0 -15 3.33301 -19 10l-122 179h-21l-183 -181
c-6 -5.33301 -13 -8 -21 -8h-66c-7.33301 0 -8.33301 2.66699 -3 8l248 230c6 5.33301 13 8 21 8h41c8.66699 0 15 -3.33301 19 -10z" />
    <glyph glyph-name="atilde" unicode="&#xe3;" horiz-adv-x="1155" 
d="M970 1014c-38 4 -77.999 7.33594 -119.999 10.0029s-89.667 4 -143 4c-84.667 0 -155 -7 -211 -21s-102.5 -38.333 -139.5 -73s-66.833 -81.334 -89.5 -140.001s-43 -132.334 -61 -221.001l-15 -75c-10.667 -59.333 -17.834 -111.833 -21.501 -157.5
s-2.5 -85.334 3.5 -119.001s17.167 -62.167 33.5 -85.5s38.833 -42 67.5 -56s64.167 -24 106.5 -30s92.5 -9 150.5 -9c48 0 95 1.5 141 4.5s85.333 6.16699 118 9.5zM519.001 -19.9971c-92.667 0 -168.498 8.16699 -227.498 24.5s-103.667 44 -134 83
s-47.5 90.5 -51.5 154.5s2.66699 143.667 20 239l20 107c18 98 40.833 179.167 68.5 243.5s63.5 115.666 107.5 153.999s98.333 65.333 163 81s143 23.5 235 23.5c20.667 0 44 -0.5 70 -1.5s52.833 -2.16699 80.5 -3.5s55 -3.16602 82 -5.49902s52.5 -4.83301 76.5 -7.5
c7.33301 -0.666992 10.666 -5 9.99902 -13l-195 -1047c-0.666992 -8 -5.33398 -12.333 -14.001 -13c-58.667 -6 -113.667 -10.667 -165 -14s-100 -5 -146 -5zM582.003 1459c-14 0 -26.668 -1.83301 -38.001 -5.5s-21.666 -11.5 -30.999 -23.5s-18.166 -29.167 -26.499 -51.5
s-16.166 -52.5 -23.499 -90.5c-0.666992 -8 -5.33398 -12 -14.001 -12h-34c-8.66699 0 -12 4 -10 12c8 50.667 18.667 91.167 32 121.5s28.333 53.333 45 69s34.167 25.834 52.5 30.501s36.5 7 54.5 7c14.667 0 28.334 -1.66699 41.001 -5s25.334 -8.66602 38.001 -15.999
s25.5 -17.333 38.5 -30s27.5 -28 43.5 -46c27.333 -32 50.333 -55 69 -69s39.667 -21 63 -21c13.333 0 25.666 1.83301 36.999 5.5s21.833 11.5 31.5 23.5s18.667 29.167 27 51.5s16.166 52.5 23.499 90.5c0.666992 8 5.33398 12 14.001 12h34c8.66699 0 12 -4 10 -12
c-8 -51.333 -18.667 -92 -32 -122s-28.333 -52.833 -45 -68.5s-34.167 -25.834 -52.5 -30.501s-36.5 -7 -54.5 -7c-14.667 0 -28.334 1.66699 -41.001 5s-25.334 8.66602 -38.001 15.999s-25.5 17.333 -38.5 30s-27.5 28 -43.5 46c-27.333 32 -50.333 55 -69 69
s-39.667 21 -63 21z" />
    <glyph glyph-name="adieresis" unicode="&#xe4;" horiz-adv-x="1155" 
d="M970 1014c-38 4 -77.999 7.33594 -119.999 10.0029s-89.667 4 -143 4c-84.667 0 -155 -7 -211 -21s-102.5 -38.333 -139.5 -73s-66.833 -81.334 -89.5 -140.001s-43 -132.334 -61 -221.001l-15 -75c-10.667 -59.333 -17.834 -111.833 -21.501 -157.5
s-2.5 -85.334 3.5 -119.001s17.167 -62.167 33.5 -85.5s38.833 -42 67.5 -56s64.167 -24 106.5 -30s92.5 -9 150.5 -9c48 0 95 1.5 141 4.5s85.333 6.16699 118 9.5zM519.001 -19.9971c-92.667 0 -168.498 8.16699 -227.498 24.5s-103.667 44 -134 83
s-47.5 90.5 -51.5 154.5s2.66699 143.667 20 239l20 107c18 98 40.833 179.167 68.5 243.5s63.5 115.666 107.5 153.999s98.333 65.333 163 81s143 23.5 235 23.5c20.667 0 44 -0.5 70 -1.5s52.833 -2.16699 80.5 -3.5s55 -3.16602 82 -5.49902s52.5 -4.83301 76.5 -7.5
c7.33301 -0.666992 10.666 -5 9.99902 -13l-195 -1047c-0.666992 -8 -5.33398 -12.333 -14.001 -13c-58.667 -6 -113.667 -10.667 -165 -14s-100 -5 -146 -5zM568.003 1260c-7.33301 0 -10.666 4 -9.99902 12l47 252c0.666992 8 5.33398 13 14.001 15l54 14
c7.33301 2 10.666 -1 9.99902 -9l-52 -272c-0.666992 -8 -5.33398 -12 -14.001 -12h-49zM826.003 1260c-7.33301 0 -10.666 4 -9.99902 12l47 252c0.666992 8 5.33398 13 14.001 15l54 14c7.33301 2 10.666 -1 9.99902 -9l-52 -272c-0.666992 -8 -5.33398 -12 -14.001 -12
h-49z" />
    <glyph glyph-name="aring" unicode="&#xe5;" horiz-adv-x="1155" 
d="M970 1014c-38 4 -77.999 7.33594 -119.999 10.0029s-89.667 4 -143 4c-84.667 0 -155 -7 -211 -21s-102.5 -38.333 -139.5 -73s-66.833 -81.334 -89.5 -140.001s-43 -132.334 -61 -221.001l-15 -75c-10.667 -59.333 -17.834 -111.833 -21.501 -157.5
s-2.5 -85.334 3.5 -119.001s17.167 -62.167 33.5 -85.5s38.833 -42 67.5 -56s64.167 -24 106.5 -30s92.5 -9 150.5 -9c48 0 95 1.5 141 4.5s85.333 6.16699 118 9.5zM519.001 -19.9971c-92.667 0 -168.498 8.16699 -227.498 24.5s-103.667 44 -134 83
s-47.5 90.5 -51.5 154.5s2.66699 143.667 20 239l20 107c18 98 40.833 179.167 68.5 243.5s63.5 115.666 107.5 153.999s98.333 65.333 163 81s143 23.5 235 23.5c20.667 0 44 -0.5 70 -1.5s52.833 -2.16699 80.5 -3.5s55 -3.16602 82 -5.49902s52.5 -4.83301 76.5 -7.5
c7.33301 -0.666992 10.666 -5 9.99902 -13l-195 -1047c-0.666992 -8 -5.33398 -12.333 -14.001 -13c-58.667 -6 -113.667 -10.667 -165 -14s-100 -5 -146 -5zM747.003 1511c-56 0 -95.166 -11.502 -117.499 -34.502s-33.5 -57.833 -33.5 -104.5
c0 -30 9.16699 -51.5 27.5 -64.5s45.833 -19.5 82.5 -19.5c28.667 0 52.667 3 72 9s34.666 14.833 45.999 26.5s19.5 26.334 24.5 44.001s7.5 38.5 7.5 62.5c0 28.667 -8.66699 49.334 -26 62.001s-45 19 -83 19zM696.004 1235c-51.333 0 -90.3311 10.668 -116.998 32.001
s-40 53.666 -40 96.999c0 66 18.667 116 56 150s91.666 51 162.999 51c50 0 88.667 -10.833 116 -32.5s41 -54.5 41 -98.5c0 -64.667 -19.333 -114 -58 -148s-92.334 -51 -161.001 -51z" />
    <glyph glyph-name="ae" unicode="&#xe6;" horiz-adv-x="1892" 
d="M1239 -20c-103.333 0 -185.001 14.165 -245.001 42.498s-100.667 75.833 -122 142.5l-28 -153c-0.666992 -8 -5.33398 -12.333 -14.001 -13c-58.667 -6 -113.667 -10.667 -165 -14s-100 -5 -146 -5c-92.667 0 -168.5 8.16699 -227.5 24.5s-103.667 44 -134 83
s-47.5 90.5 -51.5 154.5s2.66699 143.667 20 239l20 107c18 98 40.833 179.167 68.5 243.5s63.5 115.666 107.5 153.999s98.333 65.333 163 81s143 23.5 235 23.5c20.667 0 44 -0.5 70 -1.5s52.833 -2.16699 80.5 -3.5s55 -3.16602 82 -5.49902s52.5 -4.83301 76.5 -7.5
c7.33301 -0.666992 10.666 -5 9.99902 -13l-29 -155c44 62.667 99.833 109.334 167.5 140.001s151.167 46 250.5 46c65.333 0 121.5 -7.5 168.5 -22.5s85.5 -37 115.5 -66s52.167 -64.833 66.5 -107.5s21.5 -91.334 21.5 -146.001c0 -27.333 -1.5 -52.333 -4.5 -75
s-6.5 -43.167 -10.5 -61.5s-8.16699 -34 -12.5 -47s-7.83301 -22.833 -10.5 -29.5c-4 -7.33301 -9.66699 -11 -17 -11h-805l-2 -14c-16 -85.333 -23.167 -157.666 -21.5 -216.999s14.167 -107.666 37.5 -144.999s58.833 -64.5 106.5 -81.5s109.834 -25.5 186.501 -25.5
c54.667 0 110.334 1.16699 167.001 3.5s115.334 6.5 176.001 12.5c8 0.666992 12.333 -3 13 -11l4 -34c0.666992 -8 -3 -12.333 -11 -13c-56 -6 -112.5 -10.667 -169.5 -14s-119.5 -5 -187.5 -5zM969.999 1014c-38 4 -77.999 7.33594 -119.999 10.0029s-89.667 4 -143 4
c-84.667 0 -155 -7 -211 -21s-102.5 -38.333 -139.5 -73s-66.833 -81.334 -89.5 -140.001s-43 -132.334 -61 -221.001l-15 -75c-10.667 -59.333 -17.834 -111.833 -21.501 -157.5s-2.5 -85.334 3.5 -119.001s17.167 -62.167 33.5 -85.5s38.833 -42 67.5 -56
s64.167 -24 106.5 -30s92.5 -9 150.5 -9c48 0 95 1.5 141 4.5s85.333 6.16699 118 9.5zM1716 584.001c14.667 75.333 21.1689 140.833 19.502 196.5s-13.834 101.834 -36.501 138.501s-56.834 64 -102.501 82s-105.5 27 -179.5 27c-71.333 0 -133 -8.83301 -185 -26.5
s-96.167 -44.667 -132.5 -81s-66.333 -82.333 -90 -138s-43.167 -121.834 -58.5 -198.501h765z" />
    <glyph glyph-name="ccedilla" unicode="&#xe7;" horiz-adv-x="959" 
d="M519 -20c-89.333 0 -163.667 7.33105 -223 21.998s-104.666 41 -135.999 79s-49.333 90.333 -54 157s2.66602 152 21.999 256l14 84c17.333 94 39.833 173.5 67.5 238.5s64 117.833 109 158.5s100.667 70 167 88s146.5 27 240.5 27c42 0 82 -1.83301 120 -5.5
s72.333 -8.16699 103 -13.5c8 -0.666992 10 -5 6 -13l-18 -35c-4 -6.66699 -10 -9.66699 -18 -9c-30.667 5.33301 -64.334 9 -101.001 11s-71.334 3 -104.001 3c-84 0 -154.833 -7.5 -212.5 -22.5s-106 -40.333 -145 -76s-70.5 -83.334 -94.5 -143.001
s-44 -134.167 -60 -223.5l-11 -57c-16.667 -91.333 -24.167 -166.833 -22.5 -226.5s15.334 -107.167 41.001 -142.5s64.667 -60.166 117 -74.499s120.5 -21.5 204.5 -21.5c36.667 0 74 1.33301 112 4s72.667 7.33398 104 14.001c8 0.666992 12.333 -2.66602 13 -9.99902
l2 -35c0.666992 -8.66699 -3 -13.334 -11 -14.001c-16 -3.33301 -33.667 -6.16602 -53 -8.49902s-39.166 -4.33301 -59.499 -6s-40.833 -3 -61.5 -4s-40 -1.5 -58 -1.5zM233.999 -389.002c-8.66699 0 -10.334 3.33301 -5.00098 10l187 267c4 6.66699 10.333 10 19 10h53
c8.66699 0 10.334 -3.33301 5.00098 -10l-186 -267c-4 -6.66699 -10.333 -10 -19 -10h-54z" />
    <glyph glyph-name="egrave" unicode="&#xe8;" horiz-adv-x="1142" 
d="M489 -20c-82.667 0 -151.504 9.16602 -206.504 27.499s-97.167 48.166 -126.5 89.499s-46.166 95.833 -50.499 163.5s2.83398 150.834 21.501 249.501l12 70c16 85.333 37.833 160 65.5 224s63 117.167 106 159.5s94.667 74 155 95s131.166 31.5 212.499 31.5
c65.333 0 121.5 -7.5 168.5 -22.5s85.5 -37 115.5 -66s52.167 -64.833 66.5 -107.5s21.5 -91.334 21.5 -146.001c0 -27.333 -1.5 -52.333 -4.5 -75s-6.5 -43.167 -10.5 -61.5s-8.16699 -34 -12.5 -47s-7.83301 -22.833 -10.5 -29.5c-4 -7.33301 -9.66699 -11 -17 -11h-805
l-2 -14c-16 -85.333 -23.167 -157.666 -21.5 -216.999s14.167 -107.666 37.5 -144.999s58.833 -64.5 106.5 -81.5s109.834 -25.5 186.501 -25.5c54.667 0 110.334 1.16699 167.001 3.5s115.334 6.5 176.001 12.5c8 0.666992 12.333 -3 13 -11l4 -34
c0.666992 -8 -3 -12.333 -11 -13c-56 -6 -112.5 -10.667 -169.5 -14s-119.5 -5 -187.5 -5zM965.996 583.999c14.667 75.333 21.1689 140.833 19.502 196.5s-13.834 101.834 -36.501 138.501s-56.834 64 -102.501 82s-105.5 27 -179.5 27c-71.333 0 -133 -8.83301 -185 -26.5
s-96.167 -44.667 -132.5 -81s-66.333 -82.333 -90 -138s-43.167 -121.834 -58.5 -198.501h765zM744.998 1260c-8.66699 0 -15.001 3.33301 -19.001 10l-166 236c-5.33301 6.66699 -3.66602 10 5.00098 10h66c8.66699 0 14.667 -3.33301 18 -10l150 -236
c4.66699 -6.66699 2.66699 -10 -6 -10h-48z" />
    <glyph glyph-name="eacute" unicode="&#xe9;" horiz-adv-x="1142" 
d="M489 -20c-82.667 0 -151.504 9.16602 -206.504 27.499s-97.167 48.166 -126.5 89.499s-46.166 95.833 -50.499 163.5s2.83398 150.834 21.501 249.501l12 70c16 85.333 37.833 160 65.5 224s63 117.167 106 159.5s94.667 74 155 95s131.166 31.5 212.499 31.5
c65.333 0 121.5 -7.5 168.5 -22.5s85.5 -37 115.5 -66s52.167 -64.833 66.5 -107.5s21.5 -91.334 21.5 -146.001c0 -27.333 -1.5 -52.333 -4.5 -75s-6.5 -43.167 -10.5 -61.5s-8.16699 -34 -12.5 -47s-7.83301 -22.833 -10.5 -29.5c-4 -7.33301 -9.66699 -11 -17 -11h-805
l-2 -14c-16 -85.333 -23.167 -157.666 -21.5 -216.999s14.167 -107.666 37.5 -144.999s58.833 -64.5 106.5 -81.5s109.834 -25.5 186.501 -25.5c54.667 0 110.334 1.16699 167.001 3.5s115.334 6.5 176.001 12.5c8 0.666992 12.333 -3 13 -11l4 -34
c0.666992 -8 -3 -12.333 -11 -13c-56 -6 -112.5 -10.667 -169.5 -14s-119.5 -5 -187.5 -5zM965.996 583.999c14.667 75.333 21.1689 140.833 19.502 196.5s-13.834 101.834 -36.501 138.501s-56.834 64 -102.501 82s-105.5 27 -179.5 27c-71.333 0 -133 -8.83301 -185 -26.5
s-96.167 -44.667 -132.5 -81s-66.333 -82.333 -90 -138s-43.167 -121.834 -58.5 -198.501h765zM597.998 1260c-8 0 -9.33301 3 -4 9l238 238c5.33301 6 12 9 20 9h78c7.33301 0 8.33301 -2.66699 3 -8l-256 -240c-6 -5.33301 -13 -8 -21 -8h-58z" />
    <glyph glyph-name="ecircumflex" unicode="&#xea;" horiz-adv-x="1142" 
d="M489 -20c-82.667 0 -151.504 9.16602 -206.504 27.499s-97.167 48.166 -126.5 89.499s-46.166 95.833 -50.499 163.5s2.83398 150.834 21.501 249.501l12 70c16 85.333 37.833 160 65.5 224s63 117.167 106 159.5s94.667 74 155 95s131.166 31.5 212.499 31.5
c65.333 0 121.5 -7.5 168.5 -22.5s85.5 -37 115.5 -66s52.167 -64.833 66.5 -107.5s21.5 -91.334 21.5 -146.001c0 -27.333 -1.5 -52.333 -4.5 -75s-6.5 -43.167 -10.5 -61.5s-8.16699 -34 -12.5 -47s-7.83301 -22.833 -10.5 -29.5c-4 -7.33301 -9.66699 -11 -17 -11h-805
l-2 -14c-16 -85.333 -23.167 -157.666 -21.5 -216.999s14.167 -107.666 37.5 -144.999s58.833 -64.5 106.5 -81.5s109.834 -25.5 186.501 -25.5c54.667 0 110.334 1.16699 167.001 3.5s115.334 6.5 176.001 12.5c8 0.666992 12.333 -3 13 -11l4 -34
c0.666992 -8 -3 -12.333 -11 -13c-56 -6 -112.5 -10.667 -169.5 -14s-119.5 -5 -187.5 -5zM965.996 583.999c14.667 75.333 21.1689 140.833 19.502 196.5s-13.834 101.834 -36.501 138.501s-56.834 64 -102.501 82s-105.5 27 -179.5 27c-71.333 0 -133 -8.83301 -185 -26.5
s-96.167 -44.667 -132.5 -81s-66.333 -82.333 -90 -138s-43.167 -121.834 -58.5 -198.501h765zM951.998 1280c4.66699 -6.66699 3 -10 -5 -10h-51c-8.66699 0 -15 3.33301 -19 10l-122 179h-21l-183 -181c-6 -5.33301 -13 -8 -21 -8h-66c-7.33301 0 -8.33301 2.66699 -3 8
l248 230c6 5.33301 13 8 21 8h41c8.66699 0 15 -3.33301 19 -10z" />
    <glyph glyph-name="edieresis" unicode="&#xeb;" horiz-adv-x="1142" 
d="M489 -20c-82.667 0 -151.504 9.16602 -206.504 27.499s-97.167 48.166 -126.5 89.499s-46.166 95.833 -50.499 163.5s2.83398 150.834 21.501 249.501l12 70c16 85.333 37.833 160 65.5 224s63 117.167 106 159.5s94.667 74 155 95s131.166 31.5 212.499 31.5
c65.333 0 121.5 -7.5 168.5 -22.5s85.5 -37 115.5 -66s52.167 -64.833 66.5 -107.5s21.5 -91.334 21.5 -146.001c0 -27.333 -1.5 -52.333 -4.5 -75s-6.5 -43.167 -10.5 -61.5s-8.16699 -34 -12.5 -47s-7.83301 -22.833 -10.5 -29.5c-4 -7.33301 -9.66699 -11 -17 -11h-805
l-2 -14c-16 -85.333 -23.167 -157.666 -21.5 -216.999s14.167 -107.666 37.5 -144.999s58.833 -64.5 106.5 -81.5s109.834 -25.5 186.501 -25.5c54.667 0 110.334 1.16699 167.001 3.5s115.334 6.5 176.001 12.5c8 0.666992 12.333 -3 13 -11l4 -34
c0.666992 -8 -3 -12.333 -11 -13c-56 -6 -112.5 -10.667 -169.5 -14s-119.5 -5 -187.5 -5zM965.996 583.999c14.667 75.333 21.1689 140.833 19.502 196.5s-13.834 101.834 -36.501 138.501s-56.834 64 -102.501 82s-105.5 27 -179.5 27c-71.333 0 -133 -8.83301 -185 -26.5
s-96.167 -44.667 -132.5 -81s-66.333 -82.333 -90 -138s-43.167 -121.834 -58.5 -198.501h765zM533.998 1260c-7.33301 0 -10.666 4 -9.99902 12l47 252c0.666992 8 5.33398 13 14.001 15l54 14c7.33301 2 10.666 -1 9.99902 -9l-52 -272
c-0.666992 -8 -5.33398 -12 -14.001 -12h-49zM791.998 1260c-7.33301 0 -10.666 4 -9.99902 12l47 252c0.666992 8 5.33398 13 14.001 15l54 14c7.33301 2 10.666 -1 9.99902 -9l-52 -272c-0.666992 -8 -5.33398 -12 -14.001 -12h-49z" />
    <glyph glyph-name="igrave" unicode="&#xec;" horiz-adv-x="454" 
d="M94 0c-7.33301 0 -10.666 4 -9.99902 12l194 1047c0.666992 8 5.33398 12 14.001 12h38c7.33301 0 10.666 -4 9.99902 -12l-195 -1047c-0.666992 -8 -5.33398 -12 -14.001 -12h-37zM424 1260c-8.66699 0 -15.001 3.33301 -19.001 10l-166 236
c-5.33301 6.66699 -3.66602 10 5.00098 10h66c8.66699 0 14.667 -3.33301 18 -10l150 -236c4.66699 -6.66699 2.66699 -10 -6 -10h-48z" />
    <glyph glyph-name="iacute" unicode="&#xed;" horiz-adv-x="453" 
d="M93 0c-7.33301 0 -10.666 4 -9.99902 12l194 1047c0.666992 8 5.33398 12 14.001 12h38c7.33301 0 10.666 -4 9.99902 -12l-195 -1047c-0.666992 -8 -5.33398 -12 -14.001 -12h-37zM194 1260c-8 0 -9.33301 3 -4 9l238 238c5.33301 6 12 9 20 9h78
c7.33301 0 8.33301 -2.66699 3 -8l-256 -240c-6 -5.33301 -13 -8 -21 -8h-58z" />
    <glyph glyph-name="icircumflex" unicode="&#xee;" horiz-adv-x="453" 
d="M93 0c-7.33301 0 -10.666 4 -9.99902 12l194 1047c0.666992 8 5.33398 12 14.001 12h38c7.33301 0 10.666 -4 9.99902 -12l-195 -1047c-0.666992 -8 -5.33398 -12 -14.001 -12h-37zM585 1280c4.66699 -6.66699 3 -10 -5 -10h-51c-8.66699 0 -15 3.33301 -19 10l-122 179
h-21l-183 -181c-6 -5.33301 -13 -8 -21 -8h-66c-7.33301 0 -8.33301 2.66699 -3 8l248 230c6 5.33301 13 8 21 8h41c8.66699 0 15 -3.33301 19 -10z" />
    <glyph glyph-name="idieresis" unicode="&#xef;" horiz-adv-x="453" 
d="M93 0c-7.33301 0 -10.666 4 -9.99902 12l194 1047c0.666992 8 5.33398 12 14.001 12h38c7.33301 0 10.666 -4 9.99902 -12l-195 -1047c-0.666992 -8 -5.33398 -12 -14.001 -12h-37zM192 1260c-7.33301 0 -10.666 4 -9.99902 12l47 252c0.666992 8 5.33398 13 14.001 15
l54 14c7.33301 2 10.666 -1 9.99902 -9l-52 -272c-0.666992 -8 -5.33398 -12 -14.001 -12h-49zM450 1260c-7.33301 0 -10.666 4 -9.99902 12l47 252c0.666992 8 5.33398 13 14.001 15l54 14c7.33301 2 10.666 -1 9.99902 -9l-52 -272c-0.666992 -8 -5.33398 -12 -14.001 -12
h-49z" />
    <glyph glyph-name="eth" unicode="&#xf0;" horiz-adv-x="1177" 
d="M501 1212c-6.66699 -4 -12.3369 -2.66602 -17.0039 4.00098l-16 25c-4.66699 6.66699 -3.66699 12 3 16l254 154c-40 23.333 -85.167 43.666 -135.5 60.999s-105.833 32.666 -166.5 45.999c-8 0.666992 -10.667 5 -8 13l15 37c2.66699 7.33301 8 10 16 8
c70 -15.333 133.333 -33.333 190 -54s107.334 -45 152.001 -73l203 124c6.66699 4 12 2.33301 16 -5l14 -27c4.66699 -7.33301 3.33398 -13 -3.99902 -17l-180 -109c46.667 -37.333 84.834 -80.833 114.501 -130.5s51.167 -107.667 64.5 -174s18.5 -141.5 15.5 -225.5
s-13.5 -178.667 -31.5 -284l-6 -36l-13 -67c-16.667 -90.667 -39 -168.667 -67 -234s-63 -119 -105 -161s-92 -73 -150 -93s-125.333 -30 -202 -30s-140.167 10 -190.5 30s-88.833 51 -115.5 93s-42 95.667 -46 161s2.33301 143.333 19 234l13 67
c16.667 91.333 39 169.833 67 235.5s63.167 119.5 105.5 161.5s92.5 73 150.5 93s125.333 30 202 30c34.667 0 67.5 -2.33301 98.5 -7s59.667 -12.334 86 -23.001s49.833 -24.667 70.5 -42s38.334 -38.666 53.001 -63.999c-3.33301 100.667 -21 185.834 -53 255.501
s-79 127.5 -141 173.5zM650.997 1024c-70 0 -130.17 -9.16797 -180.503 -27.501s-93.166 -46.666 -128.499 -84.999s-64.666 -87 -87.999 -146s-42.333 -129.167 -57 -210.5l-9 -47c-15.333 -81.333 -22.5 -151.5 -21.5 -210.5s12.167 -107.5 33.5 -145.5
s53.833 -66 97.5 -84s100.834 -27 171.501 -27c69.333 0 129.333 9 180 27s93.667 46.167 129 84.5s64.5 87 87.5 146s41.833 129.5 56.5 211.5l8 45c14.667 80.667 21.667 150.5 21 209.5s-11.5 107.833 -32.5 146.5s-53.167 67.167 -96.5 85.5s-100.333 27.5 -171 27.5z
" />
    <glyph glyph-name="ntilde" unicode="&#xf1;" horiz-adv-x="1188" 
d="M95 0c-7.33301 0 -10.6641 4.00195 -9.99707 12.002l198 1066c0.666992 8 5.33398 12 14.001 12h23c8 0 11.667 -4 11 -12l-5 -94c30.667 16.667 63.834 31.667 99.501 45s71.5 24.5 107.5 33.5s71.5 15.833 106.5 20.5s67.167 7 96.5 7
c74.667 0 133.667 -8.16699 177 -24.5s74.666 -42.333 93.999 -78s28.333 -81.834 27 -138.501s-9.33301 -125.334 -24 -206.001l-116 -631c-0.666992 -8 -5.33398 -12 -14.001 -12h-38c-7.33301 0 -10.666 4 -9.99902 12l117 629c14 78 21.667 142 23 192
s-6.33398 89.5 -23.001 118.5s-43.167 49 -79.5 60s-84.833 16.5 -145.5 16.5c-29.333 0 -61 -2.16699 -95 -6.5s-68.833 -10.833 -104.5 -19.5s-71.334 -19.5 -107.001 -32.5s-69.834 -28.5 -102.501 -46.5l-169 -911c-0.666992 -8 -5.33398 -12 -14.001 -12h-37z
M577.002 1459c-14 0 -26.668 -1.83301 -38.001 -5.5s-21.666 -11.5 -30.999 -23.5s-18.166 -29.167 -26.499 -51.5s-16.166 -52.5 -23.499 -90.5c-0.666992 -8 -5.33398 -12 -14.001 -12h-34c-8.66699 0 -12 4 -10 12c8 50.667 18.667 91.167 32 121.5s28.333 53.333 45 69
s34.167 25.834 52.5 30.501s36.5 7 54.5 7c14.667 0 28.334 -1.66699 41.001 -5s25.334 -8.66602 38.001 -15.999s25.5 -17.333 38.5 -30s27.5 -28 43.5 -46c27.333 -32 50.333 -55 69 -69s39.667 -21 63 -21c13.333 0 25.666 1.83301 36.999 5.5s21.833 11.5 31.5 23.5
s18.667 29.167 27 51.5s16.166 52.5 23.499 90.5c0.666992 8 5.33398 12 14.001 12h34c8.66699 0 12 -4 10 -12c-8 -51.333 -18.667 -92 -32 -122s-28.333 -52.833 -45 -68.5s-34.167 -25.834 -52.5 -30.501s-36.5 -7 -54.5 -7c-14.667 0 -28.334 1.66699 -41.001 5
s-25.334 8.66602 -38.001 15.999s-25.5 17.333 -38.5 30s-27.5 28 -43.5 46c-27.333 32 -50.333 55 -69 69s-39.667 21 -63 21z" />
    <glyph glyph-name="ograve" unicode="&#xf2;" horiz-adv-x="1183" 
d="M667 1028c-72.667 0 -135.166 -8.99805 -187.499 -26.998s-97 -45.833 -134 -83.5s-67.167 -85.5 -90.5 -143.5s-42.333 -127 -57 -207l-11 -65c-14.667 -80 -21.334 -149 -20.001 -207s13.166 -105.833 35.499 -143.5s56.333 -65.5 102 -83.5s105.5 -27 179.5 -27
c72.667 0 135.167 9 187.5 27s96.833 45.667 133.5 83s66.667 85.166 90 143.499s42.666 128.166 57.999 209.499l10 63c14.667 79.333 21.334 148 20.001 206s-13.166 105.833 -35.499 143.5s-56.333 65.667 -102 84s-105.167 27.5 -178.5 27.5zM472.001 -19.998
c-79.333 0 -145.168 9.66699 -197.501 29s-92.5 49.833 -120.5 91.5s-44.333 94.834 -49 159.501s1.66602 142 18.999 232l14 83c16.667 90 39.334 167.5 68.001 232.5s64.834 118.5 108.501 160.5s95.5 72.833 155.5 92.5s129.667 29.5 209 29.5
c80 0 146.167 -9.83301 198.5 -29.5s92.5 -50.5 120.5 -92.5s44 -95.5 48 -160.5s-2.33301 -142.5 -19 -232.5l-14 -83c-17.333 -90 -40.166 -167.333 -68.499 -232s-64.333 -117.834 -108 -159.501s-95.334 -72.167 -155.001 -91.5s-129.5 -29 -209.5 -29zM749.999 1260
c-8.66699 0 -15.001 3.33301 -19.001 10l-166 236c-5.33301 6.66699 -3.66602 10 5.00098 10h66c8.66699 0 14.667 -3.33301 18 -10l150 -236c4.66699 -6.66699 2.66699 -10 -6 -10h-48z" />
    <glyph glyph-name="oacute" unicode="&#xf3;" horiz-adv-x="1183" 
d="M667 1028c-72.667 0 -135.166 -8.99805 -187.499 -26.998s-97 -45.833 -134 -83.5s-67.167 -85.5 -90.5 -143.5s-42.333 -127 -57 -207l-11 -65c-14.667 -80 -21.334 -149 -20.001 -207s13.166 -105.833 35.499 -143.5s56.333 -65.5 102 -83.5s105.5 -27 179.5 -27
c72.667 0 135.167 9 187.5 27s96.833 45.667 133.5 83s66.667 85.166 90 143.499s42.666 128.166 57.999 209.499l10 63c14.667 79.333 21.334 148 20.001 206s-13.166 105.833 -35.499 143.5s-56.333 65.667 -102 84s-105.167 27.5 -178.5 27.5zM472.001 -19.998
c-79.333 0 -145.168 9.66699 -197.501 29s-92.5 49.833 -120.5 91.5s-44.333 94.834 -49 159.501s1.66602 142 18.999 232l14 83c16.667 90 39.334 167.5 68.001 232.5s64.834 118.5 108.501 160.5s95.5 72.833 155.5 92.5s129.667 29.5 209 29.5
c80 0 146.167 -9.83301 198.5 -29.5s92.5 -50.5 120.5 -92.5s44 -95.5 48 -160.5s-2.33301 -142.5 -19 -232.5l-14 -83c-17.333 -90 -40.166 -167.333 -68.499 -232s-64.333 -117.834 -108 -159.501s-95.334 -72.167 -155.001 -91.5s-129.5 -29 -209.5 -29zM581.999 1260
c-8 0 -9.33301 3 -4 9l238 238c5.33301 6 12 9 20 9h78c7.33301 0 8.33301 -2.66699 3 -8l-256 -240c-6 -5.33301 -13 -8 -21 -8h-58z" />
    <glyph glyph-name="ocircumflex" unicode="&#xf4;" horiz-adv-x="1183" 
d="M667 1028c-72.667 0 -135.166 -8.99805 -187.499 -26.998s-97 -45.833 -134 -83.5s-67.167 -85.5 -90.5 -143.5s-42.333 -127 -57 -207l-11 -65c-14.667 -80 -21.334 -149 -20.001 -207s13.166 -105.833 35.499 -143.5s56.333 -65.5 102 -83.5s105.5 -27 179.5 -27
c72.667 0 135.167 9 187.5 27s96.833 45.667 133.5 83s66.667 85.166 90 143.499s42.666 128.166 57.999 209.499l10 63c14.667 79.333 21.334 148 20.001 206s-13.166 105.833 -35.499 143.5s-56.333 65.667 -102 84s-105.167 27.5 -178.5 27.5zM472.001 -19.998
c-79.333 0 -145.168 9.66699 -197.501 29s-92.5 49.833 -120.5 91.5s-44.333 94.834 -49 159.501s1.66602 142 18.999 232l14 83c16.667 90 39.334 167.5 68.001 232.5s64.834 118.5 108.501 160.5s95.5 72.833 155.5 92.5s129.667 29.5 209 29.5
c80 0 146.167 -9.83301 198.5 -29.5s92.5 -50.5 120.5 -92.5s44 -95.5 48 -160.5s-2.33301 -142.5 -19 -232.5l-14 -83c-17.333 -90 -40.166 -167.333 -68.499 -232s-64.333 -117.834 -108 -159.501s-95.334 -72.167 -155.001 -91.5s-129.5 -29 -209.5 -29zM952.999 1280
c4.66699 -6.66699 3 -10 -5 -10h-51c-8.66699 0 -15 3.33301 -19 10l-122 179h-21l-183 -181c-6 -5.33301 -13 -8 -21 -8h-66c-7.33301 0 -8.33301 2.66699 -3 8l248 230c6 5.33301 13 8 21 8h41c8.66699 0 15 -3.33301 19 -10z" />
    <glyph glyph-name="otilde" unicode="&#xf5;" horiz-adv-x="1183" 
d="M667 1028c-72.667 0 -135.166 -8.99805 -187.499 -26.998s-97 -45.833 -134 -83.5s-67.167 -85.5 -90.5 -143.5s-42.333 -127 -57 -207l-11 -65c-14.667 -80 -21.334 -149 -20.001 -207s13.166 -105.833 35.499 -143.5s56.333 -65.5 102 -83.5s105.5 -27 179.5 -27
c72.667 0 135.167 9 187.5 27s96.833 45.667 133.5 83s66.667 85.166 90 143.499s42.666 128.166 57.999 209.499l10 63c14.667 79.333 21.334 148 20.001 206s-13.166 105.833 -35.499 143.5s-56.333 65.667 -102 84s-105.167 27.5 -178.5 27.5zM472.001 -19.998
c-79.333 0 -145.168 9.66699 -197.501 29s-92.5 49.833 -120.5 91.5s-44.333 94.834 -49 159.501s1.66602 142 18.999 232l14 83c16.667 90 39.334 167.5 68.001 232.5s64.834 118.5 108.501 160.5s95.5 72.833 155.5 92.5s129.667 29.5 209 29.5
c80 0 146.167 -9.83301 198.5 -29.5s92.5 -50.5 120.5 -92.5s44 -95.5 48 -160.5s-2.33301 -142.5 -19 -232.5l-14 -83c-17.333 -90 -40.166 -167.333 -68.499 -232s-64.333 -117.834 -108 -159.501s-95.334 -72.167 -155.001 -91.5s-129.5 -29 -209.5 -29zM564.999 1459
c-14 0 -26.668 -1.83301 -38.001 -5.5s-21.666 -11.5 -30.999 -23.5s-18.166 -29.167 -26.499 -51.5s-16.166 -52.5 -23.499 -90.5c-0.666992 -8 -5.33398 -12 -14.001 -12h-34c-8.66699 0 -12 4 -10 12c8 50.667 18.667 91.167 32 121.5s28.333 53.333 45 69
s34.167 25.834 52.5 30.501s36.5 7 54.5 7c14.667 0 28.334 -1.66699 41.001 -5s25.334 -8.66602 38.001 -15.999s25.5 -17.333 38.5 -30s27.5 -28 43.5 -46c27.333 -32 50.333 -55 69 -69s39.667 -21 63 -21c13.333 0 25.666 1.83301 36.999 5.5s21.833 11.5 31.5 23.5
s18.667 29.167 27 51.5s16.166 52.5 23.499 90.5c0.666992 8 5.33398 12 14.001 12h34c8.66699 0 12 -4 10 -12c-8 -51.333 -18.667 -92 -32 -122s-28.333 -52.833 -45 -68.5s-34.167 -25.834 -52.5 -30.501s-36.5 -7 -54.5 -7c-14.667 0 -28.334 1.66699 -41.001 5
s-25.334 8.66602 -38.001 15.999s-25.5 17.333 -38.5 30s-27.5 28 -43.5 46c-27.333 32 -50.333 55 -69 69s-39.667 21 -63 21z" />
    <glyph glyph-name="odieresis" unicode="&#xf6;" horiz-adv-x="1183" 
d="M667 1028c-72.667 0 -135.166 -8.99805 -187.499 -26.998s-97 -45.833 -134 -83.5s-67.167 -85.5 -90.5 -143.5s-42.333 -127 -57 -207l-11 -65c-14.667 -80 -21.334 -149 -20.001 -207s13.166 -105.833 35.499 -143.5s56.333 -65.5 102 -83.5s105.5 -27 179.5 -27
c72.667 0 135.167 9 187.5 27s96.833 45.667 133.5 83s66.667 85.166 90 143.499s42.666 128.166 57.999 209.499l10 63c14.667 79.333 21.334 148 20.001 206s-13.166 105.833 -35.499 143.5s-56.333 65.667 -102 84s-105.167 27.5 -178.5 27.5zM472.001 -19.998
c-79.333 0 -145.168 9.66699 -197.501 29s-92.5 49.833 -120.5 91.5s-44.333 94.834 -49 159.501s1.66602 142 18.999 232l14 83c16.667 90 39.334 167.5 68.001 232.5s64.834 118.5 108.501 160.5s95.5 72.833 155.5 92.5s129.667 29.5 209 29.5
c80 0 146.167 -9.83301 198.5 -29.5s92.5 -50.5 120.5 -92.5s44 -95.5 48 -160.5s-2.33301 -142.5 -19 -232.5l-14 -83c-17.333 -90 -40.166 -167.333 -68.499 -232s-64.333 -117.834 -108 -159.501s-95.334 -72.167 -155.001 -91.5s-129.5 -29 -209.5 -29zM539.999 1260
c-7.33301 0 -10.666 4 -9.99902 12l47 252c0.666992 8 5.33398 13 14.001 15l54 14c7.33301 2 10.666 -1 9.99902 -9l-52 -272c-0.666992 -8 -5.33398 -12 -14.001 -12h-49zM797.999 1260c-7.33301 0 -10.666 4 -9.99902 12l47 252c0.666992 8 5.33398 13 14.001 15l54 14
c7.33301 2 10.666 -1 9.99902 -9l-52 -272c-0.666992 -8 -5.33398 -12 -14.001 -12h-49z" />
    <glyph glyph-name="divide" unicode="&#xf7;" horiz-adv-x="1114" 
d="M186 776c-7.33301 0 -10.666 4 -9.99902 12l7 38c0.666992 8 5.33398 12 14.001 12h796c7.33301 0 10.666 -4 9.99902 -12l-7 -38c-0.666992 -8 -5.33398 -12 -14.001 -12h-796zM481 365c-7.33301 0 -10.666 4 -9.99902 12l34 180c0.666992 8 5.33398 13 14.001 15l54 15
c7.33301 2 10.666 -1 9.99902 -9l-38 -201c-0.666992 -8 -5.33398 -12 -14.001 -12h-50zM598 999c-7.33301 0 -10.666 4 -9.99902 12l34 181c0.666992 8 5.33398 13 14.001 15l54 15c7.33301 2 10.666 -1 9.99902 -9l-38 -202c-0.666992 -8 -5.33398 -12 -14.001 -12h-50z
" />
    <glyph glyph-name="oslash" unicode="&#xf8;" horiz-adv-x="1186" 
d="M136 136c-19.333 42 -29.666 92.334 -30.999 151.001s5.33398 127.334 20.001 206.001l15 81c16.667 90 39.334 167.5 68.001 232.5s64.834 118.5 108.501 160.5s95.5 73 155.5 93s129.667 30 209 30c74.667 0 137.167 -8.66699 187.5 -26s90.166 -44.333 119.499 -81
l80 80c5.33301 5.33301 12 8 20 8h57c8 0 9.33301 -2.66699 4 -8l-130 -130c19.333 -42 29.666 -92.667 30.999 -152s-5.33398 -128.333 -20.001 -207l-15 -81c-16.667 -90.667 -39.167 -168.334 -67.5 -233.001s-64.333 -117.834 -108 -159.501
s-95.334 -72.167 -155.001 -91.5s-129.5 -29 -209.5 -29c-74.667 0 -137.167 8.5 -187.5 25.5s-90.5 43.5 -120.5 79.5l-77 -77c-5.33301 -5.33301 -12 -8 -20 -8h-59c-8.66699 0 -9.66699 2.66699 -3 8zM967 564.001c12.667 69.333 19.332 130.166 19.999 182.499
s-6 97.5 -20 135.5l-752 -749c24.667 -32 59 -55.5 103 -70.5s100 -22.5 168 -22.5c72.667 0 135.167 9 187.5 27s96.833 45.833 133.5 83.5s66.834 85.834 90.501 144.501s43.167 128.667 58.5 210zM669.998 1028c-72.667 0 -135.168 -9.16699 -187.501 -27.5
s-97 -46.5 -134 -84.5s-67.167 -86.167 -90.5 -144.5s-42.333 -127.5 -57 -207.5l-12 -61c-13.333 -68.667 -20.666 -129 -21.999 -181s5 -97 19 -135l752 747c-24 32 -57.833 55.667 -101.5 71s-99.167 23 -166.5 23z" />
    <glyph glyph-name="ugrave" unicode="&#xf9;" horiz-adv-x="1186" 
d="M490 -20c-85.333 0 -154 7.66504 -206 22.998s-90.667 40.333 -116 75s-39 79.834 -41 135.501s4.33301 123.834 19 204.501l119 641c0.666992 8 5.33398 12 14.001 12h38c7.33301 0 10.666 -4 9.99902 -12l-119 -641c-14.667 -77.333 -20.834 -140.5 -18.501 -189.5
s14.833 -87.333 37.5 -115s56.5 -46.667 101.5 -57s102.5 -15.5 172.5 -15.5c26.667 0 54.834 1 84.501 3s58.834 4.5 87.501 7.5s56.5 6.66699 83.5 11s51.5 8.83301 73.5 13.5l183 983c0.666992 8 5.33398 12 14.001 12h37c7.33301 0 10.666 -4 9.99902 -12l-188 -1018
c-0.666992 -8 -5.33398 -13 -14.001 -15c-48 -11.333 -105 -21.833 -171 -31.5s-136.333 -14.5 -211 -14.5zM727 1260c-8.66699 0 -15.001 3.33301 -19.001 10l-166 236c-5.33301 6.66699 -3.66602 10 5.00098 10h66c8.66699 0 14.667 -3.33301 18 -10l150 -236
c4.66699 -6.66699 2.66699 -10 -6 -10h-48z" />
    <glyph glyph-name="uacute" unicode="&#xfa;" horiz-adv-x="1186" 
d="M490 -20c-85.333 0 -154 7.66504 -206 22.998s-90.667 40.333 -116 75s-39 79.834 -41 135.501s4.33301 123.834 19 204.501l119 641c0.666992 8 5.33398 12 14.001 12h38c7.33301 0 10.666 -4 9.99902 -12l-119 -641c-14.667 -77.333 -20.834 -140.5 -18.501 -189.5
s14.833 -87.333 37.5 -115s56.5 -46.667 101.5 -57s102.5 -15.5 172.5 -15.5c26.667 0 54.834 1 84.501 3s58.834 4.5 87.501 7.5s56.5 6.66699 83.5 11s51.5 8.83301 73.5 13.5l183 983c0.666992 8 5.33398 12 14.001 12h37c7.33301 0 10.666 -4 9.99902 -12l-188 -1018
c-0.666992 -8 -5.33398 -13 -14.001 -15c-48 -11.333 -105 -21.833 -171 -31.5s-136.333 -14.5 -211 -14.5zM621 1260c-8 0 -9.33301 3 -4 9l238 238c5.33301 6 12 9 20 9h78c7.33301 0 8.33301 -2.66699 3 -8l-256 -240c-6 -5.33301 -13 -8 -21 -8h-58z" />
    <glyph glyph-name="ucircumflex" unicode="&#xfb;" horiz-adv-x="1186" 
d="M490 -20c-85.333 0 -154 7.66504 -206 22.998s-90.667 40.333 -116 75s-39 79.834 -41 135.501s4.33301 123.834 19 204.501l119 641c0.666992 8 5.33398 12 14.001 12h38c7.33301 0 10.666 -4 9.99902 -12l-119 -641c-14.667 -77.333 -20.834 -140.5 -18.501 -189.5
s14.833 -87.333 37.5 -115s56.5 -46.667 101.5 -57s102.5 -15.5 172.5 -15.5c26.667 0 54.834 1 84.501 3s58.834 4.5 87.501 7.5s56.5 6.66699 83.5 11s51.5 8.83301 73.5 13.5l183 983c0.666992 8 5.33398 12 14.001 12h37c7.33301 0 10.666 -4 9.99902 -12l-188 -1018
c-0.666992 -8 -5.33398 -13 -14.001 -15c-48 -11.333 -105 -21.833 -171 -31.5s-136.333 -14.5 -211 -14.5zM947 1280c4.66699 -6.66699 3 -10 -5 -10h-51c-8.66699 0 -15 3.33301 -19 10l-122 179h-21l-183 -181c-6 -5.33301 -13 -8 -21 -8h-66
c-7.33301 0 -8.33301 2.66699 -3 8l248 230c6 5.33301 13 8 21 8h41c8.66699 0 15 -3.33301 19 -10z" />
    <glyph glyph-name="udieresis" unicode="&#xfc;" horiz-adv-x="1186" 
d="M490 -20c-85.333 0 -154 7.66504 -206 22.998s-90.667 40.333 -116 75s-39 79.834 -41 135.501s4.33301 123.834 19 204.501l119 641c0.666992 8 5.33398 12 14.001 12h38c7.33301 0 10.666 -4 9.99902 -12l-119 -641c-14.667 -77.333 -20.834 -140.5 -18.501 -189.5
s14.833 -87.333 37.5 -115s56.5 -46.667 101.5 -57s102.5 -15.5 172.5 -15.5c26.667 0 54.834 1 84.501 3s58.834 4.5 87.501 7.5s56.5 6.66699 83.5 11s51.5 8.83301 73.5 13.5l183 983c0.666992 8 5.33398 12 14.001 12h37c7.33301 0 10.666 -4 9.99902 -12l-188 -1018
c-0.666992 -8 -5.33398 -13 -14.001 -15c-48 -11.333 -105 -21.833 -171 -31.5s-136.333 -14.5 -211 -14.5zM558 1260c-7.33301 0 -10.666 4 -9.99902 12l47 252c0.666992 8 5.33398 13 14.001 15l54 14c7.33301 2 10.666 -1 9.99902 -9l-52 -272
c-0.666992 -8 -5.33398 -12 -14.001 -12h-49zM816 1260c-7.33301 0 -10.666 4 -9.99902 12l47 252c0.666992 8 5.33398 13 14.001 15l54 14c7.33301 2 10.666 -1 9.99902 -9l-52 -272c-0.666992 -8 -5.33398 -12 -14.001 -12h-49z" />
    <glyph glyph-name="yacute" unicode="&#xfd;" horiz-adv-x="919" 
d="M-71 -471c-15.333 0 -32.668 1.16309 -52.001 3.49609s-37.333 5.83301 -54 10.5c-7.33301 2.66699 -9.66602 7.66699 -6.99902 15l15 36c3.33301 7.33301 9 10 17 8c14 -3.33301 29.667 -6.16602 47 -8.49902s32.666 -3.5 45.999 -3.5c24.667 0 47.167 1.33301 67.5 4
s39.5 8.83398 57.5 18.501s36 23.5 54 41.5s37.333 42.167 58 72.5s43.167 67.833 67.5 112.5l83.5 161c-0.666992 0 -2 0.666992 -4 2s-4.16699 4 -6.5 8s-4.83301 9.5 -7.5 16.5s-5.33398 16.5 -8.00098 28.5l-188 1004c-0.666992 8 2.66602 12 9.99902 12h35
c8.66699 0 13.334 -4 14.001 -12l166 -877c2.66699 -12 5.16699 -24.333 7.5 -37l6.5 -34.5c2 -10.333 3.83301 -18.666 5.5 -24.999s3.16699 -9.5 4.5 -9.5l507 984c4.66699 7.33301 10.667 11 18 11h45c8 0 10.333 -3.66699 7 -11l-589 -1142
c-30 -57.333 -57.167 -106.833 -81.5 -148.5s-47.166 -77 -68.499 -106s-41.833 -52.333 -61.5 -70s-40.167 -31.167 -61.5 -40.5s-44.166 -15.666 -68.499 -18.999s-51.5 -5 -81.5 -5zM470.998 1260c-8 0 -9.33301 3 -4 9l238 238c5.33301 6 12 9 20 9h78
c7.33301 0 8.33301 -2.66699 3 -8l-256 -240c-6 -5.33301 -13 -8 -21 -8h-58z" />
    <glyph glyph-name="thorn" unicode="&#xfe;" horiz-adv-x="1155" 
d="M12 -451c-7.33301 0 -10.665 4.00391 -9.99805 12.0039l278 1498l99 531c0.666992 8 5 13.333 13 16l43 12c7.33301 3.33301 10.333 0.666016 9 -8.00098l-101 -540c50 7.33301 97 12.5 141 15.5s86 4.5 126 4.5c90.667 0 165.167 -7.83301 223.5 -23.5
s102.666 -42.834 132.999 -81.501s47.5 -90.167 51.5 -154.5s-3 -145.166 -21 -242.499l-18 -105c-17.333 -93.333 -39.5 -172 -66.5 -236s-62.667 -115.667 -107 -155s-99 -67.833 -164 -85.5s-144.5 -26.5 -238.5 -26.5c-21.333 0 -43.5 0.666992 -66.5 2
s-45.667 3.16602 -68 5.49902s-44 5.16602 -65 8.49902s-40.5 6.66602 -58.5 9.99902l-82 -445c-0.666992 -8 -5.33398 -12 -14.001 -12h-37zM600.001 1028c-93.333 0 -183 -6.00293 -269 -18.0029l-174 -942c18 -4 38 -7.66699 60 -11s44.333 -6.16602 67 -8.49902
s45.167 -4.16602 67.5 -5.49902s42.833 -2 61.5 -2c86 0 157.667 7.16699 215 21.5s104.833 39 142.5 74s67.834 81.667 90.501 140s42 131.5 58 219.5l13 75c16.667 88.667 24.667 162.334 24 221.001s-13.167 105.5 -37.5 140.5s-62.333 59.667 -114 74
s-119.834 21.5 -204.501 21.5z" />
    <glyph glyph-name="ydieresis" unicode="&#xff;" horiz-adv-x="919" 
d="M-71 -471c-15.333 0 -32.668 1.16309 -52.001 3.49609s-37.333 5.83301 -54 10.5c-7.33301 2.66699 -9.66602 7.66699 -6.99902 15l15 36c3.33301 7.33301 9 10 17 8c14 -3.33301 29.667 -6.16602 47 -8.49902s32.666 -3.5 45.999 -3.5c24.667 0 47.167 1.33301 67.5 4
s39.5 8.83398 57.5 18.501s36 23.5 54 41.5s37.333 42.167 58 72.5s43.167 67.833 67.5 112.5l83.5 161c-0.666992 0 -2 0.666992 -4 2s-4.16699 4 -6.5 8s-4.83301 9.5 -7.5 16.5s-5.33398 16.5 -8.00098 28.5l-188 1004c-0.666992 8 2.66602 12 9.99902 12h35
c8.66699 0 13.334 -4 14.001 -12l166 -877c2.66699 -12 5.16699 -24.333 7.5 -37l6.5 -34.5c2 -10.333 3.83301 -18.666 5.5 -24.999s3.16699 -9.5 4.5 -9.5l507 984c4.66699 7.33301 10.667 11 18 11h45c8 0 10.333 -3.66699 7 -11l-589 -1142
c-30 -57.333 -57.167 -106.833 -81.5 -148.5s-47.166 -77 -68.499 -106s-41.833 -52.333 -61.5 -70s-40.167 -31.167 -61.5 -40.5s-44.166 -15.666 -68.499 -18.999s-51.5 -5 -81.5 -5zM399.998 1260c-7.33301 0 -10.666 4 -9.99902 12l47 252
c0.666992 8 5.33398 13 14.001 15l54 14c7.33301 2 10.666 -1 9.99902 -9l-52 -272c-0.666992 -8 -5.33398 -12 -14.001 -12h-49zM657.998 1260c-7.33301 0 -10.666 4 -9.99902 12l47 252c0.666992 8 5.33398 13 14.001 15l54 14c7.33301 2 10.666 -1 9.99902 -9l-52 -272
c-0.666992 -8 -5.33398 -12 -14.001 -12h-49z" />
    <glyph glyph-name="Amacron" unicode="&#x100;" horiz-adv-x="1254" 
d="M-67 0c-8.66699 0 -10.668 3.33301 -6.00098 10l814 1455c4.66699 6.66699 10.667 10 18 10h64c8.66699 0 13.334 -4 14.001 -12l278 -1451c0.666992 -8 -2.66602 -12 -9.99902 -12h-39c-8.66699 0 -13.334 4 -14.001 12l-89 457h-711l-255 -459
c-4.66699 -6.66699 -10.667 -10 -18 -10h-46zM778.999 1413l-493 -883h665zM587.999 1659c-7.33301 0 -10.666 4 -9.99902 12l8 37c0.666992 8 5.33398 12 14.001 12h455c7.33301 0 10.666 -4 9.99902 -12l-8 -37c-0.666992 -8 -5.33398 -12 -14.001 -12h-455z" />
    <glyph glyph-name="amacron" unicode="&#x101;" horiz-adv-x="1155" 
d="M970 1014c-38 4 -77.999 7.33594 -119.999 10.0029s-89.667 4 -143 4c-84.667 0 -155 -7 -211 -21s-102.5 -38.333 -139.5 -73s-66.833 -81.334 -89.5 -140.001s-43 -132.334 -61 -221.001l-15 -75c-10.667 -59.333 -17.834 -111.833 -21.501 -157.5
s-2.5 -85.334 3.5 -119.001s17.167 -62.167 33.5 -85.5s38.833 -42 67.5 -56s64.167 -24 106.5 -30s92.5 -9 150.5 -9c48 0 95 1.5 141 4.5s85.333 6.16699 118 9.5zM519.001 -19.9971c-92.667 0 -168.498 8.16699 -227.498 24.5s-103.667 44 -134 83
s-47.5 90.5 -51.5 154.5s2.66699 143.667 20 239l20 107c18 98 40.833 179.167 68.5 243.5s63.5 115.666 107.5 153.999s98.333 65.333 163 81s143 23.5 235 23.5c20.667 0 44 -0.5 70 -1.5s52.833 -2.16699 80.5 -3.5s55 -3.16602 82 -5.49902s52.5 -4.83301 76.5 -7.5
c7.33301 -0.666992 10.666 -5 9.99902 -13l-195 -1047c-0.666992 -8 -5.33398 -12.333 -14.001 -13c-58.667 -6 -113.667 -10.667 -165 -14s-100 -5 -146 -5zM518.003 1352c-8 0 -11 4 -9 12l7 37c2 8 7 12 15 12h455c8 0 11 -4 9 -12l-7 -37c-2 -8 -7 -12 -15 -12h-455z
" />
    <glyph glyph-name="Abreve" unicode="&#x102;" horiz-adv-x="1254" 
d="M-67 0c-8.66699 0 -10.668 3.33301 -6.00098 10l814 1455c4.66699 6.66699 10.667 10 18 10h64c8.66699 0 13.334 -4 14.001 -12l278 -1451c0.666992 -8 -2.66602 -12 -9.99902 -12h-39c-8.66699 0 -13.334 4 -14.001 12l-89 457h-711l-255 -459
c-4.66699 -6.66699 -10.667 -10 -18 -10h-46zM778.999 1413l-493 -883h665zM804.999 1591c-69.333 0 -122.335 17.833 -159.002 53.5s-54 84.167 -52 145.5c0.666992 8 5 12 13 12h33c8 0 12 -4 12 -12c0 -29.333 4.33301 -53.333 13 -72s20.5 -33.5 35.5 -44.5
s31.833 -18.667 50.5 -23s38 -6.5 58 -6.5c22 0 43.5 2.33301 64.5 7s40.833 12.667 59.5 24s35.334 26.5 50.001 45.5s27 42.5 37 70.5c2.66699 7.33301 8 11 16 11h39c8.66699 0 11.334 -3.66699 8.00098 -11c-11.333 -32 -25 -60.333 -41 -85s-35.167 -45.5 -57.5 -62.5
s-48.333 -30 -78 -39s-63.5 -13.5 -101.5 -13.5z" />
    <glyph glyph-name="abreve" unicode="&#x103;" horiz-adv-x="1155" 
d="M970 1014c-38 4 -77.999 7.33594 -119.999 10.0029s-89.667 4 -143 4c-84.667 0 -155 -7 -211 -21s-102.5 -38.333 -139.5 -73s-66.833 -81.334 -89.5 -140.001s-43 -132.334 -61 -221.001l-15 -75c-10.667 -59.333 -17.834 -111.833 -21.501 -157.5
s-2.5 -85.334 3.5 -119.001s17.167 -62.167 33.5 -85.5s38.833 -42 67.5 -56s64.167 -24 106.5 -30s92.5 -9 150.5 -9c48 0 95 1.5 141 4.5s85.333 6.16699 118 9.5zM519.001 -19.9971c-92.667 0 -168.498 8.16699 -227.498 24.5s-103.667 44 -134 83
s-47.5 90.5 -51.5 154.5s2.66699 143.667 20 239l20 107c18 98 40.833 179.167 68.5 243.5s63.5 115.666 107.5 153.999s98.333 65.333 163 81s143 23.5 235 23.5c20.667 0 44 -0.5 70 -1.5s52.833 -2.16699 80.5 -3.5s55 -3.16602 82 -5.49902s52.5 -4.83301 76.5 -7.5
c7.33301 -0.666992 10.666 -5 9.99902 -13l-195 -1047c-0.666992 -8 -5.33398 -12.333 -14.001 -13c-58.667 -6 -113.667 -10.667 -165 -14s-100 -5 -146 -5zM721.003 1272c-38.667 0 -71.501 5.49902 -98.501 16.499s-48.667 26.5 -65 46.5s-27.833 44.333 -34.5 73
s-9.33398 60.667 -8.00098 96c0.666992 8 5 12 13 12h39c8 0 11.667 -4 11 -12c-2 -33.333 0 -61.333 6 -84s15.5 -40.667 28.5 -54s28.667 -22.833 47 -28.5s39.166 -8.5 62.499 -8.5c22.667 0 44.834 2.83301 66.501 8.5s41.834 15.334 60.501 29.001
s35.834 31.667 51.501 54s28.834 50.5 39.501 84.5c2.66699 7.33301 8 11 16 11h39c8 0 11 -3.66699 9 -11c-11.333 -36 -24.833 -68.333 -40.5 -97s-34.834 -53 -57.501 -73s-49.167 -35.5 -79.5 -46.5s-65.5 -16.5 -105.5 -16.5z" />
    <glyph glyph-name="Aogonek" unicode="&#x104;" horiz-adv-x="1256" 
d="M-67 0c-8.66699 0 -10.6709 3.33008 -6.00391 9.99707l814 1455c4.66699 6.66699 10.667 10 18 10h64c8.66699 0 13.334 -4 14.001 -12l278 -1451c2 -8 0.666992 -13.667 -4 -17c-31.333 -19.333 -62.666 -41.166 -93.999 -65.499s-59.5 -49.666 -84.5 -75.999
s-45.167 -52.5 -60.5 -78.5s-23 -50 -23 -72c0 -17.333 6.66699 -30.166 20 -38.499s39.333 -12.5 78 -12.5c16 0 33.667 0.5 53 1.5s38 2.5 56 4.5c8 1.33301 11.667 -2 11 -10l-4 -34c-0.666992 -7.33301 -5 -12 -13 -14c-15.333 -3.33301 -33.666 -5.83301 -54.999 -7.5
s-42.666 -2.5 -63.999 -2.5c-30 0 -54.5 2.5 -73.5 7.5s-34 12 -45 21s-18.5 19.5 -22.5 31.5s-6 25 -6 39c0 26.667 6.83301 53.667 20.5 81s32.5 54.833 56.5 82.5s52.333 55 85 82s68 53.167 106 78.5l-89 456h-711l-255 -459c-4.66699 -6.66699 -10.667 -10 -18 -10h-46
zM778.996 1413l-493 -883h665z" />
    <glyph glyph-name="aogonek" unicode="&#x105;" horiz-adv-x="1155" 
d="M519 -20c-92.667 0 -168.497 8.16797 -227.497 24.501s-103.667 44 -134 83s-47.5 90.5 -51.5 154.5s2.66699 143.667 20 239l20 107c18 98 40.833 179.167 68.5 243.5s63.5 115.666 107.5 153.999s98.333 65.333 163 81s143 23.5 235 23.5c20.667 0 44 -0.5 70 -1.5
s52.833 -2.16699 80.5 -3.5s55 -3.16602 82 -5.49902s52.5 -4.83301 76.5 -7.5c7.33301 -0.666992 10.666 -5 9.99902 -13l-194 -1042c-1.33301 -5.33301 -3 -9 -5 -11s-5 -4 -9 -6c-30.667 -13.333 -61.834 -32 -93.501 -56s-60.5 -49.833 -86.5 -77.5
s-47.333 -55.667 -64 -84s-25 -53.5 -25 -75.5c0 -19.333 6.83301 -33.333 20.5 -42s37.5 -13 71.5 -13c15.333 0 31.166 0.166992 47.499 0.5s32.833 2.16602 49.5 5.49902c8 1.33301 11.667 -2 11 -10l-4 -34c-0.666992 -7.33301 -5 -12 -13 -14
c-14.667 -3.33301 -30.834 -5.83301 -48.501 -7.5s-36.5 -2.5 -56.5 -2.5c-30 0 -54.667 3 -74 9s-34.5 13.833 -45.5 23.5s-18.667 20.667 -23 33s-6.5 24.5 -6.5 36.5c0 26.667 7.5 54.667 22.5 84s34 57.5 57 84.5s47.833 51.667 74.5 74s52 40.5 76 54.5
c-73.333 -6 -140.666 -9 -201.999 -9zM970.003 1014c-38 4 -77.999 7.33594 -119.999 10.0029s-89.667 4 -143 4c-84.667 0 -155 -7 -211 -21s-102.5 -38.333 -139.5 -73s-66.833 -81.334 -89.5 -140.001s-43 -132.334 -61 -221.001l-15 -75
c-10.667 -59.333 -17.834 -111.833 -21.501 -157.5s-2.5 -85.334 3.5 -119.001s17.167 -62.167 33.5 -85.5s38.833 -42 67.5 -56s64.167 -24 106.5 -30s92.5 -9 150.5 -9c48 0 95 1.5 141 4.5s85.333 6.16699 118 9.5z" />
    <glyph glyph-name="Cacute" unicode="&#x106;" horiz-adv-x="1151" 
d="M625 -20c-92.667 0 -173.171 11.3311 -241.504 33.998s-122.5 60.834 -162.5 114.501s-65 124.667 -75 213s-2.66699 198.5 22 330.5l22 131c24.667 131.333 58.334 241.333 101.001 330s94 159.834 154 213.501s128.5 91.834 205.5 114.501s161.833 34 254.5 34
c58 0 113.667 -2.5 167 -7.5s98 -11.167 134 -18.5c8.66699 -2 11 -6.66699 7 -14l-14 -35c-3.33301 -6.66699 -9 -9.66699 -17 -9c-20 4 -41.833 7.5 -65.5 10.5s-48 5.5 -73 7.5s-50 3.33301 -75 4s-49.5 1 -73.5 1c-82 0 -157.167 -9.83301 -225.5 -29.5
s-129.166 -53.167 -182.499 -100.5s-99.166 -111 -137.499 -191s-68.833 -180 -91.5 -300l-27 -151c-22.667 -120.667 -29.667 -220.834 -21 -300.501s30.834 -143.334 66.501 -191.001s84 -81.167 145 -100.5s132.833 -29 215.5 -29c64 0 121 2.5 171 7.5
s94.667 11.5 134 19.5c8 0.666992 12 -2.66602 12 -9.99902l2 -34c0 -8 -4 -13 -12 -15c-40 -9.33301 -88 -16.5 -144 -21.5s-114.333 -7.5 -175 -7.5zM797.996 1608c-8 0 -9 2.33301 -3 7l226 180c5.33301 4.66699 12.333 7 21 7h92c8 0 8.66699 -2.33301 2 -7l-255 -180
c-6.66699 -4.66699 -14 -7 -22 -7h-61z" />
    <glyph glyph-name="cacute" unicode="&#x107;" horiz-adv-x="961" 
d="M519 -20c-89.333 0 -163.667 7.33105 -223 21.998s-104.666 41 -135.999 79s-49.333 90.333 -54 157s2.66602 152 21.999 256l14 84c17.333 94 39.833 173.5 67.5 238.5s64 117.833 109 158.5s100.667 70 167 88s146.5 27 240.5 27c42 0 82 -1.83301 120 -5.5
s72.333 -8.16699 103 -13.5c8 -0.666992 10 -5 6 -13l-18 -35c-4 -6.66699 -10 -9.66699 -18 -9c-30.667 5.33301 -64.334 9 -101.001 11s-71.334 3 -104.001 3c-84 0 -154.833 -7.5 -212.5 -22.5s-106 -40.333 -145 -76s-70.5 -83.334 -94.5 -143.001
s-44 -134.167 -60 -223.5l-11 -57c-16.667 -91.333 -24.167 -166.833 -22.5 -226.5s15.334 -107.167 41.001 -142.5s64.667 -60.166 117 -74.499s120.5 -21.5 204.5 -21.5c36.667 0 74 1.33301 112 4s72.667 7.33398 104 14.001c8 0.666992 12.333 -2.66602 13 -9.99902
l2 -35c0.666992 -8.66699 -3 -13.334 -11 -14.001c-16 -3.33301 -33.667 -6.16602 -53 -8.49902s-39.166 -4.33301 -59.499 -6s-40.833 -3 -61.5 -4s-40 -1.5 -58 -1.5zM569.999 1260c-8 0 -9.33301 3 -4 9l238 238c5.33301 6 12 9 20 9h78c7.33301 0 8.33301 -2.66699 3 -8
l-256 -240c-6 -5.33301 -13 -8 -21 -8h-58z" />
    <glyph glyph-name="Ccaron" unicode="&#x10c;" horiz-adv-x="1151" 
d="M625 -20c-92.667 0 -173.171 11.3311 -241.504 33.998s-122.5 60.834 -162.5 114.501s-65 124.667 -75 213s-2.66699 198.5 22 330.5l22 131c24.667 131.333 58.334 241.333 101.001 330s94 159.834 154 213.501s128.5 91.834 205.5 114.501s161.833 34 254.5 34
c58 0 113.667 -2.5 167 -7.5s98 -11.167 134 -18.5c8.66699 -2 11 -6.66699 7 -14l-14 -35c-3.33301 -6.66699 -9 -9.66699 -17 -9c-20 4 -41.833 7.5 -65.5 10.5s-48 5.5 -73 7.5s-50 3.33301 -75 4s-49.5 1 -73.5 1c-82 0 -157.167 -9.83301 -225.5 -29.5
s-129.166 -53.167 -182.499 -100.5s-99.166 -111 -137.499 -191s-68.833 -180 -91.5 -300l-27 -151c-22.667 -120.667 -29.667 -220.834 -21 -300.501s30.834 -143.334 66.501 -191.001s84 -81.167 145 -100.5s132.833 -29 215.5 -29c64 0 121 2.5 171 7.5
s94.667 11.5 134 19.5c8 0.666992 12 -2.66602 12 -9.99902l2 -34c0 -8 -4 -13 -12 -15c-40 -9.33301 -88 -16.5 -144 -21.5s-114.333 -7.5 -175 -7.5zM648.996 1793c-5.33301 6 -3.99902 9 4.00098 9h54c8 0 14.667 -3 20 -9l131 -131h21l183 133
c5.33301 4.66699 12.666 7 21.999 7h73c8 0 8.66699 -2.33301 2 -7l-252 -180c-6.66699 -4.66699 -14 -7 -22 -7h-42c-8 0 -14.667 3 -20 9z" />
    <glyph glyph-name="ccaron" unicode="&#x10d;" horiz-adv-x="961" 
d="M519 -20c-89.333 0 -163.667 7.33105 -223 21.998s-104.666 41 -135.999 79s-49.333 90.333 -54 157s2.66602 152 21.999 256l14 84c17.333 94 39.833 173.5 67.5 238.5s64 117.833 109 158.5s100.667 70 167 88s146.5 27 240.5 27c42 0 82 -1.83301 120 -5.5
s72.333 -8.16699 103 -13.5c8 -0.666992 10 -5 6 -13l-18 -35c-4 -6.66699 -10 -9.66699 -18 -9c-30.667 5.33301 -64.334 9 -101.001 11s-71.334 3 -104.001 3c-84 0 -154.833 -7.5 -212.5 -22.5s-106 -40.333 -145 -76s-70.5 -83.334 -94.5 -143.001
s-44 -134.167 -60 -223.5l-11 -57c-16.667 -91.333 -24.167 -166.833 -22.5 -226.5s15.334 -107.167 41.001 -142.5s64.667 -60.166 117 -74.499s120.5 -21.5 204.5 -21.5c36.667 0 74 1.33301 112 4s72.667 7.33398 104 14.001c8 0.666992 12.333 -2.66602 13 -9.99902
l2 -35c0.666992 -8.66699 -3 -13.334 -11 -14.001c-16 -3.33301 -33.667 -6.16602 -53 -8.49902s-39.166 -4.33301 -59.499 -6s-40.833 -3 -61.5 -4s-40 -1.5 -58 -1.5zM466.999 1506c-4.66699 6.66699 -3 10 5 10h51c8.66699 0 15 -3.33301 19 -10l122 -179h21l183 181
c6 5.33301 13 8 21 8h66c7.33301 0 8.33301 -2.66699 3 -8l-248 -230c-6 -5.33301 -13 -8 -21 -8h-41c-8.66699 0 -15 3.33301 -19 10z" />
    <glyph glyph-name="Dcaron" unicode="&#x10e;" horiz-adv-x="1405" 
d="M479 -16c-26.667 0 -54.835 0.333984 -84.502 1.00098s-59.834 1.5 -90.501 2.5s-61.334 2.5 -92.001 4.5s-60 4.33301 -88 7c-7.33301 0.666992 -10.666 5 -9.99902 13l269 1451c0.666992 8 5.33398 12.333 14.001 13c30 2 61.667 3.5 95 4.5s66 1.83301 98 2.5
s62.167 1.16699 90.5 1.5s52.5 0.5 72.5 0.5c60.667 0 118.334 -3.16699 173.001 -9.5s104.5 -18.333 149.5 -36s84.167 -42.334 117.5 -74.001s59.166 -73 77.499 -124s28.333 -113.167 30 -186.5s-6.5 -160 -24.5 -260l-21 -113c-18.667 -100 -41.5 -186.833 -68.5 -260.5
s-58 -136.334 -93 -188.001s-74 -93.667 -117 -126s-90.167 -57.666 -141.5 -75.999s-106.666 -30.833 -165.999 -37.5s-122.666 -10 -189.999 -10zM740.999 1423c-19.333 0 -42.6699 -0.166016 -70.0029 -0.499023s-55.166 -0.833008 -83.499 -1.5s-56 -1.5 -83 -2.5
s-49.833 -2.16699 -68.5 -3.5l-252 -1358c22.667 -2 47 -3.83301 73 -5.5s52.167 -3 78.5 -4s52.5 -1.66699 78.5 -2s50.333 -0.5 73 -0.5c64 0 123.667 3.33301 179 10s106.333 18.667 153 36s89.334 41.166 128.001 71.499s73.334 68.833 104.001 115.5
s57.667 102.834 81 168.501s43.333 142.834 60 231.501l22 119c16 88 24.5 164.5 25.5 229.5s-5.16699 120.833 -18.5 167.5s-33.833 84.667 -61.5 114s-61.667 52.666 -102 69.999s-87 29.166 -140 35.499s-111.833 9.5 -176.5 9.5zM601.995 1793
c-5.33301 6 -3.99902 9 4.00098 9h54c8 0 14.667 -3 20 -9l131 -131h21l183 133c5.33301 4.66699 12.666 7 21.999 7h73c8 0 8.66699 -2.33301 2 -7l-252 -180c-6.66699 -4.66699 -14 -7 -22 -7h-42c-8 0 -14.667 3 -20 9z" />
    <glyph glyph-name="dcaron" unicode="&#x10f;" horiz-adv-x="1152" 
d="M706 1028c-84.667 0 -155.333 -7.16406 -212 -21.4971s-103.667 -39 -141 -74s-67.333 -81.667 -90 -140s-42 -131.5 -58 -219.5l-15 -75c-16 -88.667 -23.667 -162.334 -23 -221.001s13.334 -105.5 38.001 -140.5s63.167 -59.667 115.5 -74s122.166 -21.5 209.499 -21.5
c44 0 88 1.83301 132 5.5s86.667 8.5 128 14.5l177 940c-18.667 4 -39.167 7.66699 -61.5 11s-45.166 6.16602 -68.499 8.49902s-46.333 4.16602 -69 5.49902s-43.334 2 -62.001 2zM518.001 -19.9971c-92.667 0 -168.496 8.16797 -227.496 24.501s-103.667 44 -134 83
s-47.5 90.5 -51.5 154.5s2.66699 143.667 20 239l20 107c17.333 94 39.666 173.167 66.999 237.5s63.166 116 107.499 155s99 67 164 84s143.5 25.5 235.5 25.5c44 0 88.667 -2.66699 134 -8s86.666 -11.666 123.999 -18.999l98 527c0.666992 8 5 13 13 15l44 14
c6.66699 2 9.66699 -1 9 -9l-295 -1586c-0.666992 -8.66699 -5.33398 -13.334 -14.001 -14.001c-58.667 -10.667 -114.167 -18.334 -166.5 -23.001s-101.5 -7 -147.5 -7zM1218 1231c-7.33301 0 -10.668 4 -10.001 12l65 347c0.666992 8 5.33398 13 14.001 15l52 14
c8 2 11 -1 9 -9l-82 -367c-2 -8 -7 -12 -15 -12h-33z" />
    <glyph glyph-name="Dcroat" unicode="&#x110;" horiz-adv-x="1408" 
d="M482 -16c-26.667 0 -54.835 0.333984 -84.502 1.00098s-59.834 1.5 -90.501 2.5s-61.334 2.5 -92.001 4.5s-60 4.33301 -88 7c-7.33301 0.666992 -10.666 5 -9.99902 13l140 758h-186c-8 0 -11 4 -9 12l7 37c2 8 7 12 15 12h185l117 632
c0.666992 8 5.33398 12.333 14.001 13c30 2 61.667 3.5 95 4.5s66 1.83301 98 2.5s62.167 1.16699 90.5 1.5s52.5 0.5 72.5 0.5c60.667 0 118.334 -3.16699 173.001 -9.5s104.5 -18.333 149.5 -36s84.167 -42.334 117.5 -74.001s59.166 -73 77.499 -124
s28.333 -113.167 30 -186.5s-6.5 -160 -24.5 -260l-21 -113c-18.667 -100 -41.5 -186.833 -68.5 -260.5s-58 -136.334 -93 -188.001s-74 -93.667 -117 -126s-90.167 -57.666 -141.5 -75.999s-106.666 -30.833 -165.999 -37.5s-122.666 -10 -189.999 -10zM743.999 1423
c-19.333 0 -42.6719 -0.166016 -70.0049 -0.499023s-55.166 -0.833008 -83.499 -1.5s-56 -1.5 -83 -2.5s-49.833 -2.16699 -68.5 -3.5l-109 -584h289c8 0 11 -4 9 -12l-7 -37c-2 -8 -7 -12 -15 -12h-287l-132 -713c22.667 -2 47 -3.83301 73 -5.5s52.167 -3 78.5 -4
s52.5 -1.66699 78.5 -2s50.333 -0.5 73 -0.5c64 0 123.667 3.33301 179 10s106.333 18.667 153 36s89.334 41.166 128.001 71.499s73.334 68.833 104.001 115.5s57.667 102.834 81 168.501s43.333 142.834 60 231.501l22 119c16.667 88 25.334 164.5 26.001 229.5
s-5.66602 120.833 -18.999 167.5s-33.833 84.667 -61.5 114s-61.667 52.666 -102 69.999s-87 29.166 -140 35.499s-111.833 9.5 -176.5 9.5z" />
    <glyph glyph-name="dcroat" unicode="&#x111;" horiz-adv-x="1152" 
d="M518 -20c-92.667 0 -168.496 8.16797 -227.496 24.501s-103.667 44 -134 83s-47.5 90.5 -51.5 154.5s2.66699 143.667 20 239l20 107c17.333 94 39.666 173.167 66.999 237.5s63.166 116 107.499 155s99 67 164 84s143.5 25.5 235.5 25.5c44 0 88.667 -2.66699 134 -8
s86.666 -11.666 123.999 -18.999l44 236h-322c-7.33301 0 -10.666 4 -9.99902 12l7 37c0.666992 8 5.33398 12 14.001 12h322l43 230c0.666992 8 5 13 13 15l44 14c6.66699 2 9.66699 -1 9 -9l-47 -250h128c7.33301 0 10.666 -4 9.99902 -12l-7 -37
c-0.666992 -8 -5.33398 -12 -14.001 -12h-128l-237 -1275c-0.666992 -8.66699 -5.33398 -13.334 -14.001 -14.001c-58.667 -10.667 -114.167 -18.334 -166.5 -23.001s-101.5 -7 -147.5 -7zM706.004 1028c-84.667 0 -155.333 -7.16406 -212 -21.4971s-103.667 -39 -141 -74
s-67.333 -81.667 -90 -140s-42 -131.5 -58 -219.5l-15 -75c-16 -88.667 -23.667 -162.334 -23 -221.001s13.334 -105.5 38.001 -140.5s63.167 -59.667 115.5 -74s122.166 -21.5 209.499 -21.5c44 0 88 1.83301 132 5.5s86.667 8.5 128 14.5l177 940
c-18.667 4 -39.167 7.66699 -61.5 11s-45.166 6.16602 -68.499 8.49902s-46.333 4.16602 -69 5.49902s-43.334 2 -62.001 2z" />
    <glyph glyph-name="Emacron" unicode="&#x112;" horiz-adv-x="1182" 
d="M125 0c-7.33301 0 -10.6631 4 -9.99609 12l269 1451c0.666992 8 5.33398 12 14.001 12h801c7.33301 0 10.666 -4 9.99902 -12l-6 -38c-2 -8 -6.66699 -12 -14 -12h-752l-105 -563h668c7.33301 0 10.666 -4 9.99902 -12l-8 -38c-0.666992 -8 -5.33398 -12 -14.001 -12
h-668l-133 -727h752c7.33301 0 10.666 -4 9.99902 -12l-8 -37c-0.666992 -8 -5.33398 -12 -14.001 -12h-802zM584.003 1659c-7.33301 0 -10.666 4 -9.99902 12l8 37c0.666992 8 5.33398 12 14.001 12h455c7.33301 0 10.666 -4 9.99902 -12l-8 -37
c-0.666992 -8 -5.33398 -12 -14.001 -12h-455z" />
    <glyph glyph-name="emacron" unicode="&#x113;" horiz-adv-x="1142" 
d="M489 -20c-82.667 0 -151.504 9.16602 -206.504 27.499s-97.167 48.166 -126.5 89.499s-46.166 95.833 -50.499 163.5s2.83398 150.834 21.501 249.501l12 70c16 85.333 37.833 160 65.5 224s63 117.167 106 159.5s94.667 74 155 95s131.166 31.5 212.499 31.5
c65.333 0 121.5 -7.5 168.5 -22.5s85.5 -37 115.5 -66s52.167 -64.833 66.5 -107.5s21.5 -91.334 21.5 -146.001c0 -27.333 -1.5 -52.333 -4.5 -75s-6.5 -43.167 -10.5 -61.5s-8.16699 -34 -12.5 -47s-7.83301 -22.833 -10.5 -29.5c-4 -7.33301 -9.66699 -11 -17 -11h-805
l-2 -14c-16 -85.333 -23.167 -157.666 -21.5 -216.999s14.167 -107.666 37.5 -144.999s58.833 -64.5 106.5 -81.5s109.834 -25.5 186.501 -25.5c54.667 0 110.334 1.16699 167.001 3.5s115.334 6.5 176.001 12.5c8 0.666992 12.333 -3 13 -11l4 -34
c0.666992 -8 -3 -12.333 -11 -13c-56 -6 -112.5 -10.667 -169.5 -14s-119.5 -5 -187.5 -5zM965.996 583.999c14.667 75.333 21.1689 140.833 19.502 196.5s-13.834 101.834 -36.501 138.501s-56.834 64 -102.501 82s-105.5 27 -179.5 27c-71.333 0 -133 -8.83301 -185 -26.5
s-96.167 -44.667 -132.5 -81s-66.333 -82.333 -90 -138s-43.167 -121.834 -58.5 -198.501h765zM471.998 1352c-8 0 -11 4 -9 12l7 37c2 8 7 12 15 12h455c8 0 11 -4 9 -12l-7 -37c-2 -8 -7 -12 -15 -12h-455z" />
    <glyph glyph-name="Edotaccent" unicode="&#x116;" horiz-adv-x="1182" 
d="M125 0c-7.33301 0 -10.6631 4 -9.99609 12l269 1451c0.666992 8 5.33398 12 14.001 12h801c7.33301 0 10.666 -4 9.99902 -12l-6 -38c-2 -8 -6.66699 -12 -14 -12h-752l-105 -563h668c7.33301 0 10.666 -4 9.99902 -12l-8 -38c-0.666992 -8 -5.33398 -12 -14.001 -12
h-668l-133 -727h752c7.33301 0 10.666 -4 9.99902 -12l-8 -37c-0.666992 -8 -5.33398 -12 -14.001 -12h-802zM776.003 1608c-7.33301 0 -10.666 4 -9.99902 12l35 191c0.666992 8 5.33398 13 14.001 15l54 14c7.33301 2 10.666 -1 9.99902 -9l-39 -211
c-0.666992 -8 -5.33398 -12 -14.001 -12h-50z" />
    <glyph glyph-name="edotaccent" unicode="&#x117;" horiz-adv-x="1142" 
d="M489 -20c-82.667 0 -151.504 9.16602 -206.504 27.499s-97.167 48.166 -126.5 89.499s-46.166 95.833 -50.499 163.5s2.83398 150.834 21.501 249.501l12 70c16 85.333 37.833 160 65.5 224s63 117.167 106 159.5s94.667 74 155 95s131.166 31.5 212.499 31.5
c65.333 0 121.5 -7.5 168.5 -22.5s85.5 -37 115.5 -66s52.167 -64.833 66.5 -107.5s21.5 -91.334 21.5 -146.001c0 -27.333 -1.5 -52.333 -4.5 -75s-6.5 -43.167 -10.5 -61.5s-8.16699 -34 -12.5 -47s-7.83301 -22.833 -10.5 -29.5c-4 -7.33301 -9.66699 -11 -17 -11h-805
l-2 -14c-16 -85.333 -23.167 -157.666 -21.5 -216.999s14.167 -107.666 37.5 -144.999s58.833 -64.5 106.5 -81.5s109.834 -25.5 186.501 -25.5c54.667 0 110.334 1.16699 167.001 3.5s115.334 6.5 176.001 12.5c8 0.666992 12.333 -3 13 -11l4 -34
c0.666992 -8 -3 -12.333 -11 -13c-56 -6 -112.5 -10.667 -169.5 -14s-119.5 -5 -187.5 -5zM965.996 583.999c14.667 75.333 21.1689 140.833 19.502 196.5s-13.834 101.834 -36.501 138.501s-56.834 64 -102.501 82s-105.5 27 -179.5 27c-71.333 0 -133 -8.83301 -185 -26.5
s-96.167 -44.667 -132.5 -81s-66.333 -82.333 -90 -138s-43.167 -121.834 -58.5 -198.501h765zM673.998 1260c-7.33301 0 -10.666 4 -9.99902 12l47 252c0.666992 8 5.33398 13 14.001 15l54 14c7.33301 2 10.666 -1 9.99902 -9l-52 -272
c-0.666992 -8 -5.33398 -12 -14.001 -12h-49z" />
    <glyph glyph-name="Eogonek" unicode="&#x118;" horiz-adv-x="1182" 
d="M756 -348c16 0 33.667 0.499023 53 1.49902s38 2.5 56 4.5c8 1.33301 11.667 -2 11 -10l-4 -34c-0.666992 -7.33301 -5 -12 -13 -14c-15.333 -3.33301 -33.666 -5.83301 -54.999 -7.5s-42.666 -2.5 -63.999 -2.5c-30 0 -54.5 2.5 -73.5 7.5s-34 12 -45 21
s-18.667 19.5 -23 31.5s-6.5 25 -6.5 39c0 24 6.33301 50.667 19 80s28.667 58.333 48 87s40.5 55.834 63.5 81.501s44.5 46.5 64.5 62.5h-662c-7.33301 0 -10.666 4 -9.99902 12l269 1451c0.666992 8 5.33398 12 14.001 12h801c7.33301 0 10.666 -4 9.99902 -12l-6 -38
c-2 -8 -6.66699 -12 -14 -12h-752l-105 -563h668c7.33301 0 10.666 -4 9.99902 -12l-8 -38c-0.666992 -8 -5.33398 -12 -14.001 -12h-668l-133 -727h752c7.33301 0 10.666 -4 9.99902 -12l-8 -37c-0.666992 -8 -5.33398 -12 -14.001 -12h-68
c-23.333 -17.333 -46.833 -38.833 -70.5 -64.5s-45.167 -52.334 -64.5 -80.001s-35.166 -55 -47.499 -82s-18.5 -50.5 -18.5 -70.5c0 -8.66699 1.5 -16.167 4.5 -22.5s8.16699 -11.666 15.5 -15.999s17.333 -7.5 30 -9.5s28.667 -3 48 -3z" />
    <glyph glyph-name="eogonek" unicode="&#x119;" horiz-adv-x="1142" 
d="M702 -348c16 0 33.6621 0.499023 52.9951 1.49902s38 2.5 56 4.5c8 1.33301 11.667 -2 11 -10l-4 -34c-0.666992 -7.33301 -5 -12 -13 -14c-15.333 -3.33301 -33.666 -5.83301 -54.999 -7.5s-42.666 -2.5 -63.999 -2.5c-30 0 -54.5 2.5 -73.5 7.5s-34 12 -45 21
s-18.667 19.5 -23 31.5s-6.5 25 -6.5 39c0 22.667 5.66699 47.667 17 75s25.833 54.666 43.5 81.999s37 53.5 58 78.5s41.5 46.167 61.5 63.5c-36 -2.66699 -72.667 -4.66699 -110 -6s-77 -2 -119 -2c-82.667 0 -151.5 9.16699 -206.5 27.5s-97.167 48.166 -126.5 89.499
s-46.166 95.833 -50.499 163.5s2.83398 150.834 21.501 249.501l12 70c16 85.333 37.833 160 65.5 224s63 117.167 106 159.5s94.667 74 155 95s131.166 31.5 212.499 31.5c65.333 0 121.5 -7.5 168.5 -22.5s85.5 -37 115.5 -66s52.167 -64.833 66.5 -107.5
s21.5 -91.334 21.5 -146.001c0 -27.333 -1.5 -52.333 -4.5 -75s-6.5 -43.167 -10.5 -61.5s-8.16699 -34 -12.5 -47s-7.83301 -22.833 -10.5 -29.5c-4 -7.33301 -9.66699 -11 -17 -11h-805l-2 -14c-16 -85.333 -23.167 -157.666 -21.5 -216.999
s14.167 -107.666 37.5 -144.999s58.833 -64.5 106.5 -81.5s109.834 -25.5 186.501 -25.5c54.667 0 110.334 1.16699 167.001 3.5s115.334 6.5 176.001 12.5c8 0.666992 12.333 -3 13 -11l4 -34c0.666992 -8 -3 -12.333 -11 -13l-49 -5c-23.333 -18 -46.333 -39.5 -69 -64.5
s-43.334 -51 -62.001 -78s-33.667 -53.5 -45 -79.5s-17 -49 -17 -69c0 -8.66699 1.5 -16.167 4.5 -22.5s8.16699 -11.666 15.5 -15.999s17.333 -7.5 30 -9.5s28.667 -3 48 -3zM965.995 583.999c14.667 75.333 21.1689 140.833 19.502 196.5s-13.834 101.834 -36.501 138.501
s-56.834 64 -102.501 82s-105.5 27 -179.5 27c-71.333 0 -133 -8.83301 -185 -26.5s-96.167 -44.667 -132.5 -81s-66.333 -82.333 -90 -138s-43.167 -121.834 -58.5 -198.501h765z" />
    <glyph glyph-name="Ecaron" unicode="&#x11a;" horiz-adv-x="1182" 
d="M125 0c-7.33301 0 -10.6631 4 -9.99609 12l269 1451c0.666992 8 5.33398 12 14.001 12h801c7.33301 0 10.666 -4 9.99902 -12l-6 -38c-2 -8 -6.66699 -12 -14 -12h-752l-105 -563h668c7.33301 0 10.666 -4 9.99902 -12l-8 -38c-0.666992 -8 -5.33398 -12 -14.001 -12
h-668l-133 -727h752c7.33301 0 10.666 -4 9.99902 -12l-8 -37c-0.666992 -8 -5.33398 -12 -14.001 -12h-802zM600.003 1793c-5.33301 6 -3.99902 9 4.00098 9h54c8 0 14.667 -3 20 -9l131 -131h21l183 133c5.33301 4.66699 12.666 7 21.999 7h73c8 0 8.66699 -2.33301 2 -7
l-252 -180c-6.66699 -4.66699 -14 -7 -22 -7h-42c-8 0 -14.667 3 -20 9z" />
    <glyph glyph-name="ecaron" unicode="&#x11b;" horiz-adv-x="1142" 
d="M489 -20c-82.667 0 -151.504 9.16602 -206.504 27.499s-97.167 48.166 -126.5 89.499s-46.166 95.833 -50.499 163.5s2.83398 150.834 21.501 249.501l12 70c16 85.333 37.833 160 65.5 224s63 117.167 106 159.5s94.667 74 155 95s131.166 31.5 212.499 31.5
c65.333 0 121.5 -7.5 168.5 -22.5s85.5 -37 115.5 -66s52.167 -64.833 66.5 -107.5s21.5 -91.334 21.5 -146.001c0 -27.333 -1.5 -52.333 -4.5 -75s-6.5 -43.167 -10.5 -61.5s-8.16699 -34 -12.5 -47s-7.83301 -22.833 -10.5 -29.5c-4 -7.33301 -9.66699 -11 -17 -11h-805
l-2 -14c-16 -85.333 -23.167 -157.666 -21.5 -216.999s14.167 -107.666 37.5 -144.999s58.833 -64.5 106.5 -81.5s109.834 -25.5 186.501 -25.5c54.667 0 110.334 1.16699 167.001 3.5s115.334 6.5 176.001 12.5c8 0.666992 12.333 -3 13 -11l4 -34
c0.666992 -8 -3 -12.333 -11 -13c-56 -6 -112.5 -10.667 -169.5 -14s-119.5 -5 -187.5 -5zM965.996 583.999c14.667 75.333 21.1689 140.833 19.502 196.5s-13.834 101.834 -36.501 138.501s-56.834 64 -102.501 82s-105.5 27 -179.5 27c-71.333 0 -133 -8.83301 -185 -26.5
s-96.167 -44.667 -132.5 -81s-66.333 -82.333 -90 -138s-43.167 -121.834 -58.5 -198.501h765zM486.998 1506c-4.66699 6.66699 -3 10 5 10h51c8.66699 0 15 -3.33301 19 -10l122 -179h21l183 181c6 5.33301 13 8 21 8h66c7.33301 0 8.33301 -2.66699 3 -8l-248 -230
c-6 -5.33301 -13 -8 -21 -8h-41c-8.66699 0 -15 3.33301 -19 10z" />
    <glyph glyph-name="Gbreve" unicode="&#x11e;" horiz-adv-x="1257" 
d="M1114 754c7.33301 0 10.6641 -4.00195 9.99707 -12.002l-131 -707c-0.666992 -8 -5.33398 -13 -14.001 -15c-67.333 -16 -130.833 -26.667 -190.5 -32s-119.167 -8 -178.5 -8c-93.333 0 -173.166 11.333 -239.499 34s-118.333 60.834 -156 114.501
s-60.334 124.667 -68.001 213s0.833008 198.5 25.5 330.5l22 131c24.667 131.333 57.167 241.333 97.5 330s89.833 159.834 148.5 213.501s126.834 91.834 204.501 114.501s166.5 34 266.5 34c58.667 0 114.334 -2.5 167.001 -7.5s96.667 -11.833 132 -20.5
c8 -2 10.667 -6.66699 8 -14l-13 -33c-3.33301 -6.66699 -9 -9.66699 -17 -9c-20 4 -41.833 7.5 -65.5 10.5s-48 5.5 -73 7.5s-50 3.33301 -75 4s-49.5 1 -73.5 1c-86 0 -163.333 -9.83301 -232 -29.5s-129.5 -53.167 -182.5 -100.5s-98 -111 -135 -191
s-66.833 -180 -89.5 -300l-27 -151c-22.667 -120.667 -30.667 -220.834 -24 -300.501s26.667 -143.334 60 -191.001s79.5 -81.167 138.5 -100.5s129.833 -29 212.5 -29c66 0 124.667 2.33301 176 7s98 11.334 140 20.001l115 624h-355c-7.33301 0 -10.666 4 -9.99902 12
l8 38c0.666992 8 5.33398 12 14.001 12h404zM883.998 1591c-69.333 0 -122.335 17.833 -159.002 53.5s-54 84.167 -52 145.5c0.666992 8 5 12 13 12h33c8 0 12 -4 12 -12c0 -29.333 4.33301 -53.333 13 -72s20.5 -33.5 35.5 -44.5s31.833 -18.667 50.5 -23s38 -6.5 58 -6.5
c22 0 43.5 2.33301 64.5 7s40.833 12.667 59.5 24s35.334 26.5 50.001 45.5s27 42.5 37 70.5c2.66699 7.33301 8 11 16 11h39c8.66699 0 11.334 -3.66699 8.00098 -11c-11.333 -32 -25 -60.333 -41 -85s-35.167 -45.5 -57.5 -62.5s-48.333 -30 -78 -39
s-63.5 -13.5 -101.5 -13.5z" />
    <glyph glyph-name="gbreve" unicode="&#x11f;" horiz-adv-x="1156" 
d="M697 1272c-38.667 0 -71.501 5.49902 -98.501 16.499s-48.667 26.5 -65 46.5s-27.833 44.333 -34.5 73s-9.33398 60.667 -8.00098 96c0.666992 8 5 12 13 12h39c8 0 11.667 -4 11 -12c-2 -33.333 0 -61.333 6 -84s15.5 -40.667 28.5 -54s28.667 -22.833 47 -28.5
s39.166 -8.5 62.499 -8.5c22.667 0 44.834 2.83301 66.501 8.5s41.834 15.334 60.501 29.001s35.834 31.667 51.501 54s28.834 50.5 39.501 84.5c2.66699 7.33301 8 11 16 11h39c8 0 11 -3.66699 9 -11c-11.333 -36 -24.833 -68.333 -40.5 -97s-34.834 -53 -57.501 -73
s-49.167 -35.5 -79.5 -46.5s-65.5 -16.5 -105.5 -16.5zM292.999 -471.001c-16 0 -35.167 0.331055 -57.5 0.998047s-45.666 1.66699 -69.999 3s-48.333 3.33301 -72 6s-44.834 5.66699 -63.501 9c-8.66699 0.666992 -11 5 -7 13l15 37c3.33301 6.66699 9 9.66699 17 9
c34.667 -6.66699 73.5 -11.167 116.5 -13.5s87.5 -3.5 133.5 -3.5c66.667 0 125.834 4.66699 177.501 14s96.834 28.5 135.501 57.5s71.167 69.833 97.5 122.5s47.833 122.667 64.5 210c-14.667 -1.33301 -32.334 -2.83301 -53.001 -4.5s-42.334 -3.16699 -65.001 -4.5
s-45.667 -2.5 -69 -3.5s-45 -1.5 -65 -1.5c-96.667 0 -175.167 8.83301 -235.5 26.5s-105.666 46.334 -135.999 86.001s-47.166 91.334 -50.499 155.001s3.66699 141.5 21 233.5l20 107c18 98 40.833 179.167 68.5 243.5s63.5 115.666 107.5 153.999s98.333 65.333 163 81
s143 23.5 235 23.5c20.667 0 44 -0.5 70 -1.5s52.833 -2.16699 80.5 -3.5s55 -3.16602 82 -5.49902s52.5 -4.83301 76.5 -7.5c7.33301 -0.666992 10.666 -5 9.99902 -13l-196 -1059c-18.667 -98 -42.834 -177.5 -72.501 -238.5s-66.5 -108.833 -110.5 -143.5
s-96.333 -58.167 -157 -70.5s-131 -18.5 -211 -18.5zM707.999 1028c-84.667 0 -154.999 -6.99707 -210.999 -20.9971s-102.5 -38.333 -139.5 -73s-66.833 -81.334 -89.5 -140.001s-43 -132.334 -61 -221.001l-15 -75c-10.667 -59.333 -17.834 -111.833 -21.501 -157.5
s-2.5 -85.334 3.5 -119.001s17.167 -62.167 33.5 -85.5s38.833 -42 67.5 -56s64.167 -24 106.5 -30s92.5 -9 150.5 -9c48 0 95 1.5 141 4.5s85.333 6.16699 118 9.5l180 959c-38 4 -78 7.33301 -120 10s-89.667 4 -143 4z" />
    <glyph glyph-name="Gcommaaccent" unicode="&#x122;" horiz-adv-x="1257" 
d="M1114 754c7.33301 0 10.6641 -4.00195 9.99707 -12.002l-131 -707c-0.666992 -8 -5.33398 -13 -14.001 -15c-67.333 -16 -130.833 -26.667 -190.5 -32s-119.167 -8 -178.5 -8c-93.333 0 -173.166 11.333 -239.499 34s-118.333 60.834 -156 114.501
s-60.334 124.667 -68.001 213s0.833008 198.5 25.5 330.5l22 131c24.667 131.333 57.167 241.333 97.5 330s89.833 159.834 148.5 213.501s126.834 91.834 204.501 114.501s166.5 34 266.5 34c58.667 0 114.334 -2.5 167.001 -7.5s96.667 -11.833 132 -20.5
c8 -2 10.667 -6.66699 8 -14l-13 -33c-3.33301 -6.66699 -9 -9.66699 -17 -9c-20 4 -41.833 7.5 -65.5 10.5s-48 5.5 -73 7.5s-50 3.33301 -75 4s-49.5 1 -73.5 1c-86 0 -163.333 -9.83301 -232 -29.5s-129.5 -53.167 -182.5 -100.5s-98 -111 -135 -191
s-66.833 -180 -89.5 -300l-27 -151c-22.667 -120.667 -30.667 -220.834 -24 -300.501s26.667 -143.334 60 -191.001s79.5 -81.167 138.5 -100.5s129.833 -29 212.5 -29c66 0 124.667 2.33301 176 7s98 11.334 140 20.001l115 624h-355c-7.33301 0 -10.666 4 -9.99902 12
l8 38c0.666992 8 5.33398 12 14.001 12h404zM427.998 -430.002c-8 0 -10.333 3.66699 -7 11l132 273c4 7.33301 9.66699 12 17 14l60 14c8 2 10.333 -0.666992 7 -8l-152 -293c-4 -7.33301 -9.66699 -11 -17 -11h-40z" />
    <glyph glyph-name="gcommaaccent" unicode="&#x123;" horiz-adv-x="1156" 
d="M652 1264c-7.33301 -0.666992 -9.66699 2.33301 -7 9l137 272c3.33301 7.33301 9 11 17 11h40c8 0 10.333 -3.66699 7 -11l-107 -252c-4 -8 -9.66699 -12.333 -17 -13zM291.999 -471c-16 0 -35.167 0.331055 -57.5 0.998047s-45.666 1.66699 -69.999 3
s-48.333 3.33301 -72 6s-44.834 5.66699 -63.501 9c-8.66699 0.666992 -11 5 -7 13l15 37c3.33301 6.66699 9 9.66699 17 9c34.667 -6.66699 73.5 -11.167 116.5 -13.5s87.5 -3.5 133.5 -3.5c66.667 0 125.834 4.66699 177.501 14s96.834 28.5 135.501 57.5
s71.167 69.833 97.5 122.5s47.833 122.667 64.5 210c-14.667 -1.33301 -32.334 -2.83301 -53.001 -4.5s-42.334 -3.16699 -65.001 -4.5s-45.667 -2.5 -69 -3.5s-45 -1.5 -65 -1.5c-96.667 0 -175.167 8.83301 -235.5 26.5s-105.666 46.334 -135.999 86.001
s-47.166 91.334 -50.499 155.001s3.66699 141.5 21 233.5l20 107c18 98 40.833 179.167 68.5 243.5s63.5 115.666 107.5 153.999s98.333 65.333 163 81s143 23.5 235 23.5c20.667 0 44 -0.5 70 -1.5s52.833 -2.16699 80.5 -3.5s55 -3.16602 82 -5.49902
s52.5 -4.83301 76.5 -7.5c7.33301 -0.666992 10.666 -5 9.99902 -13l-196 -1059c-18.667 -98 -42.834 -177.5 -72.501 -238.5s-66.5 -108.833 -110.5 -143.5s-96.333 -58.167 -157 -70.5s-131 -18.5 -211 -18.5zM706.999 1028
c-84.667 0 -154.999 -6.99707 -210.999 -20.9971s-102.5 -38.333 -139.5 -73s-66.833 -81.334 -89.5 -140.001s-43 -132.334 -61 -221.001l-15 -75c-10.667 -59.333 -17.834 -111.833 -21.501 -157.5s-2.5 -85.334 3.5 -119.001s17.167 -62.167 33.5 -85.5
s38.833 -42 67.5 -56s64.167 -24 106.5 -30s92.5 -9 150.5 -9c48 0 95 1.5 141 4.5s85.333 6.16699 118 9.5l180 959c-38 4 -78 7.33301 -120 10s-89.667 4 -143 4z" />
    <glyph glyph-name="Imacron" unicode="&#x12a;" horiz-adv-x="521" 
d="M283 1659c-7.33301 0 -10.666 4 -9.99902 12l8 37c0.666992 8 5.33398 12 14.001 12h312c7.33301 0 10.666 -4 9.99902 -12l-8 -37c-0.666992 -8 -5.33398 -12 -14.001 -12h-312zM125 0c-7.33301 0 -10.666 4 -9.99902 12l269 1451c0.666992 8 5.33398 12 14.001 12h37
c7.33301 0 10.666 -4 9.99902 -12l-268 -1451c-0.666992 -8 -5.33398 -12 -14.001 -12h-38z" />
    <glyph glyph-name="imacron" unicode="&#x12b;" horiz-adv-x="454" 
d="M192 1331c-7.33301 0 -10.666 4 -9.99902 12l8 38c0.666992 8 5.33398 12 14.001 12h333c7.33301 0 10.666 -4 9.99902 -12l-9 -38c-0.666992 -8 -5.33398 -12 -14.001 -12h-332zM94 0c-7.33301 0 -10.666 4 -9.99902 12l194 1047c0.666992 8 5.33398 12 14.001 12h38
c7.33301 0 10.666 -4 9.99902 -12l-195 -1047c-0.666992 -8 -5.33398 -12 -14.001 -12h-37z" />
    <glyph glyph-name="Ibreve" unicode="&#x12c;" horiz-adv-x="522" 
d="M126 0c-7.33301 0 -10.666 4 -9.99902 12l269 1451c0.666992 8 5.33398 12 14.001 12h37c7.33301 0 10.666 -4 9.99902 -12l-268 -1451c-0.666992 -8 -5.33398 -12 -14.001 -12h-38zM433 1591c-69.333 0 -122.335 17.833 -159.002 53.5s-54 84.167 -52 145.5
c0.666992 8 5 12 13 12h33c8 0 12 -4 12 -12c0 -29.333 4.33301 -53.333 13 -72s20.5 -33.5 35.5 -44.5s31.833 -18.667 50.5 -23s38 -6.5 58 -6.5c22 0 43.5 2.33301 64.5 7s40.833 12.667 59.5 24s35.334 26.5 50.001 45.5s27 42.5 37 70.5c2.66699 7.33301 8 11 16 11h39
c8.66699 0 11.334 -3.66699 8.00098 -11c-11.333 -32 -25 -60.333 -41 -85s-35.167 -45.5 -57.5 -62.5s-48.333 -30 -78 -39s-63.5 -13.5 -101.5 -13.5z" />
    <glyph glyph-name="ibreve" unicode="&#x12d;" horiz-adv-x="454" 
d="M94 0c-7.33301 0 -10.666 4 -9.99902 12l194 1047c0.666992 8 5.33398 12 14.001 12h38c7.33301 0 10.666 -4 9.99902 -12l-195 -1047c-0.666992 -8 -5.33398 -12 -14.001 -12h-37zM339 1272c-38.667 0 -71.501 5.49902 -98.501 16.499s-48.667 26.5 -65 46.5
s-27.833 44.333 -34.5 73s-9.33398 60.667 -8.00098 96c0.666992 8 5 12 13 12h39c8 0 11.667 -4 11 -12c-2 -33.333 0 -61.333 6 -84s15.5 -40.667 28.5 -54s28.667 -22.833 47 -28.5s39.166 -8.5 62.499 -8.5c22.667 0 44.834 2.83301 66.501 8.5
s41.834 15.334 60.501 29.001s35.834 31.667 51.501 54s28.834 50.5 39.501 84.5c2.66699 7.33301 8 11 16 11h39c8 0 11 -3.66699 9 -11c-11.333 -36 -24.833 -68.333 -40.5 -97s-34.834 -53 -57.501 -73s-49.167 -35.5 -79.5 -46.5s-65.5 -16.5 -105.5 -16.5z" />
    <glyph glyph-name="Iogonek" unicode="&#x12e;" horiz-adv-x="522" 
d="M65 -348c16 0 33.667 0.5 53 1.5s38 2.5 56 4.5c8 1.33301 11.667 -2 11 -10l-4 -34c-0.666992 -7.33301 -5 -12 -13 -14c-15.333 -3.33301 -33.666 -5.83301 -54.999 -7.5s-42.666 -2.5 -63.999 -2.5c-28.667 0 -52.334 2.5 -71.001 7.5s-33.334 12 -44.001 21
s-18 19.5 -22 31.5s-6 25 -6 39c0 26 6 54 18 84s28 59.667 48 89s42.5 57.333 67.5 84s50.5 49.667 76.5 69l269 1448c2 8 6.66699 12 14 12h37c8.66699 0 12 -4 10 -12l-268 -1451c-1.33301 -4.66699 -2.5 -8 -3.5 -10s-3.16699 -4.66699 -6.5 -8
c-24.667 -18.667 -49 -40.334 -73 -65.001s-45.5 -50.167 -64.5 -76.5s-34.333 -52.5 -46 -78.5s-17.5 -49.667 -17.5 -71c0 -8.66699 1.5 -16.167 4.5 -22.5s8.16699 -11.666 15.5 -15.999s17.333 -7.5 30 -9.5s28.667 -3 48 -3z" />
    </font>
</defs>
</svg>
